STARTFONT 2.1
FONT -FontForge-Good Times Rg-Book-R-Normal--66-630-75-75-P-491-ISO10646-1
SIZE 63 75 75
FONTBOUNDINGBOX 131 79 -18 -14
COMMENT "Generated by fontforge, http://fontforge.sourceforge.net"
COMMENT "(c) 1998-2012 Typodermic Fonts Inc. See attached license agreement. If agreement is missing visit typodermicfonts.com for more info. Languages by Chikako Larabie"
STARTPROPERTIES 39
FOUNDRY "FontForge"
FAMILY_NAME "Good Times Rg"
WEIGHT_NAME "Book"
SLANT "R"
SETWIDTH_NAME "Normal"
ADD_STYLE_NAME ""
PIXEL_SIZE 66
POINT_SIZE 630
RESOLUTION_X 75
RESOLUTION_Y 75
SPACING "P"
AVERAGE_WIDTH 491
CHARSET_REGISTRY "ISO10646"
CHARSET_ENCODING "1"
FONTNAME_REGISTRY ""
CHARSET_COLLECTIONS "ISO8859-2 ISO8859-9 ISO8859-4 ISO10646-1"
FONT_NAME "GoodTimesRg-Regular"
FACE_NAME "GoodTimesRg-Regular"
COPYRIGHT "(c) 1998-2012 Typodermic Fonts Inc. See attached license agreement. If agreement is missing visit typodermicfonts.com for more info. Languages by Chikako Larabie"
FONT_VERSION "4.001"
FONT_ASCENT 53
FONT_DESCENT 13
UNDERLINE_POSITION -9
UNDERLINE_THICKNESS 2
X_HEIGHT 47
CAP_HEIGHT 47
RAW_ASCENT 799
RAW_DESCENT 201
NORM_SPACE 19
RELATIVE_WEIGHT 40
RELATIVE_SETWIDTH 50
SUPERSCRIPT_X 0
SUPERSCRIPT_Y 19
SUPERSCRIPT_SIZE 19
SUBSCRIPT_X 0
SUBSCRIPT_Y 0
SUBSCRIPT_SIZE 19
AVG_LOWERCASE_WIDTH 563
AVG_UPPERCASE_WIDTH 561
ENDPROPERTIES
CHARS 372
STARTCHAR space
ENCODING 32
SWIDTH 294 0
DWIDTH 19 0
BBX 1 1 0 0
BITMAP
00
ENDCHAR
STARTCHAR exclam
ENCODING 33
SWIDTH 298 0
DWIDTH 20 0
BBX 9 48 5 0
BITMAP
7F80
7F80
7F80
7F80
7F80
7F80
7F80
7F80
7F80
7F80
7F80
7F80
7F80
7F80
7F80
7F80
7F80
7F80
7F80
7F80
7F80
7F80
7F80
7F80
7F80
7F80
7F80
7F80
7F80
7F80
7F80
7F80
7F80
0000
0000
0000
0000
0000
0000
0000
3F00
7F80
7F80
FF80
7F80
7F80
7F80
1E00
ENDCHAR
STARTCHAR quotedbl
ENCODING 34
SWIDTH 452 0
DWIDTH 30 0
BBX 21 17 4 31
BITMAP
FF87F8
7F87F8
7F87F8
7F87F8
7F87F8
7F87F8
7F07F8
7F03F8
7F03F8
7F03F8
7F03F0
3F03F0
3F03F0
3F03F0
3F03F0
3F03F0
3F03F0
ENDCHAR
STARTCHAR numbersign
ENCODING 35
SWIDTH 697 0
DWIDTH 46 0
BBX 40 48 3 0
BITMAP
0000FC00FC
0000FC00FC
0000FC01F8
0001F801F8
0001F801F8
0001F803F0
0003F003F0
0003F003F0
0003F003F0
0007E007E0
0007E007E0
0007E007E0
07FFFFFFFF
07FFFFFFFF
07FFFFFFFF
07FFFFFFFF
07FFFFFFFF
07FFFFFFFF
001F801F80
001F003F00
003F003F00
003F003F00
003F007E00
007E007E00
007E007E00
007E00FC00
00FC00FC00
00FC00FC00
00FC01F800
FFFFFFFFE0
FFFFFFFFE0
FFFFFFFFE0
FFFFFFFFE0
FFFFFFFFE0
FFFFFFFFE0
03F007E000
07E007E000
07E007E000
07E007E000
0FC00FC000
0FC00FC000
0FC00FC000
0FC01F8000
1F801F8000
1F801F8000
1F803F0000
3F003F0000
3F003F0000
ENDCHAR
STARTCHAR dollar
ENCODING 36
SWIDTH 744 0
DWIDTH 49 0
BBX 41 48 4 0
BITMAP
00001E000000
00001E000000
00001E000000
00001E000000
00001E000000
00FFFFFFFE00
07FFFFFFFE00
1FFFFFFFFE00
3FFFFFFFFE00
3FFFFFFFFE00
7FFFFFFFFE00
7FFFFFFFFE00
FF801E000000
FF001E000000
FE001E000000
FE001E000000
FE001E000000
FE001E000000
FE001E000000
FF001E000000
7F801E000000
7FFFFFFFC000
3FFFFFFFF000
1FFFFFFFFC00
0FFFFFFFFE00
07FFFFFFFF00
00FFFFFFFF00
00001E00FF80
00001E003F80
00001E003F80
00001E001F80
00001E001F80
00001E001F80
00001E003F80
00001E003F80
00001E00FF80
FFFFFFFFFF00
FFFFFFFFFF00
FFFFFFFFFE00
FFFFFFFFFE00
FFFFFFFFFC00
FFFFFFFFF000
FFFFFFFFC000
00001E000000
00001E000000
00001E000000
00001E000000
00001E000000
ENDCHAR
STARTCHAR percent
ENCODING 37
SWIDTH 965 0
DWIDTH 64 0
BBX 58 56 3 -4
BITMAP
000000000001F000
000000000003F000
000000000007E000
00FF0000000FC000
03FFC000000F8000
0FFFF000001F0000
1FFFF800003F0000
3F81FC00007E0000
3E007E00007C0000
7C003E0000F80000
78001F0001F80000
F8000F0003F00000
F0000F0007E00000
F0000F8007C00000
F0000F800F800000
F0000F801F800000
F0000F803F000000
F0000F007E000000
F0000F007C000000
F8000F00FC000000
78001F01F8000000
7C003E03F0000000
3E007C03E0000000
1F81FC07C0000000
0FFFF80FC0000000
07FFF01F80000000
03FFC03F00000000
007F003E00000000
0000007E003F8000
000000FC01FFF000
000001F803FFF800
000001F007FFFC00
000003E00FC07E00
000007E01F001F00
00000FC03E000F80
00001F803C000F80
00001F003C000780
00003F007C0007C0
00007E00780007C0
0000FC00780003C0
0000F800780003C0
0001F000780003C0
0003F000780007C0
0007E0007C0007C0
000FC0003C000780
000F80003E000F80
001F80001E000F00
003F00001F001F00
007E00000FC07E00
00FC000007FFFC00
00F8000003FFF800
01F8000001FFE000
03F00000003F8000
07E0000000000000
07C0000000000000
1FC0000000000000
ENDCHAR
STARTCHAR ampersand
ENCODING 38
SWIDTH 759 0
DWIDTH 50 0
BBX 45 48 3 0
BITMAP
000FFFC00000
00FFFFC00000
03FFFFC00000
07FFFFC00000
0FFFFFC00000
1FFFFFC00000
3FFFFFC00000
3FFFFFC00000
3FFE00000000
7FF000000000
7FE000000000
7FC000000000
7FC000000000
7FC000000000
7FC000000000
7FC000000000
3FC000000000
3FC000000000
3FE000000000
1FF800000000
0FFFFFFFFFC0
07FFFFFFFFC0
00FFFFFFFFC0
03FFFFFFFFC0
0FFFFFFFFFC0
1FFFFFFFFFC0
3FFFFFFFFFC0
3FF8000FF800
7FE0000FF800
7FC0000FF800
7F80000FF800
FF80000FF800
FF80000FF800
FF80000FF800
FF80000FF800
FF80000FF800
FFC0000FF800
7FC0000FF800
7FF0000FF800
7FFF000FF800
3FFFFFFFFFF8
3FFFFFFFFFF8
1FFFFFFFFFF8
0FFFFFFFFFF8
07FFFFFFFFF8
03FFFFFFFFF8
00FFFFFFFFF8
001FFFFFFFF8
ENDCHAR
STARTCHAR quotesingle
ENCODING 39
SWIDTH 255 0
DWIDTH 17 0
BBX 9 17 4 31
BITMAP
FF80
FF80
FF00
FF00
7F00
7F00
7F00
7F00
7F00
7F00
7F00
7F00
7F00
7E00
3E00
3E00
3E00
ENDCHAR
STARTCHAR parenleft
ENCODING 40
SWIDTH 356 0
DWIDTH 24 0
BBX 13 60 6 -6
BITMAP
01F8
01F8
03F0
03F0
07E0
07E0
07E0
0FC0
0FC0
0F80
1F80
1F80
1F00
3F00
3F00
3F00
3E00
7E00
7E00
7E00
7C00
7C00
7C00
7C00
FC00
FC00
FC00
FC00
FC00
FC00
FC00
FC00
FC00
FC00
FC00
FC00
7C00
7C00
7C00
7C00
7E00
7E00
7E00
3E00
3E00
3F00
3F00
1F00
1F80
1F80
0F80
0FC0
0FC0
07C0
07E0
07E0
03F0
03F0
01F8
01F8
ENDCHAR
STARTCHAR parenright
ENCODING 41
SWIDTH 355 0
DWIDTH 23 0
BBX 13 60 4 -6
BITMAP
FC00
7E00
7E00
3F00
3F00
1F00
1F80
1F80
0FC0
0FC0
0FC0
07C0
07E0
07E0
03E0
03F0
03F0
03F0
01F0
01F0
01F8
01F8
01F8
01F8
00F8
00F8
00F8
00F8
00F8
00F8
00F8
00F8
00F8
00F8
00F8
00F8
01F8
01F8
01F8
01F8
01F0
01F0
03F0
03F0
03F0
03E0
07E0
07E0
07E0
0FC0
0FC0
0FC0
1F80
1F80
1F00
3F00
3F00
7E00
7E00
FC00
ENDCHAR
STARTCHAR asterisk
ENCODING 42
SWIDTH 469 0
DWIDTH 31 0
BBX 23 22 4 26
BITMAP
007800
007800
007800
007800
007800
007800
60780C
7C787C
7FFFFC
FFFFFE
1FFFF0
03FF80
00FE00
01FF00
01FF00
03EF80
07C7C0
0F83C0
0F83E0
1F01F0
0600C0
020080
ENDCHAR
STARTCHAR plus
ENCODING 43
SWIDTH 690 0
DWIDTH 46 0
BBX 37 37 4 6
BITMAP
0000FC0000
0000FC0000
0000FC0000
0000FC0000
0000FC0000
0000FC0000
0000FC0000
0000FC0000
0000FC0000
0000FC0000
0000FC0000
0000FC0000
0000FC0000
0000FC0000
0000FC0000
FFFFFFFFF8
FFFFFFFFF8
FFFFFFFFF8
FFFFFFFFF8
FFFFFFFFF8
FFFFFFFFF8
0000FC0000
0000FC0000
0000FC0000
0000FC0000
0000FC0000
0000FC0000
0000FC0000
0000FC0000
0000FC0000
0000FC0000
0000FC0000
0000FC0000
0000FC0000
0000FC0000
0000FC0000
0000FC0000
ENDCHAR
STARTCHAR comma
ENCODING 44
SWIDTH 259 0
DWIDTH 17 0
BBX 9 17 4 -8
BITMAP
FF80
FF80
FF00
FF00
FF00
FF00
FF00
FF00
FE00
FE00
FE00
FE00
FE00
FC00
FC00
FC00
FC00
ENDCHAR
STARTCHAR hyphen
ENCODING 45
SWIDTH 296 0
DWIDTH 20 0
BBX 16 6 2 22
BITMAP
FFFF
FFFF
FFFF
FFFF
FFFF
FFFF
ENDCHAR
STARTCHAR period
ENCODING 46
SWIDTH 262 0
DWIDTH 17 0
BBX 9 8 4 0
BITMAP
3E00
7F00
FF80
FF80
FF80
FF80
7F00
3E00
ENDCHAR
STARTCHAR slash
ENCODING 47
SWIDTH 444 0
DWIDTH 29 0
BBX 28 48 1 0
BITMAP
000003F0
000007E0
000007C0
000007C0
00000FC0
00000F80
00001F80
00001F00
00003F00
00003E00
00007E00
00007C00
0000FC00
0000F800
0001F800
0001F000
0003F000
0003F000
0007E000
0007E000
0007C000
000FC000
000F8000
001F8000
001F0000
003F0000
003E0000
007E0000
007C0000
00FC0000
00FC0000
01F80000
01F80000
03F00000
03F00000
07E00000
07E00000
07C00000
0FC00000
0F800000
1F800000
1F000000
3F000000
3F000000
7E000000
7E000000
FC000000
FC000000
ENDCHAR
STARTCHAR zero
ENCODING 48
SWIDTH 838 0
DWIDTH 55 0
BBX 50 48 3 0
BITMAP
00001FFC000000
0001FFFFC00000
0007FFFFF00000
001FFFFFFC0000
003FFFFFFF0000
00FFFFFFFF8000
01FFFFFFFFC000
03FFFFFFFFE000
07FFFE3FFFF000
0FFFC001FFF800
0FFF00003FFC00
1FFC00001FFC00
3FF800000FFE00
3FF0000007FE00
7FE0000003FF00
7FC0000001FF00
7FC0000001FF80
FF80000000FF80
FF80000000FF80
FF800000007F80
FF000000007F80
FF000000007F80
FF000000007FC0
FF000000007FC0
FF000000007FC0
FF000000007F80
FF000000007F80
FF000000007F80
FF80000000FF80
FF80000000FF80
7F80000000FF80
7FC0000001FF00
7FC0000001FF00
3FE0000003FE00
3FF0000007FE00
1FF800000FFC00
1FFC00001FFC00
0FFF00003FF800
07FFC001FFF000
03FFFE3FFFF000
01FFFFFFFFE000
00FFFFFFFFC000
007FFFFFFF8000
003FFFFFFE0000
000FFFFFFC0000
0007FFFFF00000
0000FFFF800000
00001FFC000000
ENDCHAR
STARTCHAR one
ENCODING 49
SWIDTH 385 0
DWIDTH 25 0
BBX 19 48 2 0
BITMAP
FF8000
FFF000
FFF800
FFFE00
FFFF00
FFFF00
FFFF80
FFFFC0
07FFC0
00FFC0
007FE0
003FE0
003FE0
001FE0
001FE0
001FE0
001FE0
001FE0
001FE0
001FE0
001FE0
001FE0
001FE0
001FE0
001FE0
001FE0
001FE0
001FE0
001FE0
001FE0
001FE0
001FE0
001FE0
001FE0
001FE0
001FE0
001FE0
001FE0
001FE0
001FE0
001FE0
001FE0
001FE0
001FE0
001FE0
001FE0
001FE0
001FE0
ENDCHAR
STARTCHAR two
ENCODING 50
SWIDTH 825 0
DWIDTH 54 0
BBX 47 48 4 0
BITMAP
7FFFFFFFF800
7FFFFFFFFF00
7FFFFFFFFFC0
7FFFFFFFFFE0
7FFFFFFFFFF0
7FFFFFFFFFF8
7FFFFFFFFFF8
7FFFFFFFFFFC
000000007FFC
000000000FFE
0000000007FE
0000000003FE
0000000003FE
0000000003FE
0000000003FE
0000000003FE
0000000003FE
0000000003FC
0000000007FC
000000001FFC
003FFFFFFFF8
01FFFFFFFFF8
07FFFFFFFFF0
0FFFFFFFFFE0
1FFFFFFFFF80
3FFFFFFFFF00
3FFFFFFFF800
7FF000000000
7FC000000000
7F8000000000
FF8000000000
FF0000000000
FF0000000000
FF0000000000
FF0000000000
FF0000000000
FF0000000000
FF0000000000
FF0000000000
FF0000000000
FFFFFFFFFFFC
FFFFFFFFFFFC
FFFFFFFFFFFC
FFFFFFFFFFFC
FFFFFFFFFFFC
FFFFFFFFFFFC
FFFFFFFFFFFC
FFFFFFFFFFFC
ENDCHAR
STARTCHAR three
ENCODING 51
SWIDTH 827 0
DWIDTH 55 0
BBX 48 48 3 0
BITMAP
FFFFFFFFF800
FFFFFFFFFF00
FFFFFFFFFFC0
FFFFFFFFFFF0
FFFFFFFFFFF8
FFFFFFFFFFF8
FFFFFFFFFFFC
FFFFFFFFFFFE
00000000FFFE
000000000FFE
0000000003FE
0000000003FE
0000000001FE
0000000001FE
0000000001FE
0000000001FE
0000000001FE
0000000003FE
0000000007FC
000000000FF8
001FFFFFFFF0
001FFFFFFFE0
001FFFFFFF80
001FFFFFFFE0
001FFFFFFFF0
001FFFFFFFF8
001FFFFFFFFC
000000000FFE
0000000003FE
0000000001FF
0000000001FF
0000000000FF
0000000000FF
0000000000FF
0000000000FF
0000000001FF
0000000001FF
0000000003FF
000000000FFF
00000000FFFE
FFFFFFFFFFFE
FFFFFFFFFFFC
FFFFFFFFFFFC
FFFFFFFFFFF8
FFFFFFFFFFF0
FFFFFFFFFFC0
FFFFFFFFFF00
FFFFFFFFF800
ENDCHAR
STARTCHAR four
ENCODING 52
SWIDTH 845 0
DWIDTH 56 0
BBX 51 48 3 0
BITMAP
FF8000000FF000
FF8000000FF000
FF8000000FF000
FF8000000FF000
FF8000000FF000
FF8000000FF000
FF8000000FF000
FF8000000FF000
FF8000000FF000
FF8000000FF000
FF8000000FF000
FF8000000FF000
FF8000000FF000
FF8000000FF000
FF8000000FF000
FF8000000FF000
FF8000000FF000
FF8000000FF000
FF8000000FF000
FF8000000FF000
FF8000000FF000
FF8000000FF000
FF8000000FF000
FF8000000FF000
7FC000000FF000
7FE000000FF000
7FF000000FF000
7FFFFFFFFFFFE0
3FFFFFFFFFFFE0
3FFFFFFFFFFFE0
1FFFFFFFFFFFE0
0FFFFFFFFFFFE0
07FFFFFFFFFFE0
01FFFFFFFFFFE0
007FFFFFFFFFE0
000000000FF000
000000000FF000
000000000FF000
000000000FF000
000000000FF000
000000000FF000
000000000FF000
000000000FF000
000000000FF000
000000000FF000
000000000FF000
000000000FF000
000000000FF000
ENDCHAR
STARTCHAR five
ENCODING 53
SWIDTH 885 0
DWIDTH 58 0
BBX 51 48 4 0
BITMAP
FFFFFFFFFFFF80
FFFFFFFFFFFF80
FFFFFFFFFFFF80
FFFFFFFFFFFF80
FFFFFFFFFFFF80
FFFFFFFFFFFF80
FFFFFFFFFFFF80
FFFFFFFFFFFF80
FF800000000000
FF800000000000
FF800000000000
FF800000000000
FF800000000000
FF800000000000
FF800000000000
FF800000000000
FF800000000000
FF800000000000
FF800000000000
FF800000000000
FFFFFFFFFF8000
FFFFFFFFFFF000
FFFFFFFFFFFC00
FFFFFFFFFFFE00
FFFFFFFFFFFF00
FFFFFFFFFFFF80
FFFFFFFFFFFF80
0000000001FFC0
00000000007FC0
00000000003FE0
00000000001FE0
00000000001FE0
00000000001FE0
00000000001FE0
00000000001FE0
00000000001FE0
00000000003FE0
00000000003FE0
00000000007FC0
0000000007FFC0
FFFFFFFFFFFFC0
FFFFFFFFFFFF80
FFFFFFFFFFFF80
FFFFFFFFFFFF00
FFFFFFFFFFFE00
FFFFFFFFFFFC00
FFFFFFFFFFF000
FFFFFFFFFF8000
ENDCHAR
STARTCHAR six
ENCODING 54
SWIDTH 872 0
DWIDTH 58 0
BBX 51 48 3 0
BITMAP
0000FFFFFFFF80
000FFFFFFFFF80
003FFFFFFFFF80
00FFFFFFFFFF80
01FFFFFFFFFF80
03FFFFFFFFFF80
07FFFFFFFFFF80
0FFFFFFFFFFF80
1FFFF000000000
1FFE0000000000
3FF80000000000
3FF00000000000
7FE00000000000
7FC00000000000
7FC00000000000
7F800000000000
FF800000000000
FF800000000000
FF800000000000
FF000000000000
FFFFFFFFFF8000
FFFFFFFFFFF000
FFFFFFFFFFFC00
FFFFFFFFFFFE00
FFFFFFFFFFFF00
FFFFFFFFFFFF80
FFFFFFFFFFFFC0
FF00000001FFC0
FF000000007FC0
FF800000003FE0
FF800000001FE0
7F800000001FE0
7FC00000001FE0
7FC00000001FE0
7FE00000001FE0
3FE00000001FE0
3FF00000003FE0
1FF80000003FE0
1FFE000000FFC0
0FFFF00007FFC0
0FFFFFFFFFFFC0
07FFFFFFFFFF80
03FFFFFFFFFF80
01FFFFFFFFFF00
007FFFFFFFFE00
003FFFFFFFFC00
000FFFFFFFF000
0000FFFFFF8000
ENDCHAR
STARTCHAR seven
ENCODING 55
SWIDTH 756 0
DWIDTH 50 0
BBX 46 48 3 0
BITMAP
FFFFFFFFFFE0
FFFFFFFFFFF8
FFFFFFFFFFF8
FFFFFFFFFFFC
FFFFFFFFFFF8
FFFFFFFFFFF8
FFFFFFFFFFF8
FFFFFFFFFFF0
000000007FE0
00000000FFE0
00000001FFC0
00000003FF80
00000003FF00
00000007FE00
0000000FFE00
0000001FFC00
0000003FF800
0000003FF000
0000007FE000
000000FFC000
000001FFC000
000003FF8000
000007FF0000
000007FE0000
00000FFC0000
00001FFC0000
00003FF80000
00007FF00000
0000FFE00000
0000FFC00000
0001FF800000
0003FF800000
0007FF000000
000FFE000000
001FFC000000
001FF8000000
003FF8000000
007FF0000000
00FFE0000000
01FFC0000000
03FF80000000
03FF80000000
07FF00000000
0FFE00000000
1FFC00000000
3FF800000000
3FF000000000
FFF000000000
ENDCHAR
STARTCHAR eight
ENCODING 56
SWIDTH 898 0
DWIDTH 59 0
BBX 53 48 3 0
BITMAP
000FFFFFFFC000
00FFFFFFFFF800
03FFFFFFFFFE00
07FFFFFFFFFF00
0FFFFFFFFFFF80
1FFFFFFFFFFFC0
1FFFFFFFFFFFE0
3FFFFFFFFFFFE0
3FFF80000FFFE0
3FF00000007FF0
7FE00000003FF0
7FC00000001FF0
7FC00000001FF0
7FC00000001FF0
7FC00000000FF0
3FC00000001FF0
3FC00000001FE0
3FC00000001FE0
1FE00000003FE0
1FF8000000FFC0
0FFFFFFFFFFF80
03FFFFFFFFFF00
00FFFFFFFFFC00
03FFFFFFFFFE00
0FFFFFFFFFFF80
1FFFFFFFFFFFC0
3FFFFFFFFFFFE0
3FF8000000FFE0
7FE00000003FF0
7FC00000001FF0
7F800000000FF8
FF800000000FF8
FF800000000FF8
FF800000000FF8
FF800000000FF8
FF800000000FF8
7FC00000000FF8
7FE00000001FF0
7FF00000007FF0
7FFF800007FFF0
3FFFFFFFFFFFE0
3FFFFFFFFFFFE0
1FFFFFFFFFFFC0
0FFFFFFFFFFF80
07FFFFFFFFFF00
03FFFFFFFFFE00
00FFFFFFFFF800
001FFFFFFFC000
ENDCHAR
STARTCHAR nine
ENCODING 57
SWIDTH 861 0
DWIDTH 57 0
BBX 51 48 3 0
BITMAP
003FFFFFE00000
01FFFFFFFC0000
03FFFFFFFF8000
0FFFFFFFFFC000
1FFFFFFFFFF000
1FFFFFFFFFF800
3FFFFFFFFFFC00
7FFFFFFFFFFC00
7FFC0001FFFE00
7FE000001FFF00
FFC0000007FF00
FF80000001FF80
FF80000000FF80
FF00000000FF80
FF000000007FC0
FF000000007FC0
FF000000003FC0
FF000000003FC0
FF800000003FE0
FF800000003FE0
FFC00000003FE0
7FF00000001FE0
7FFFFFFFFFFFE0
3FFFFFFFFFFFE0
3FFFFFFFFFFFE0
1FFFFFFFFFFFE0
0FFFFFFFFFFFE0
03FFFFFFFFFFE0
007FFFFFFFFFE0
00000000003FE0
00000000003FE0
00000000003FC0
00000000007FC0
00000000007FC0
0000000000FFC0
0000000000FF80
0000000001FF80
0000000007FF80
000000000FFF00
00000000FFFF00
07FFFFFFFFFE00
07FFFFFFFFFC00
07FFFFFFFFF800
07FFFFFFFFF000
07FFFFFFFFE000
07FFFFFFFF8000
07FFFFFFFE0000
07FFFFFFE00000
ENDCHAR
STARTCHAR colon
ENCODING 58
SWIDTH 262 0
DWIDTH 17 0
BBX 9 30 4 0
BITMAP
3E00
7F00
FF80
FF80
FF80
FF80
7F00
3E00
0000
0000
0000
0000
0000
0000
0000
0000
0000
0000
0000
0000
0000
0000
3E00
7F00
FF80
FF80
FF80
FF80
7F00
3E00
ENDCHAR
STARTCHAR semicolon
ENCODING 59
SWIDTH 262 0
DWIDTH 17 0
BBX 9 37 4 -8
BITMAP
3F00
7F00
FF80
FF80
FF80
7F80
7F00
3E00
0000
0000
0000
0000
0000
0000
0000
0000
0000
0000
0000
0000
FF80
FF80
FF00
FF00
FF00
FF00
FF00
FF00
FE00
FE00
FE00
FE00
FE00
FC00
FC00
FC00
FC00
ENDCHAR
STARTCHAR less
ENCODING 60
SWIDTH 690 0
DWIDTH 46 0
BBX 37 35 4 7
BITMAP
0000000008
0000000078
00000001F8
00000007F8
0000003FF8
000000FFF8
000007FFF0
00001FFF80
00007FFE00
0003FFF000
000FFF8000
003FFE0000
01FFF00000
07FFC00000
3FFE000000
7FF8000000
FFC0000000
FE00000000
FFC0000000
7FF0000000
3FFE000000
0FFF800000
01FFF00000
007FFC0000
001FFF8000
0003FFE000
0000FFFC00
00001FFF00
000007FFE0
000001FFF8
0000003FF8
0000000FF8
00000003F8
0000000078
0000000018
ENDCHAR
STARTCHAR equal
ENCODING 61
SWIDTH 690 0
DWIDTH 46 0
BBX 37 24 4 13
BITMAP
FFFFFFFFF8
FFFFFFFFF8
FFFFFFFFF8
FFFFFFFFF8
FFFFFFFFF8
FFFFFFFFF8
0000000000
0000000000
0000000000
0000000000
0000000000
0000000000
0000000000
0000000000
0000000000
0000000000
0000000000
0000000000
FFFFFFFFF8
FFFFFFFFF8
FFFFFFFFF8
FFFFFFFFF8
FFFFFFFFF8
FFFFFFFFF8
ENDCHAR
STARTCHAR greater
ENCODING 62
SWIDTH 690 0
DWIDTH 46 0
BBX 37 35 4 7
BITMAP
C000000000
F000000000
FE00000000
FF80000000
FFE0000000
FFFC000000
3FFF000000
0FFFE00000
01FFF80000
003FFE0000
000FFFC000
0001FFF000
00007FFC00
00000FFF80
000003FFE0
0000007FF8
0000001FF8
00000003F8
0000000FF8
0000007FF8
000001FFE0
00000FFF80
00003FFE00
0001FFF000
0007FFC000
003FFF0000
00FFF80000
07FFE00000
1FFF800000
FFFC000000
FFF0000000
FF80000000
FE00000000
F800000000
C000000000
ENDCHAR
STARTCHAR question
ENCODING 63
SWIDTH 776 0
DWIDTH 51 0
BBX 46 48 3 0
BITMAP
FFFFFFFFF000
FFFFFFFFFE00
FFFFFFFFFF80
FFFFFFFFFFC0
FFFFFFFFFFE0
FFFFFFFFFFF0
FFFFFFFFFFF8
FFFFFFFFFFF8
00000000FFF8
000000001FFC
0000000007FC
0000000007FC
0000000007FC
0000000003FC
0000000003FC
0000000003FC
0000000007FC
0000000007FC
000000000FF8
000000003FF8
001FFFFFFFF0
007FFFFFFFF0
01FFFFFFFFE0
03FFFFFFFFC0
03FFFFFFFF80
07FFFFFFFE00
07FFFFFFF000
07F800000000
0FF800000000
0FF000000000
0FF000000000
0FF000000000
0FF000000000
000000000000
000000000000
000000000000
000000000000
000000000000
000000000000
000000000000
03E000000000
07F000000000
0FF800000000
0FF800000000
0FF800000000
0FF800000000
07F000000000
03E000000000
ENDCHAR
STARTCHAR at
ENCODING 64
SWIDTH 833 0
DWIDTH 55 0
BBX 48 48 3 0
BITMAP
00001FFFFFFF
0001FFFFFFFF
0007FFFFFFFF
001FFFFFFFFF
003FFFFFFFFF
00FFFFFFFFFF
01FFE000003F
03FF0000003F
07FC0000003F
07F80000003F
0FE00000003F
1FC00000003F
1FC00000003F
3F800FFFF03F
3F003FFFF03F
7F007FFFF03F
7E00FFFFF03F
7E01FFFFF03F
FE01FC03F03F
FC03F803F03F
FC03F003F03F
FC03E003F03F
FC07E003F03F
FC07E003F03F
FC07E003F03F
FC03E003F03F
FC03E003F03F
FC03F003F03F
FC03F803F03F
FE01FC03F03F
FE01FFFFFFFF
7E00FFFFFFFF
7F007FFFFFFF
7F003FFFFFFF
3F800FFFFFFF
3FC000000000
1FC000000000
1FE000000000
0FF800000000
07FC00000000
03FF00000000
01FFE0000000
00FFFFFFFFFF
007FFFFFFFFF
003FFFFFFFFF
000FFFFFFFFF
0001FFFFFFFF
00003FFFFFFF
ENDCHAR
STARTCHAR A
ENCODING 65
SWIDTH 989 0
DWIDTH 65 0
BBX 63 49 1 0
BITMAP
0000000100000000
00000007C0000000
0000000FE0000000
0000001FF0000000
0000001FF0000000
0000003FF8000000
0000003FFC000000
0000007FFC000000
000000FFFE000000
000000FFFE000000
000001FFFF000000
000003FFFF800000
000003FFFF800000
000007FEFFC00000
000007FC7FC00000
00000FF87FE00000
00001FF83FF00000
00001FF03FF00000
00003FF01FF80000
00003FE00FF80000
00007FC00FFC0000
0000FFC007FE0000
0000FF8007FE0000
0001FF8003FF0000
0001FF0001FF0000
0003FE0001FF8000
0007FE0000FFC000
0007FC0000FFC000
000FFC00007FE000
000FF800003FE000
001FF01FFFFFF000
003FF03FFFFFF800
003FE03FFFFFF800
007FE07FFFFFFC00
007FC07FFFFFFE00
00FFC0FFFFFFFE00
01FF81FFFFFFFF00
01FF00000003FF00
03FF00000001FF80
03FE00000001FFC0
07FE00000000FFC0
0FFC000000007FE0
0FF8000000007FE0
1FF8000000003FF0
1FF0000000003FF8
3FF0000000001FF8
7FE0000000000FFC
7FC0000000000FFC
FFC00000000007FE
ENDCHAR
STARTCHAR B
ENCODING 66
SWIDTH 891 0
DWIDTH 59 0
BBX 52 48 4 0
BITMAP
FFFFFFFFFF0000
FFFFFFFFFFF000
FFFFFFFFFFFC00
FFFFFFFFFFFE00
FFFFFFFFFFFF00
FFFFFFFFFFFF80
FFFFFFFFFFFF80
FFFFFFFFFFFFC0
FF0000001FFFC0
FF00000000FFC0
FF000000007FE0
FF000000003FE0
FF000000003FE0
FF000000003FE0
FF000000003FE0
FF000000003FC0
FF000000003FC0
FF000000003FC0
FF000000007F80
FF00000001FF80
FF01FFFFFFFF00
FF01FFFFFFFC00
FF01FFFFFFF000
FF01FFFFFFFC00
FF01FFFFFFFF00
FF01FFFFFFFF80
FF01FFFFFFFFC0
FF00000001FFC0
FF000000007FE0
FF000000003FE0
FF000000001FE0
FF000000001FF0
FF000000001FF0
FF000000001FF0
FF000000001FF0
FF000000001FF0
FF000000003FE0
FF000000007FE0
FF00000000FFE0
FF0000003FFFE0
FFFFFFFFFFFFC0
FFFFFFFFFFFFC0
FFFFFFFFFFFF80
FFFFFFFFFFFF00
FFFFFFFFFFFE00
FFFFFFFFFFFC00
FFFFFFFFFFF000
FFFFFFFFFF8000
ENDCHAR
STARTCHAR C
ENCODING 67
SWIDTH 829 0
DWIDTH 55 0
BBX 49 48 3 0
BITMAP
00003FFFFFFF80
0003FFFFFFFF80
000FFFFFFFFF80
003FFFFFFFFF80
007FFFFFFFFF80
01FFFFFFFFFF80
03FFFFFFFFFF80
07FFFFFFFFFF80
07FFFC00000000
0FFF8000000000
1FFE0000000000
1FFC0000000000
3FF80000000000
3FF00000000000
7FE00000000000
7FC00000000000
7FC00000000000
FF800000000000
FF800000000000
FF800000000000
FF000000000000
FF000000000000
FF000000000000
FF000000000000
FF000000000000
FF000000000000
FF000000000000
FF800000000000
FF800000000000
FF800000000000
7F800000000000
7FC00000000000
7FC00000000000
3FE00000000000
3FF00000000000
1FF80000000000
1FFC0000000000
0FFE0000000000
0FFF8000000000
07FFFC00000000
03FFFFFFFFFF80
01FFFFFFFFFF80
00FFFFFFFFFF80
007FFFFFFFFF80
001FFFFFFFFF80
000FFFFFFFFF80
0001FFFFFFFF80
00003FFFFFFF80
ENDCHAR
STARTCHAR D
ENCODING 68
SWIDTH 879 0
DWIDTH 58 0
BBX 51 48 4 0
BITMAP
FFFFFFFF800000
FFFFFFFFF80000
FFFFFFFFFE0000
FFFFFFFFFF8000
FFFFFFFFFFC000
FFFFFFFFFFF000
FFFFFFFFFFF800
FFFFFFFFFFFC00
FF000007FFFC00
FF0000003FFE00
FF0000000FFF00
FF00000007FF00
FF00000003FF80
FF00000001FF80
FF00000000FFC0
FF000000007FC0
FF000000007FC0
FF000000003FE0
FF000000003FE0
FF000000003FE0
FF000000001FE0
FF000000001FE0
FF000000001FE0
FF000000001FE0
FF000000001FE0
FF000000001FE0
FF000000001FE0
FF000000001FE0
FF000000003FE0
FF000000003FE0
FF000000003FC0
FF000000007FC0
FF000000007FC0
FF00000000FF80
FF00000001FF80
FF00000003FF80
FF00000007FF00
FF0000000FFE00
FF0000003FFE00
FF000007FFFC00
FFFFFFFFFFF800
FFFFFFFFFFF000
FFFFFFFFFFE000
FFFFFFFFFFC000
FFFFFFFFFF0000
FFFFFFFFFE0000
FFFFFFFFF00000
FFFFFFFF800000
ENDCHAR
STARTCHAR E
ENCODING 69
SWIDTH 759 0
DWIDTH 50 0
BBX 43 48 4 0
BITMAP
FFFFFFFFFFE0
FFFFFFFFFFE0
FFFFFFFFFFE0
FFFFFFFFFFE0
FFFFFFFFFFE0
FFFFFFFFFFE0
FFFFFFFFFFE0
FFFFFFFFFFE0
FF0000000000
FF0000000000
FF0000000000
FF0000000000
FF0000000000
FF0000000000
FF0000000000
FF0000000000
FF0000000000
FF0000000000
FF0000000000
FF0000000000
FF01FFFFFF80
FF01FFFFFF80
FF01FFFFFF80
FF01FFFFFF80
FF01FFFFFF80
FF01FFFFFF80
FF01FFFFFF80
FF0000000000
FF0000000000
FF0000000000
FF0000000000
FF0000000000
FF0000000000
FF0000000000
FF0000000000
FF0000000000
FF0000000000
FF0000000000
FF0000000000
FF0000000000
FFFFFFFFFFE0
FFFFFFFFFFE0
FFFFFFFFFFE0
FFFFFFFFFFE0
FFFFFFFFFFE0
FFFFFFFFFFE0
FFFFFFFFFFE0
FFFFFFFFFFE0
ENDCHAR
STARTCHAR F
ENCODING 70
SWIDTH 705 0
DWIDTH 47 0
BBX 41 48 4 0
BITMAP
FFFFFFFFFF80
FFFFFFFFFF80
FFFFFFFFFF80
FFFFFFFFFF80
FFFFFFFFFF80
FFFFFFFFFF80
FFFFFFFFFF80
FFFFFFFFFF80
FF0000000000
FF0000000000
FF0000000000
FF0000000000
FF0000000000
FF0000000000
FF0000000000
FF0000000000
FF0000000000
FF0000000000
FF0000000000
FF0000000000
FF0000000000
FF01FFFFFE00
FF01FFFFFE00
FF01FFFFFE00
FF01FFFFFE00
FF01FFFFFE00
FF01FFFFFE00
FF01FFFFFE00
FF0000000000
FF0000000000
FF0000000000
FF0000000000
FF0000000000
FF0000000000
FF0000000000
FF0000000000
FF0000000000
FF0000000000
FF0000000000
FF0000000000
FF0000000000
FF0000000000
FF0000000000
FF0000000000
FF0000000000
FF0000000000
FF0000000000
FF0000000000
ENDCHAR
STARTCHAR G
ENCODING 71
SWIDTH 888 0
DWIDTH 59 0
BBX 52 48 3 0
BITMAP
00003FFFFFFF80
0003FFFFFFFF80
000FFFFFFFFF80
003FFFFFFFFF80
007FFFFFFFFF80
01FFFFFFFFFF80
03FFFFFFFFFF80
07FFFFFFFFFF80
07FFFC00000000
0FFF8000000000
1FFE0000000000
1FFC0000000000
3FF80000000000
3FF00000000000
7FE00000000000
7FC00000000000
7FC00000000000
FF800000000000
FF800000000000
FF800000000000
FF0003FFFFFFF0
FF0003FFFFFFF0
FF0003FFFFFFF0
FF0003FFFFFFF0
FF0003FFFFFFF0
FF0003FFFFFFF0
FF0003FFFFFFF0
FF800000000FF0
FF800000000FF0
FF800000000FF0
7F800000000FF0
7FC00000000FF0
7FC00000000FF0
3FE00000000FF0
3FF00000000FF0
1FF80000000FF0
1FFC0000000FF0
0FFE0000000FF0
0FFF8000000FF0
07FFFC00000FF0
03FFFFFFFFFFF0
01FFFFFFFFFFF0
00FFFFFFFFFFF0
007FFFFFFFFFF0
001FFFFFFFFFF0
000FFFFFFFFFF0
0001FFFFFFFFF0
00003FFFFFFFF0
ENDCHAR
STARTCHAR H
ENCODING 72
SWIDTH 838 0
DWIDTH 55 0
BBX 47 48 4 0
BITMAP
FF80000001FE
FF80000001FE
FF80000001FE
FF80000001FE
FF80000001FE
FF80000001FE
FF80000001FE
FF80000001FE
FF80000001FE
FF80000001FE
FF80000001FE
FF80000001FE
FF80000001FE
FF80000001FE
FF80000001FE
FF80000001FE
FF80000001FE
FF80000001FE
FF80000001FE
FF80000001FE
FF81FFFFFFFE
FF81FFFFFFFE
FF81FFFFFFFE
FF81FFFFFFFE
FF81FFFFFFFE
FF81FFFFFFFE
FF81FFFFFFFE
FF80000001FE
FF80000001FE
FF80000001FE
FF80000001FE
FF80000001FE
FF80000001FE
FF80000001FE
FF80000001FE
FF80000001FE
FF80000001FE
FF80000001FE
FF80000001FE
FF80000001FE
FF80000001FE
FF80000001FE
FF80000001FE
FF80000001FE
FF80000001FE
FF80000001FE
FF80000001FE
FF80000001FE
ENDCHAR
STARTCHAR I
ENCODING 73
SWIDTH 267 0
DWIDTH 18 0
BBX 8 48 5 0
BITMAP
FF
FF
FF
FF
FF
FF
FF
FF
FF
FF
FF
FF
FF
FF
FF
FF
FF
FF
FF
FF
FF
FF
FF
FF
FF
FF
FF
FF
FF
FF
FF
FF
FF
FF
FF
FF
FF
FF
FF
FF
FF
FF
FF
FF
FF
FF
FF
FF
ENDCHAR
STARTCHAR J
ENCODING 74
SWIDTH 708 0
DWIDTH 47 0
BBX 41 48 2 0
BITMAP
000000007F80
000000007F80
000000007F80
000000007F80
000000007F80
000000007F80
000000007F80
000000007F80
000000007F80
000000007F80
000000007F80
000000007F80
000000007F80
000000007F80
000000007F80
000000007F80
000000007F80
000000007F80
000000007F80
000000007F80
000000007F80
000000007F80
000000007F80
000000007F80
000000007F80
000000007F80
000000007F80
000000007F80
000000007F80
000000007F80
00000000FF80
00000000FF80
00000000FF80
00000001FF80
00000001FF00
00000003FF00
00000007FF00
0000000FFE00
0000007FFE00
00000FFFFC00
FFFFFFFFF800
FFFFFFFFF800
FFFFFFFFF000
FFFFFFFFE000
FFFFFFFF8000
FFFFFFFE0000
FFFFFFF00000
FFFFFF000000
ENDCHAR
STARTCHAR K
ENCODING 75
SWIDTH 875 0
DWIDTH 58 0
BBX 53 48 4 0
BITMAP
FF80000003FFF0
FF80000007FFC0
FF8000001FFF00
FF8000003FFE00
FF8000007FF800
FF800001FFF000
FF800003FFE000
FF800007FF8000
FF80000FFF0000
FF80003FFE0000
FF80007FF80000
FF8000FFF00000
FF8003FFE00000
FF8007FF800000
FF800FFF000000
FF803FFE000000
FF807FF8000000
FF80FFF0000000
FF81FFE0000000
FF87FF80000000
FF8FFF00000000
FF9FFE00000000
FF9FF800000000
FF9FF000000000
FF9FF800000000
FF8FFE00000000
FF8FFF00000000
FF83FF80000000
FF81FFE0000000
FF80FFF0000000
FF807FF8000000
FF801FFE000000
FF800FFF000000
FF8007FF800000
FF8003FFE00000
FF8000FFF00000
FF80007FF80000
FF80003FFE0000
FF80000FFF0000
FF800007FF8000
FF800003FFE000
FF800001FFF000
FF8000007FF800
FF8000003FFE00
FF8000001FFF00
FF8000000FFF80
FF80000003FFE0
FF80000001FFF8
ENDCHAR
STARTCHAR L
ENCODING 76
SWIDTH 707 0
DWIDTH 47 0
BBX 41 48 4 0
BITMAP
FF8000000000
FF8000000000
FF8000000000
FF8000000000
FF8000000000
FF8000000000
FF8000000000
FF8000000000
FF8000000000
FF8000000000
FF8000000000
FF8000000000
FF8000000000
FF8000000000
FF8000000000
FF8000000000
FF8000000000
FF8000000000
FF8000000000
FF8000000000
FF8000000000
FF8000000000
FF8000000000
FF8000000000
FF8000000000
FF8000000000
FF8000000000
FF8000000000
FF8000000000
FF8000000000
FF8000000000
FF8000000000
FF8000000000
FF8000000000
FF8000000000
FF8000000000
FF8000000000
FF8000000000
FF8000000000
FF8000000000
FFFFFFFFFF80
FFFFFFFFFF80
FFFFFFFFFF80
FFFFFFFFFF80
FFFFFFFFFF80
FFFFFFFFFF80
FFFFFFFFFF80
FFFFFFFFFF80
ENDCHAR
STARTCHAR M
ENCODING 77
SWIDTH 1115 0
DWIDTH 74 0
BBX 70 49 2 -1
BITMAP
0003C00000000F0000
0007E00000001F8000
000FF00000003FC000
000FF80000003FC000
000FF80000007FC000
001FFC0000007FE000
001FFC000000FFE000
001FFC000000FFE000
003FFE000001FFE000
003FFE000001FFF000
003FFF000003FFF000
003FFF000003FFF000
007FFF800003FFF000
007FFF800007FFF800
007FFF800007FFF800
007FFFC0000FF7F800
00FFBFC0000FF7FC00
00FF3FE0001FF7FC00
00FF1FE0001FE3FC00
01FF1FF0001FE3FC00
01FE0FF0003FC3FE00
01FE0FF8003FC1FE00
01FE0FF8007F81FE00
03FE07F8007F81FE00
03FC07FC00FF01FF00
03FC03FC00FF00FF00
03FC03FE01FF00FF00
07FC01FE01FE00FF80
07F801FF01FE00FF80
07F800FF03FC007F80
0FF800FF83FC007F80
0FF000FF87F8007FC0
0FF0007F87F8003FC0
0FF0007FCFF0003FC0
1FF0003FCFF0003FC0
1FE0003FFFF0003FE0
1FE0001FFFE0001FE0
3FE0001FFFE0001FE0
3FC0001FFFC0001FF0
3FC0000FFFC0000FF0
3FC0000FFF80000FF0
7FC00007FF80000FF0
7F800007FF00000FF8
7F800003FF000007F8
7F800003FF000007F8
FF800001FE000007FC
FF000001FC000007FC
FF000000FC000003FC
000000002000000000
ENDCHAR
STARTCHAR N
ENCODING 78
SWIDTH 873 0
DWIDTH 58 0
BBX 50 48 4 0
BITMAP
3C000000003FC0
7F000000003FC0
FF800000003FC0
FFC00000003FC0
FFE00000003FC0
FFF00000003FC0
FFF80000003FC0
FFFC0000003FC0
FFFE0000003FC0
FFFF0000003FC0
FFFF8000003FC0
FFFFC000003FC0
FFFFE000003FC0
FFFFF000003FC0
FF7FF800003FC0
FF3FFC00003FC0
FF1FFE00003FC0
FF0FFF00003FC0
FF07FF80003FC0
FF03FFC0003FC0
FF01FFE0003FC0
FF00FFF0003FC0
FF007FF8003FC0
FF003FFC003FC0
FF001FFE003FC0
FF000FFF003FC0
FF0007FF803FC0
FF0003FFC03FC0
FF0001FFE03FC0
FF0000FFF03FC0
FF00007FF83FC0
FF00003FFC3FC0
FF00000FFE3FC0
FF000007FF3FC0
FF000003FFBFC0
FF000001FFFFC0
FF000000FFFFC0
FF0000007FFFC0
FF0000003FFFC0
FF0000001FFFC0
FF0000000FFFC0
FF00000007FFC0
FF00000003FFC0
FF00000001FFC0
FF00000000FFC0
FF000000007F80
FF000000003F80
FF000000001E00
ENDCHAR
STARTCHAR O
ENCODING 79
SWIDTH 968 0
DWIDTH 64 0
BBX 58 48 3 0
BITMAP
00003FFFFF000000
0003FFFFFFF00000
000FFFFFFFFC0000
003FFFFFFFFF0000
007FFFFFFFFF8000
01FFFFFFFFFFE000
03FFFFFFFFFFF000
07FFFFFFFFFFF800
07FFFC000FFFF800
0FFF8000007FFC00
1FFE0000001FFE00
1FFC0000000FFE00
3FF800000007FF00
3FF000000003FF00
7FE000000001FF80
7FC000000000FF80
7FC000000000FF80
FF80000000007FC0
FF80000000007FC0
FF80000000007FC0
FF00000000003FC0
FF00000000003FC0
FF00000000003FC0
FF00000000003FC0
FF00000000003FC0
FF00000000003FC0
FF00000000003FC0
FF80000000007FC0
FF80000000007FC0
FF80000000007FC0
7F80000000007F80
7FC000000000FF80
7FC000000000FF80
3FE000000001FF00
3FF000000003FF00
1FF800000007FE00
1FFC0000000FFE00
0FFE0000001FFC00
0FFF8000007FFC00
07FFFC000FFFF800
03FFFFFFFFFFF000
01FFFFFFFFFFE000
00FFFFFFFFFFC000
007FFFFFFFFF8000
001FFFFFFFFE0000
000FFFFFFFF80000
0001FFFFFFE00000
00003FFFFF000000
ENDCHAR
STARTCHAR P
ENCODING 80
SWIDTH 867 0
DWIDTH 57 0
BBX 51 48 4 0
BITMAP
FFFFFFFFFE0000
FFFFFFFFFFC000
FFFFFFFFFFF000
FFFFFFFFFFF800
FFFFFFFFFFFE00
FFFFFFFFFFFF00
FFFFFFFFFFFF00
FFFFFFFFFFFF80
FF0000000FFFC0
FF00000001FFC0
FF00000000FFC0
FF000000007FE0
FF000000003FE0
FF000000001FE0
FF000000001FE0
FF000000001FE0
FF000000001FE0
FF000000001FE0
FF000000001FE0
FF000000001FE0
FF000000001FE0
FF000000003FE0
FF000000003FE0
FF000000007FE0
FF00000000FFC0
FF00000001FFC0
FF0000000FFF80
FF01FFFFFFFF80
FF01FFFFFFFF00
FF01FFFFFFFE00
FF01FFFFFFFC00
FF01FFFFFFF800
FF01FFFFFFF000
FF01FFFFFFC000
FF01FFFFFE0000
FF000000000000
FF000000000000
FF000000000000
FF000000000000
FF000000000000
FF000000000000
FF000000000000
FF000000000000
FF000000000000
FF000000000000
FF000000000000
FF000000000000
FF000000000000
ENDCHAR
STARTCHAR Q
ENCODING 81
SWIDTH 968 0
DWIDTH 64 0
BBX 61 48 3 0
BITMAP
00003FFFFF000000
0003FFFFFFF00000
000FFFFFFFFC0000
003FFFFFFFFF0000
007FFFFFFFFF8000
01FFFFFFFFFFE000
03FFFFFFFFFFF000
07FFFFFFFFFFF800
07FFFC000FFFF800
0FFF8000007FFC00
1FFE0000001FFE00
1FFC0000000FFE00
3FF800000007FF00
3FF000000003FF00
7FE000000001FF80
7FC000000000FF80
7FC000000000FF80
FF80000000007FC0
FF80000000007FC0
FF80000000007FC0
FF00000000003FC0
FF00000000003FC0
FF00000000003FC0
FF00000000003FC0
FF00000000003FC0
FF00000000003FC0
FF00000000003FC0
FF80000000007FC0
FF80007FF8007FC0
FF80001FFC007FC0
7F80000FFE007F80
7FC00007FF00FF80
7FC00003FF80FF80
3FE00000FFC1FF00
3FF000007FF3FF00
1FF800003FFFFF00
1FFC00000FFFFE00
0FFE000007FFFC00
0FFF800003FFFC00
07FFFC0007FFF800
03FFFFFFFFFFF000
01FFFFFFFFFFF000
00FFFFFFFFFFFC00
007FFFFFFFFFFE00
001FFFFFFFFFFF00
000FFFFFFFF9FF80
0001FFFFFFE0FFE0
00003FFFFF007FF8
ENDCHAR
STARTCHAR R
ENCODING 82
SWIDTH 921 0
DWIDTH 61 0
BBX 57 48 4 0
BITMAP
FFFFFFFFFE000000
FFFFFFFFFFE00000
FFFFFFFFFFF80000
FFFFFFFFFFFC0000
FFFFFFFFFFFE0000
FFFFFFFFFFFF0000
FFFFFFFFFFFF8000
FFFFFFFFFFFFC000
FF0000000FFFC000
FF00000000FFE000
FF000000007FE000
FF000000003FE000
FF000000001FF000
FF000000001FF000
FF000000001FF000
FF000000000FF000
FF000000000FF000
FF000000000FF000
FF000000000FF000
FF000000000FF000
FF000000001FF000
FF000000001FF000
FF000000001FE000
FF000000003FE000
FF000000003FE000
FF00000000FFC000
FF00000003FFC000
FF01FFFFFFFF8000
FF01FFFFFFFF0000
FF01FFFFFFFE0000
FF01FFFFFFFC0000
FF01FFFFFFF80000
FF01FFFFFFE00000
FF01FFFFFFE00000
FF0000007FF00000
FF0000003FF80000
FF0000001FFC0000
FF0000000FFE0000
FF0000000FFF0000
FF00000007FF8000
FF00000003FF8000
FF00000001FFC000
FF00000000FFE000
FF000000007FF000
FF000000003FF800
FF000000001FFC00
FF000000001FFE00
FF000000000FFF80
ENDCHAR
STARTCHAR S
ENCODING 83
SWIDTH 880 0
DWIDTH 58 0
BBX 52 48 3 0
BITMAP
001FFFFFFFFFC0
00FFFFFFFFFFC0
03FFFFFFFFFFC0
07FFFFFFFFFFC0
0FFFFFFFFFFFC0
1FFFFFFFFFFFC0
3FFFFFFFFFFFC0
3FFFFFFFFFFFC0
7FFC0000000000
7FE00000000000
7FC00000000000
7FC00000000000
FF800000000000
FF800000000000
FF800000000000
7F800000000000
7F800000000000
7FC00000000000
7FE00000000000
3FF00000000000
3FFFFFFFFFC000
1FFFFFFFFFF800
0FFFFFFFFFFE00
07FFFFFFFFFF00
03FFFFFFFFFF80
00FFFFFFFFFFC0
001FFFFFFFFFE0
0000000000FFE0
00000000003FE0
00000000001FF0
00000000000FF0
00000000000FF0
00000000000FF0
00000000000FF0
00000000000FF0
00000000000FF0
00000000001FF0
00000000001FF0
00000000003FE0
0000000003FFE0
7FFFFFFFFFFFE0
7FFFFFFFFFFFC0
7FFFFFFFFFFFC0
7FFFFFFFFFFF80
7FFFFFFFFFFF00
7FFFFFFFFFFE00
7FFFFFFFFFF800
7FFFFFFFFFC000
ENDCHAR
STARTCHAR T
ENCODING 84
SWIDTH 720 0
DWIDTH 48 0
BBX 45 48 1 0
BITMAP
FFFFFFFFFFF8
FFFFFFFFFFF8
FFFFFFFFFFF8
FFFFFFFFFFF8
FFFFFFFFFFF8
FFFFFFFFFFF8
FFFFFFFFFFF8
FFFFFFFFFFF8
00001FE00000
00001FE00000
00001FE00000
00001FE00000
00001FE00000
00001FE00000
00001FE00000
00001FE00000
00001FE00000
00001FE00000
00001FE00000
00001FE00000
00001FE00000
00001FE00000
00001FE00000
00001FE00000
00001FE00000
00001FE00000
00001FE00000
00001FE00000
00001FE00000
00001FE00000
00001FE00000
00001FE00000
00001FE00000
00001FE00000
00001FE00000
00001FE00000
00001FE00000
00001FE00000
00001FE00000
00001FE00000
00001FE00000
00001FE00000
00001FE00000
00001FE00000
00001FE00000
00001FE00000
00001FE00000
00001FE00000
ENDCHAR
STARTCHAR U
ENCODING 85
SWIDTH 889 0
DWIDTH 59 0
BBX 52 49 3 -1
BITMAP
FF800000000FF0
FF800000000FF0
FF800000000FF0
FF800000000FF0
FF800000000FF0
FF800000000FF0
FF800000000FF0
FF800000000FF0
FF800000000FF0
FF800000000FF0
FF800000000FF0
FF800000000FF0
FF800000000FF0
FF800000000FF0
FF800000000FF0
FF800000000FF0
FF800000000FF0
FF800000000FF0
FF800000000FF0
FF800000000FF0
FF800000000FF0
FF800000000FF0
FF800000000FF0
FF800000000FF0
FF800000000FF0
FF800000000FF0
FF800000000FF0
FF800000000FF0
FF800000000FF0
FF800000000FF0
7F800000000FF0
7F800000000FF0
7FC00000001FF0
7FC00000001FF0
7FE00000001FE0
7FE00000003FE0
3FF00000007FE0
3FF8000000FFE0
1FFC000001FFC0
1FFF80000FFFC0
0FFFFF03FFFF80
0FFFFFFFFFFF00
07FFFFFFFFFE00
03FFFFFFFFFC00
01FFFFFFFFF800
007FFFFFFFF000
001FFFFFFFC000
0003FFFFFE0000
00001FFFC00000
ENDCHAR
STARTCHAR V
ENCODING 86
SWIDTH 989 0
DWIDTH 65 0
BBX 63 49 1 -1
BITMAP
FFC00000000007FE
7FE00000000007FC
7FF0000000000FFC
3FF0000000000FF8
1FF8000000001FF8
1FF8000000003FF0
0FFC000000003FE0
0FFE000000007FE0
07FE000000007FC0
03FF00000000FFC0
03FF00000001FF80
01FF80000001FF00
01FFC0000003FF00
00FFC0000003FE00
007FE0000007FE00
007FE0000007FC00
003FF000000FF800
003FF000001FF800
001FF800001FF000
000FFC00003FF000
000FFC00003FE000
0007FE00007FC000
0007FE0000FFC000
0003FF0000FF8000
0001FF8001FF8000
0001FF8001FF0000
0000FFC003FE0000
0000FFC007FE0000
00007FE007FC0000
00003FF00FF80000
00003FF00FF80000
00001FF81FF00000
00001FF81FF00000
00000FFC3FE00000
000007FC7FC00000
000007FE7FC00000
000003FFFF800000
000001FFFF800000
000001FFFF000000
000000FFFE000000
000000FFFE000000
0000007FFC000000
0000003FFC000000
0000003FF8000000
0000001FF0000000
0000001FF0000000
0000000FE0000000
00000007C0000000
0000000100000000
ENDCHAR
STARTCHAR W
ENCODING 87
SWIDTH 1268 0
DWIDTH 84 0
BBX 82 49 1 -1
BITMAP
FFC000FFE000000000FFC0
7FE0007FE000000000FF80
7FE0007FF000000001FF00
3FF0003FF000000003FF00
3FF0003FF000000003FE00
1FF8001FF800000007FE00
1FF8001FF800000007FC00
0FFC000FFC0000000FFC00
0FFC0007FC0000000FF800
07FE0007FE0000001FF800
03FE0003FE0000001FF000
03FF0003FF0000003FF000
01FF0001FF0000003FE000
01FF8001FF8000007FC000
00FFC000FF8000007FC000
00FFC000FFC00000FF8000
007FE0007FC00000FF8000
007FE0007FE00001FF0000
003FF0003FE00001FF0000
003FF0003FF00003FE0000
001FF8001FF00003FE0000
001FF8001FF80007FC0000
000FFC000FF80007FC0000
000FFC000FFC000FF80000
0007FE000FFC001FF80000
0003FE000FFE001FF00000
0003FF001FFE003FF00000
0001FF001FFF003FE00000
0001FF803FFF007FC00000
0000FF803FFF807FC00000
0000FFC07FFF80FF800000
00007FC07FFFC0FF800000
00007FE0FFFFC1FF000000
00003FE1FF7FE1FF000000
00003FF1FF3FE3FE000000
00001FF3FE1FF3FE000000
00001FFBFE1FF7FC000000
00000FFFFC0FFFFC000000
000007FFFC0FFFF8000000
000007FFF807FFF8000000
000003FFF807FFF0000000
000003FFF003FFE0000000
000001FFE003FFE0000000
000001FFE001FFC0000000
000000FFC001FFC0000000
000000FFC000FF80000000
0000007F8000FF80000000
0000003F80007F00000000
0000001E00003E00000000
ENDCHAR
STARTCHAR X
ENCODING 88
SWIDTH 1000 0
DWIDTH 66 0
BBX 63 48 1 0
BITMAP
3FFC000000003FF8
0FFE000000007FF0
07FF00000000FFC0
03FF80000001FF80
01FFC0000003FF00
00FFF0000007FE00
007FF800000FFC00
003FFC00001FF800
001FFE00003FF000
000FFF0000FFE000
0007FF8001FFC000
0003FFC003FF8000
0001FFE007FF0000
0000FFF00FFE0000
00007FF81FFC0000
00003FFC3FF80000
00001FFE7FF00000
00000FFFFFE00000
000007FFFFC00000
000003FFFF800000
000000FFFF000000
0000007FFE000000
0000003FFC000000
0000003FFC000000
0000007FFE000000
000000FFFF000000
000001FFFF800000
000003FFFFC00000
000007FFFFE00000
00000FFCFFF00000
00003FF87FF80000
00007FF03FFC0000
0000FFE01FFE0000
0001FFC007FF0000
0003FF8003FF8000
0007FF0001FFC000
000FFE0000FFE000
001FFC00007FF000
003FF800003FF800
007FF000001FFC00
00FFE000000FFE00
01FFC0000007FF00
03FF80000003FF80
07FF00000001FFC0
0FFE00000000FFF0
1FFC000000007FF8
3FF8000000003FFC
FFF0000000001FFE
ENDCHAR
STARTCHAR Y
ENCODING 89
SWIDTH 926 0
DWIDTH 61 0
BBX 59 48 1 0
BITMAP
FFF000000000FFE0
7FF000000001FFC0
3FF800000003FF80
1FFC00000003FF00
0FFE00000007FE00
07FF0000000FFE00
07FF8000001FFC00
03FF8000003FF800
01FFC000007FF000
00FFE000007FE000
007FF00000FFC000
003FF80001FF8000
001FFC0003FF8000
001FFE0007FF0000
000FFE000FFE0000
0007FF001FFC0000
0003FF801FF80000
0001FFC03FF00000
0000FFE07FE00000
00007FF0FFE00000
00007FF1FFC00000
00003FFBFF800000
00001FFFFF000000
00000FFFFE000000
000007FFFC000000
000003FFF8000000
000001FFF8000000
000001FFF0000000
000000FFE0000000
0000007FC0000000
0000007FC0000000
0000007FC0000000
0000007FC0000000
0000007FC0000000
0000007FC0000000
0000007FC0000000
0000007FC0000000
0000007FC0000000
0000007FC0000000
0000007FC0000000
0000007FC0000000
0000007FC0000000
0000007FC0000000
0000007FC0000000
0000007FC0000000
0000007FC0000000
0000007FC0000000
0000007FC0000000
ENDCHAR
STARTCHAR Z
ENCODING 90
SWIDTH 802 0
DWIDTH 53 0
BBX 47 48 3 0
BITMAP
FFFFFFFFFFF8
FFFFFFFFFFFC
FFFFFFFFFFFE
FFFFFFFFFFFE
FFFFFFFFFFFE
FFFFFFFFFFFE
FFFFFFFFFFFC
FFFFFFFFFFFC
000000007FF8
00000000FFF0
00000001FFE0
00000003FFC0
00000007FF80
0000000FFF00
0000001FFE00
0000003FFC00
0000007FF800
000000FFF000
000001FFE000
000003FFC000
000007FF8000
00000FFF0000
00001FFE0000
00003FFC0000
00007FF80000
0000FFF00000
0001FFE00000
0003FFC00000
0007FF800000
000FFF000000
001FFE000000
003FFC000000
007FF8000000
00FFF0000000
01FFE0000000
03FFC0000000
07FF80000000
0FFF00000000
1FFE00000000
3FFC00000000
7FFFFFFFFFFE
FFFFFFFFFFFE
FFFFFFFFFFFE
FFFFFFFFFFFE
FFFFFFFFFFFE
FFFFFFFFFFFE
7FFFFFFFFFFE
3FFFFFFFFFFE
ENDCHAR
STARTCHAR bracketleft
ENCODING 91
SWIDTH 333 0
DWIDTH 22 0
BBX 11 60 7 -6
BITMAP
FFE0
FFE0
FFE0
FFE0
FFE0
F800
F800
F800
F800
F800
F800
F800
F800
F800
F800
F800
F800
F800
F800
F800
F800
F800
F800
F800
F800
F800
F800
F800
F800
F800
F800
F800
F800
F800
F800
F800
F800
F800
F800
F800
F800
F800
F800
F800
F800
F800
F800
F800
F800
F800
F800
F800
F800
F800
F800
FFE0
FFE0
FFE0
FFE0
FFE0
ENDCHAR
STARTCHAR backslash
ENCODING 92
SWIDTH 445 0
DWIDTH 29 0
BBX 28 48 1 0
BITMAP
F8000000
FC000000
7C000000
7E000000
3E000000
3F000000
1F000000
1F800000
0F800000
0FC00000
07C00000
07E00000
07E00000
03F00000
03F00000
01F00000
01F80000
00F80000
00FC0000
007C0000
007E0000
003E0000
003F0000
001F0000
001F8000
001F8000
000FC000
000FC000
0007E000
0007E000
0003F000
0003F000
0001F000
0001F800
0000F800
0000FC00
00007C00
00007E00
00007E00
00003F00
00003F00
00001F80
00001F80
00000FC0
00000FC0
000007E0
000007E0
000003F0
ENDCHAR
STARTCHAR bracketright
ENCODING 93
SWIDTH 333 0
DWIDTH 22 0
BBX 11 60 4 -6
BITMAP
FFE0
FFE0
FFE0
FFE0
FFE0
03E0
03E0
03E0
03E0
03E0
03E0
03E0
03E0
03E0
03E0
03E0
03E0
03E0
03E0
03E0
03E0
03E0
03E0
03E0
03E0
03E0
03E0
03E0
03E0
03E0
03E0
03E0
03E0
03E0
03E0
03E0
03E0
03E0
03E0
03E0
03E0
03E0
03E0
03E0
03E0
03E0
03E0
03E0
03E0
03E0
03E0
03E0
03E0
03E0
03E0
FFE0
FFE0
FFE0
FFE0
FFE0
ENDCHAR
STARTCHAR asciicircum
ENCODING 94
SWIDTH 559 0
DWIDTH 37 0
BBX 29 29 4 19
BITMAP
00070000
000F8000
001FC000
001FC000
003FE000
003FE000
003FE000
007DF000
007DF000
00FDF800
00F8F800
00F8F800
01F07C00
01F07C00
03F07E00
03E03E00
07E03F00
07C01F00
07C01F00
0FC01F80
0F800F80
1F800FC0
1F000FC0
3F0007C0
3F0007E0
3E0003E0
7E0003F0
7C0003F0
FC0001F8
ENDCHAR
STARTCHAR underscore
ENCODING 95
SWIDTH 668 0
DWIDTH 44 0
BBX 45 4 0 -11
BITMAP
FFFFFFFFFFF8
FFFFFFFFFFF8
FFFFFFFFFFF8
FFFFFFFFFFF8
ENDCHAR
STARTCHAR grave
ENCODING 96
SWIDTH 362 0
DWIDTH 24 0
BBX 17 9 3 51
BITMAP
C00000
F80000
FF0000
FFF000
FFFE00
7FFF80
03FF80
003F80
000180
ENDCHAR
STARTCHAR a
ENCODING 97
SWIDTH 989 0
DWIDTH 65 0
BBX 63 49 1 0
BITMAP
0000000100000000
00000007C0000000
0000000FE0000000
0000001FF0000000
0000001FF0000000
0000003FF8000000
0000003FFC000000
0000007FFC000000
000000FFFE000000
000000FFFE000000
000001FFFF000000
000003FFFF800000
000003FFFF800000
000007FEFFC00000
000007FC7FC00000
00000FF87FE00000
00001FF83FF00000
00001FF03FF00000
00003FF01FF80000
00003FE00FF80000
00007FC00FFC0000
0000FFC007FE0000
0000FF8007FE0000
0001FF8003FF0000
0001FF0001FF0000
0003FE0001FF8000
0007FE0000FFC000
0007FC0000FFC000
000FFC00007FE000
000FF800003FE000
001FF01FFFFFF000
003FF03FFFFFF800
003FE03FFFFFF800
007FE07FFFFFFC00
007FC07FFFFFFE00
00FFC0FFFFFFFE00
01FF81FFFFFFFF00
01FF00000003FF00
03FF00000001FF80
03FE00000001FFC0
07FE00000000FFC0
0FFC000000007FE0
0FF8000000007FE0
1FF8000000003FF0
1FF0000000003FF8
3FF0000000001FF8
7FE0000000000FFC
7FC0000000000FFC
FFC00000000007FE
ENDCHAR
STARTCHAR b
ENCODING 98
SWIDTH 891 0
DWIDTH 59 0
BBX 52 48 4 0
BITMAP
FFFFFFFFFF0000
FFFFFFFFFFF000
FFFFFFFFFFFC00
FFFFFFFFFFFE00
FFFFFFFFFFFF00
FFFFFFFFFFFF80
FFFFFFFFFFFF80
FFFFFFFFFFFFC0
FF0000001FFFC0
FF00000000FFC0
FF000000007FE0
FF000000003FE0
FF000000003FE0
FF000000003FE0
FF000000003FE0
FF000000003FC0
FF000000003FC0
FF000000003FC0
FF000000007F80
FF00000001FF80
FF01FFFFFFFF00
FF01FFFFFFFC00
FF01FFFFFFF000
FF01FFFFFFFC00
FF01FFFFFFFF00
FF01FFFFFFFF80
FF01FFFFFFFFC0
FF00000001FFC0
FF000000007FE0
FF000000003FE0
FF000000001FE0
FF000000001FF0
FF000000001FF0
FF000000001FF0
FF000000001FF0
FF000000001FF0
FF000000003FE0
FF000000007FE0
FF00000000FFE0
FF0000003FFFE0
FFFFFFFFFFFFC0
FFFFFFFFFFFFC0
FFFFFFFFFFFF80
FFFFFFFFFFFF00
FFFFFFFFFFFE00
FFFFFFFFFFFC00
FFFFFFFFFFF000
FFFFFFFFFF8000
ENDCHAR
STARTCHAR c
ENCODING 99
SWIDTH 829 0
DWIDTH 55 0
BBX 49 48 3 0
BITMAP
00003FFFFFFF80
0003FFFFFFFF80
000FFFFFFFFF80
003FFFFFFFFF80
007FFFFFFFFF80
01FFFFFFFFFF80
03FFFFFFFFFF80
07FFFFFFFFFF80
07FFFC00000000
0FFF8000000000
1FFE0000000000
1FFC0000000000
3FF80000000000
3FF00000000000
7FE00000000000
7FC00000000000
7FC00000000000
FF800000000000
FF800000000000
FF800000000000
FF000000000000
FF000000000000
FF000000000000
FF000000000000
FF000000000000
FF000000000000
FF000000000000
FF800000000000
FF800000000000
FF800000000000
7F800000000000
7FC00000000000
7FC00000000000
3FE00000000000
3FF00000000000
1FF80000000000
1FFC0000000000
0FFE0000000000
0FFF8000000000
07FFFC00000000
03FFFFFFFFFF80
01FFFFFFFFFF80
00FFFFFFFFFF80
007FFFFFFFFF80
001FFFFFFFFF80
000FFFFFFFFF80
0001FFFFFFFF80
00003FFFFFFF80
ENDCHAR
STARTCHAR d
ENCODING 100
SWIDTH 879 0
DWIDTH 58 0
BBX 51 48 4 0
BITMAP
FFFFFFFF800000
FFFFFFFFF80000
FFFFFFFFFE0000
FFFFFFFFFF8000
FFFFFFFFFFC000
FFFFFFFFFFF000
FFFFFFFFFFF800
FFFFFFFFFFFC00
FF000007FFFC00
FF0000003FFE00
FF0000000FFF00
FF00000007FF00
FF00000003FF80
FF00000001FF80
FF00000000FFC0
FF000000007FC0
FF000000007FC0
FF000000003FE0
FF000000003FE0
FF000000003FE0
FF000000001FE0
FF000000001FE0
FF000000001FE0
FF000000001FE0
FF000000001FE0
FF000000001FE0
FF000000001FE0
FF000000001FE0
FF000000003FE0
FF000000003FE0
FF000000003FC0
FF000000007FC0
FF000000007FC0
FF00000000FF80
FF00000001FF80
FF00000003FF80
FF00000007FF00
FF0000000FFE00
FF0000003FFE00
FF000007FFFC00
FFFFFFFFFFF800
FFFFFFFFFFF000
FFFFFFFFFFE000
FFFFFFFFFFC000
FFFFFFFFFF0000
FFFFFFFFFE0000
FFFFFFFFF00000
FFFFFFFF800000
ENDCHAR
STARTCHAR e
ENCODING 101
SWIDTH 759 0
DWIDTH 50 0
BBX 43 48 4 0
BITMAP
FFFFFFFFFFE0
FFFFFFFFFFE0
FFFFFFFFFFE0
FFFFFFFFFFE0
FFFFFFFFFFE0
FFFFFFFFFFE0
FFFFFFFFFFE0
FFFFFFFFFFE0
FF0000000000
FF0000000000
FF0000000000
FF0000000000
FF0000000000
FF0000000000
FF0000000000
FF0000000000
FF0000000000
FF0000000000
FF0000000000
FF0000000000
FF01FFFFFF80
FF01FFFFFF80
FF01FFFFFF80
FF01FFFFFF80
FF01FFFFFF80
FF01FFFFFF80
FF01FFFFFF80
FF0000000000
FF0000000000
FF0000000000
FF0000000000
FF0000000000
FF0000000000
FF0000000000
FF0000000000
FF0000000000
FF0000000000
FF0000000000
FF0000000000
FF0000000000
FFFFFFFFFFE0
FFFFFFFFFFE0
FFFFFFFFFFE0
FFFFFFFFFFE0
FFFFFFFFFFE0
FFFFFFFFFFE0
FFFFFFFFFFE0
FFFFFFFFFFE0
ENDCHAR
STARTCHAR f
ENCODING 102
SWIDTH 705 0
DWIDTH 47 0
BBX 41 48 4 0
BITMAP
FFFFFFFFFF80
FFFFFFFFFF80
FFFFFFFFFF80
FFFFFFFFFF80
FFFFFFFFFF80
FFFFFFFFFF80
FFFFFFFFFF80
FFFFFFFFFF80
FF0000000000
FF0000000000
FF0000000000
FF0000000000
FF0000000000
FF0000000000
FF0000000000
FF0000000000
FF0000000000
FF0000000000
FF0000000000
FF0000000000
FF0000000000
FF01FFFFFE00
FF01FFFFFE00
FF01FFFFFE00
FF01FFFFFE00
FF01FFFFFE00
FF01FFFFFE00
FF01FFFFFE00
FF0000000000
FF0000000000
FF0000000000
FF0000000000
FF0000000000
FF0000000000
FF0000000000
FF0000000000
FF0000000000
FF0000000000
FF0000000000
FF0000000000
FF0000000000
FF0000000000
FF0000000000
FF0000000000
FF0000000000
FF0000000000
FF0000000000
FF0000000000
ENDCHAR
STARTCHAR g
ENCODING 103
SWIDTH 888 0
DWIDTH 59 0
BBX 52 48 3 0
BITMAP
00003FFFFFFF80
0003FFFFFFFF80
000FFFFFFFFF80
003FFFFFFFFF80
007FFFFFFFFF80
01FFFFFFFFFF80
03FFFFFFFFFF80
07FFFFFFFFFF80
07FFFC00000000
0FFF8000000000
1FFE0000000000
1FFC0000000000
3FF80000000000
3FF00000000000
7FE00000000000
7FC00000000000
7FC00000000000
FF800000000000
FF800000000000
FF800000000000
FF0003FFFFFFF0
FF0003FFFFFFF0
FF0003FFFFFFF0
FF0003FFFFFFF0
FF0003FFFFFFF0
FF0003FFFFFFF0
FF0003FFFFFFF0
FF800000000FF0
FF800000000FF0
FF800000000FF0
7F800000000FF0
7FC00000000FF0
7FC00000000FF0
3FE00000000FF0
3FF00000000FF0
1FF80000000FF0
1FFC0000000FF0
0FFE0000000FF0
0FFF8000000FF0
07FFFC00000FF0
03FFFFFFFFFFF0
01FFFFFFFFFFF0
00FFFFFFFFFFF0
007FFFFFFFFFF0
001FFFFFFFFFF0
000FFFFFFFFFF0
0001FFFFFFFFF0
00003FFFFFFFF0
ENDCHAR
STARTCHAR h
ENCODING 104
SWIDTH 838 0
DWIDTH 55 0
BBX 47 48 4 0
BITMAP
FF80000001FE
FF80000001FE
FF80000001FE
FF80000001FE
FF80000001FE
FF80000001FE
FF80000001FE
FF80000001FE
FF80000001FE
FF80000001FE
FF80000001FE
FF80000001FE
FF80000001FE
FF80000001FE
FF80000001FE
FF80000001FE
FF80000001FE
FF80000001FE
FF80000001FE
FF80000001FE
FF81FFFFFFFE
FF81FFFFFFFE
FF81FFFFFFFE
FF81FFFFFFFE
FF81FFFFFFFE
FF81FFFFFFFE
FF81FFFFFFFE
FF80000001FE
FF80000001FE
FF80000001FE
FF80000001FE
FF80000001FE
FF80000001FE
FF80000001FE
FF80000001FE
FF80000001FE
FF80000001FE
FF80000001FE
FF80000001FE
FF80000001FE
FF80000001FE
FF80000001FE
FF80000001FE
FF80000001FE
FF80000001FE
FF80000001FE
FF80000001FE
FF80000001FE
ENDCHAR
STARTCHAR i
ENCODING 105
SWIDTH 267 0
DWIDTH 18 0
BBX 8 48 5 0
BITMAP
FF
FF
FF
FF
FF
FF
FF
FF
FF
FF
FF
FF
FF
FF
FF
FF
FF
FF
FF
FF
FF
FF
FF
FF
FF
FF
FF
FF
FF
FF
FF
FF
FF
FF
FF
FF
FF
FF
FF
FF
FF
FF
FF
FF
FF
FF
FF
FF
ENDCHAR
STARTCHAR j
ENCODING 106
SWIDTH 708 0
DWIDTH 47 0
BBX 41 48 2 0
BITMAP
000000007F80
000000007F80
000000007F80
000000007F80
000000007F80
000000007F80
000000007F80
000000007F80
000000007F80
000000007F80
000000007F80
000000007F80
000000007F80
000000007F80
000000007F80
000000007F80
000000007F80
000000007F80
000000007F80
000000007F80
000000007F80
000000007F80
000000007F80
000000007F80
000000007F80
000000007F80
000000007F80
000000007F80
000000007F80
000000007F80
00000000FF80
00000000FF80
00000000FF80
00000001FF80
00000001FF00
00000003FF00
00000007FF00
0000000FFE00
0000007FFE00
00000FFFFC00
FFFFFFFFF800
FFFFFFFFF800
FFFFFFFFF000
FFFFFFFFE000
FFFFFFFF8000
FFFFFFFE0000
FFFFFFF00000
FFFFFF000000
ENDCHAR
STARTCHAR k
ENCODING 107
SWIDTH 875 0
DWIDTH 58 0
BBX 53 48 4 0
BITMAP
FF80000003FFF0
FF80000007FFC0
FF8000001FFF00
FF8000003FFE00
FF8000007FF800
FF800001FFF000
FF800003FFE000
FF800007FF8000
FF80000FFF0000
FF80003FFE0000
FF80007FF80000
FF8000FFF00000
FF8003FFE00000
FF8007FF800000
FF800FFF000000
FF803FFE000000
FF807FF8000000
FF80FFF0000000
FF81FFE0000000
FF87FF80000000
FF8FFF00000000
FF9FFE00000000
FF9FF800000000
FF9FF000000000
FF9FF800000000
FF8FFE00000000
FF8FFF00000000
FF83FF80000000
FF81FFE0000000
FF80FFF0000000
FF807FF8000000
FF801FFE000000
FF800FFF000000
FF8007FF800000
FF8003FFE00000
FF8000FFF00000
FF80007FF80000
FF80003FFE0000
FF80000FFF0000
FF800007FF8000
FF800003FFE000
FF800001FFF000
FF8000007FF800
FF8000003FFE00
FF8000001FFF00
FF8000000FFF80
FF80000003FFE0
FF80000001FFF8
ENDCHAR
STARTCHAR l
ENCODING 108
SWIDTH 707 0
DWIDTH 47 0
BBX 41 48 4 0
BITMAP
FF8000000000
FF8000000000
FF8000000000
FF8000000000
FF8000000000
FF8000000000
FF8000000000
FF8000000000
FF8000000000
FF8000000000
FF8000000000
FF8000000000
FF8000000000
FF8000000000
FF8000000000
FF8000000000
FF8000000000
FF8000000000
FF8000000000
FF8000000000
FF8000000000
FF8000000000
FF8000000000
FF8000000000
FF8000000000
FF8000000000
FF8000000000
FF8000000000
FF8000000000
FF8000000000
FF8000000000
FF8000000000
FF8000000000
FF8000000000
FF8000000000
FF8000000000
FF8000000000
FF8000000000
FF8000000000
FF8000000000
FFFFFFFFFF80
FFFFFFFFFF80
FFFFFFFFFF80
FFFFFFFFFF80
FFFFFFFFFF80
FFFFFFFFFF80
FFFFFFFFFF80
FFFFFFFFFF80
ENDCHAR
STARTCHAR m
ENCODING 109
SWIDTH 1115 0
DWIDTH 74 0
BBX 70 49 2 -1
BITMAP
0003C00000000F0000
0007E00000001F8000
000FF00000003FC000
000FF80000003FC000
000FF80000007FC000
001FFC0000007FE000
001FFC000000FFE000
001FFC000000FFE000
003FFE000001FFE000
003FFE000001FFF000
003FFF000003FFF000
003FFF000003FFF000
007FFF800003FFF000
007FFF800007FFF800
007FFF800007FFF800
007FFFC0000FF7F800
00FFBFC0000FF7FC00
00FF3FE0001FF7FC00
00FF1FE0001FE3FC00
01FF1FF0001FE3FC00
01FE0FF0003FC3FE00
01FE0FF8003FC1FE00
01FE0FF8007F81FE00
03FE07F8007F81FE00
03FC07FC00FF01FF00
03FC03FC00FF00FF00
03FC03FE01FF00FF00
07FC01FE01FE00FF80
07F801FF01FE00FF80
07F800FF03FC007F80
0FF800FF83FC007F80
0FF000FF87F8007FC0
0FF0007F87F8003FC0
0FF0007FCFF0003FC0
1FF0003FCFF0003FC0
1FE0003FFFF0003FE0
1FE0001FFFE0001FE0
3FE0001FFFE0001FE0
3FC0001FFFC0001FF0
3FC0000FFFC0000FF0
3FC0000FFF80000FF0
7FC00007FF80000FF0
7F800007FF00000FF8
7F800003FF000007F8
7F800003FF000007F8
FF800001FE000007FC
FF000001FC000007FC
FF000000FC000003FC
000000002000000000
ENDCHAR
STARTCHAR n
ENCODING 110
SWIDTH 873 0
DWIDTH 58 0
BBX 50 48 4 0
BITMAP
3C000000003FC0
7F000000003FC0
FF800000003FC0
FFC00000003FC0
FFE00000003FC0
FFF00000003FC0
FFF80000003FC0
FFFC0000003FC0
FFFE0000003FC0
FFFF0000003FC0
FFFF8000003FC0
FFFFC000003FC0
FFFFE000003FC0
FFFFF000003FC0
FF7FF800003FC0
FF3FFC00003FC0
FF1FFE00003FC0
FF0FFF00003FC0
FF07FF80003FC0
FF03FFC0003FC0
FF01FFE0003FC0
FF00FFF0003FC0
FF007FF8003FC0
FF003FFC003FC0
FF001FFE003FC0
FF000FFF003FC0
FF0007FF803FC0
FF0003FFC03FC0
FF0001FFE03FC0
FF0000FFF03FC0
FF00007FF83FC0
FF00003FFC3FC0
FF00000FFE3FC0
FF000007FF3FC0
FF000003FFBFC0
FF000001FFFFC0
FF000000FFFFC0
FF0000007FFFC0
FF0000003FFFC0
FF0000001FFFC0
FF0000000FFFC0
FF00000007FFC0
FF00000003FFC0
FF00000001FFC0
FF00000000FFC0
FF000000007F80
FF000000003F80
FF000000001E00
ENDCHAR
STARTCHAR o
ENCODING 111
SWIDTH 968 0
DWIDTH 64 0
BBX 58 48 3 0
BITMAP
00003FFFFF000000
0003FFFFFFF00000
000FFFFFFFFC0000
003FFFFFFFFF0000
007FFFFFFFFF8000
01FFFFFFFFFFE000
03FFFFFFFFFFF000
07FFFFFFFFFFF800
07FFFC000FFFF800
0FFF8000007FFC00
1FFE0000001FFE00
1FFC0000000FFE00
3FF800000007FF00
3FF000000003FF00
7FE000000001FF80
7FC000000000FF80
7FC000000000FF80
FF80000000007FC0
FF80000000007FC0
FF80000000007FC0
FF00000000003FC0
FF00000000003FC0
FF00000000003FC0
FF00000000003FC0
FF00000000003FC0
FF00000000003FC0
FF00000000003FC0
FF80000000007FC0
FF80000000007FC0
FF80000000007FC0
7F80000000007F80
7FC000000000FF80
7FC000000000FF80
3FE000000001FF00
3FF000000003FF00
1FF800000007FE00
1FFC0000000FFE00
0FFE0000001FFC00
0FFF8000007FFC00
07FFFC000FFFF800
03FFFFFFFFFFF000
01FFFFFFFFFFE000
00FFFFFFFFFFC000
007FFFFFFFFF8000
001FFFFFFFFE0000
000FFFFFFFF80000
0001FFFFFFE00000
00003FFFFF000000
ENDCHAR
STARTCHAR p
ENCODING 112
SWIDTH 867 0
DWIDTH 57 0
BBX 51 48 4 0
BITMAP
FFFFFFFFFE0000
FFFFFFFFFFC000
FFFFFFFFFFF000
FFFFFFFFFFF800
FFFFFFFFFFFE00
FFFFFFFFFFFF00
FFFFFFFFFFFF00
FFFFFFFFFFFF80
FF0000000FFFC0
FF00000001FFC0
FF00000000FFC0
FF000000007FE0
FF000000003FE0
FF000000001FE0
FF000000001FE0
FF000000001FE0
FF000000001FE0
FF000000001FE0
FF000000001FE0
FF000000001FE0
FF000000001FE0
FF000000003FE0
FF000000003FE0
FF000000007FE0
FF00000000FFC0
FF00000001FFC0
FF0000000FFF80
FF01FFFFFFFF80
FF01FFFFFFFF00
FF01FFFFFFFE00
FF01FFFFFFFC00
FF01FFFFFFF800
FF01FFFFFFF000
FF01FFFFFFC000
FF01FFFFFE0000
FF000000000000
FF000000000000
FF000000000000
FF000000000000
FF000000000000
FF000000000000
FF000000000000
FF000000000000
FF000000000000
FF000000000000
FF000000000000
FF000000000000
FF000000000000
ENDCHAR
STARTCHAR q
ENCODING 113
SWIDTH 968 0
DWIDTH 64 0
BBX 61 48 3 0
BITMAP
00003FFFFF000000
0003FFFFFFF00000
000FFFFFFFFC0000
003FFFFFFFFF0000
007FFFFFFFFF8000
01FFFFFFFFFFE000
03FFFFFFFFFFF000
07FFFFFFFFFFF800
07FFFC000FFFF800
0FFF8000007FFC00
1FFE0000001FFE00
1FFC0000000FFE00
3FF800000007FF00
3FF000000003FF00
7FE000000001FF80
7FC000000000FF80
7FC000000000FF80
FF80000000007FC0
FF80000000007FC0
FF80000000007FC0
FF00000000003FC0
FF00000000003FC0
FF00000000003FC0
FF00000000003FC0
FF00000000003FC0
FF00000000003FC0
FF00000000003FC0
FF80000000007FC0
FF80007FF8007FC0
FF80001FFC007FC0
7F80000FFE007F80
7FC00007FF00FF80
7FC00003FF80FF80
3FE00000FFC1FF00
3FF000007FF3FF00
1FF800003FFFFF00
1FFC00000FFFFE00
0FFE000007FFFC00
0FFF800003FFFC00
07FFFC0007FFF800
03FFFFFFFFFFF000
01FFFFFFFFFFF000
00FFFFFFFFFFFC00
007FFFFFFFFFFE00
001FFFFFFFFFFF00
000FFFFFFFF9FF80
0001FFFFFFE0FFE0
00003FFFFF007FF8
ENDCHAR
STARTCHAR r
ENCODING 114
SWIDTH 921 0
DWIDTH 61 0
BBX 57 48 4 0
BITMAP
FFFFFFFFFE000000
FFFFFFFFFFE00000
FFFFFFFFFFF80000
FFFFFFFFFFFC0000
FFFFFFFFFFFE0000
FFFFFFFFFFFF0000
FFFFFFFFFFFF8000
FFFFFFFFFFFFC000
FF0000000FFFC000
FF00000000FFE000
FF000000007FE000
FF000000003FE000
FF000000001FF000
FF000000001FF000
FF000000001FF000
FF000000000FF000
FF000000000FF000
FF000000000FF000
FF000000000FF000
FF000000000FF000
FF000000001FF000
FF000000001FF000
FF000000001FE000
FF000000003FE000
FF000000003FE000
FF00000000FFC000
FF00000003FFC000
FF01FFFFFFFF8000
FF01FFFFFFFF0000
FF01FFFFFFFE0000
FF01FFFFFFFC0000
FF01FFFFFFF80000
FF01FFFFFFE00000
FF01FFFFFFE00000
FF0000007FF00000
FF0000003FF80000
FF0000001FFC0000
FF0000000FFE0000
FF0000000FFF0000
FF00000007FF8000
FF00000003FF8000
FF00000001FFC000
FF00000000FFE000
FF000000007FF000
FF000000003FF800
FF000000001FFC00
FF000000001FFE00
FF000000000FFF80
ENDCHAR
STARTCHAR s
ENCODING 115
SWIDTH 880 0
DWIDTH 58 0
BBX 52 48 3 0
BITMAP
001FFFFFFFFFC0
00FFFFFFFFFFC0
03FFFFFFFFFFC0
07FFFFFFFFFFC0
0FFFFFFFFFFFC0
1FFFFFFFFFFFC0
3FFFFFFFFFFFC0
3FFFFFFFFFFFC0
7FFC0000000000
7FE00000000000
7FC00000000000
7FC00000000000
FF800000000000
FF800000000000
FF800000000000
7F800000000000
7F800000000000
7FC00000000000
7FE00000000000
3FF00000000000
3FFFFFFFFFC000
1FFFFFFFFFF800
0FFFFFFFFFFE00
07FFFFFFFFFF00
03FFFFFFFFFF80
00FFFFFFFFFFC0
001FFFFFFFFFE0
0000000000FFE0
00000000003FE0
00000000001FF0
00000000000FF0
00000000000FF0
00000000000FF0
00000000000FF0
00000000000FF0
00000000000FF0
00000000001FF0
00000000001FF0
00000000003FE0
0000000003FFE0
7FFFFFFFFFFFE0
7FFFFFFFFFFFC0
7FFFFFFFFFFFC0
7FFFFFFFFFFF80
7FFFFFFFFFFF00
7FFFFFFFFFFE00
7FFFFFFFFFF800
7FFFFFFFFFC000
ENDCHAR
STARTCHAR t
ENCODING 116
SWIDTH 720 0
DWIDTH 48 0
BBX 45 48 1 0
BITMAP
FFFFFFFFFFF8
FFFFFFFFFFF8
FFFFFFFFFFF8
FFFFFFFFFFF8
FFFFFFFFFFF8
FFFFFFFFFFF8
FFFFFFFFFFF8
FFFFFFFFFFF8
00001FE00000
00001FE00000
00001FE00000
00001FE00000
00001FE00000
00001FE00000
00001FE00000
00001FE00000
00001FE00000
00001FE00000
00001FE00000
00001FE00000
00001FE00000
00001FE00000
00001FE00000
00001FE00000
00001FE00000
00001FE00000
00001FE00000
00001FE00000
00001FE00000
00001FE00000
00001FE00000
00001FE00000
00001FE00000
00001FE00000
00001FE00000
00001FE00000
00001FE00000
00001FE00000
00001FE00000
00001FE00000
00001FE00000
00001FE00000
00001FE00000
00001FE00000
00001FE00000
00001FE00000
00001FE00000
00001FE00000
ENDCHAR
STARTCHAR u
ENCODING 117
SWIDTH 889 0
DWIDTH 59 0
BBX 52 49 3 -1
BITMAP
FF800000000FF0
FF800000000FF0
FF800000000FF0
FF800000000FF0
FF800000000FF0
FF800000000FF0
FF800000000FF0
FF800000000FF0
FF800000000FF0
FF800000000FF0
FF800000000FF0
FF800000000FF0
FF800000000FF0
FF800000000FF0
FF800000000FF0
FF800000000FF0
FF800000000FF0
FF800000000FF0
FF800000000FF0
FF800000000FF0
FF800000000FF0
FF800000000FF0
FF800000000FF0
FF800000000FF0
FF800000000FF0
FF800000000FF0
FF800000000FF0
FF800000000FF0
FF800000000FF0
FF800000000FF0
7F800000000FF0
7F800000000FF0
7FC00000001FF0
7FC00000001FF0
7FE00000001FE0
7FE00000003FE0
3FF00000007FE0
3FF8000000FFE0
1FFC000001FFC0
1FFF80000FFFC0
0FFFFF03FFFF80
0FFFFFFFFFFF00
07FFFFFFFFFE00
03FFFFFFFFFC00
01FFFFFFFFF800
007FFFFFFFF000
001FFFFFFFC000
0003FFFFFE0000
00001FFFC00000
ENDCHAR
STARTCHAR v
ENCODING 118
SWIDTH 989 0
DWIDTH 65 0
BBX 63 49 1 -1
BITMAP
FFC00000000007FE
7FE00000000007FC
7FF0000000000FFC
3FF0000000000FF8
1FF8000000001FF8
1FF8000000003FF0
0FFC000000003FE0
0FFE000000007FE0
07FE000000007FC0
03FF00000000FFC0
03FF00000001FF80
01FF80000001FF00
01FFC0000003FF00
00FFC0000003FE00
007FE0000007FE00
007FE0000007FC00
003FF000000FF800
003FF000001FF800
001FF800001FF000
000FFC00003FF000
000FFC00003FE000
0007FE00007FC000
0007FE0000FFC000
0003FF0000FF8000
0001FF8001FF8000
0001FF8001FF0000
0000FFC003FE0000
0000FFC007FE0000
00007FE007FC0000
00003FF00FF80000
00003FF00FF80000
00001FF81FF00000
00001FF81FF00000
00000FFC3FE00000
000007FC7FC00000
000007FE7FC00000
000003FFFF800000
000001FFFF800000
000001FFFF000000
000000FFFE000000
000000FFFE000000
0000007FFC000000
0000003FFC000000
0000003FF8000000
0000001FF0000000
0000001FF0000000
0000000FE0000000
00000007C0000000
0000000100000000
ENDCHAR
STARTCHAR w
ENCODING 119
SWIDTH 1268 0
DWIDTH 84 0
BBX 82 49 1 -1
BITMAP
FFC000FFE000000000FFC0
7FE0007FE000000000FF80
7FE0007FF000000001FF00
3FF0003FF000000003FF00
3FF0003FF000000003FE00
1FF8001FF800000007FE00
1FF8001FF800000007FC00
0FFC000FFC0000000FFC00
0FFC0007FC0000000FF800
07FE0007FE0000001FF800
03FE0003FE0000001FF000
03FF0003FF0000003FF000
01FF0001FF0000003FE000
01FF8001FF8000007FC000
00FFC000FF8000007FC000
00FFC000FFC00000FF8000
007FE0007FC00000FF8000
007FE0007FE00001FF0000
003FF0003FE00001FF0000
003FF0003FF00003FE0000
001FF8001FF00003FE0000
001FF8001FF80007FC0000
000FFC000FF80007FC0000
000FFC000FFC000FF80000
0007FE000FFC001FF80000
0003FE000FFE001FF00000
0003FF001FFE003FF00000
0001FF001FFF003FE00000
0001FF803FFF007FC00000
0000FF803FFF807FC00000
0000FFC07FFF80FF800000
00007FC07FFFC0FF800000
00007FE0FFFFC1FF000000
00003FE1FF7FE1FF000000
00003FF1FF3FE3FE000000
00001FF3FE1FF3FE000000
00001FFBFE1FF7FC000000
00000FFFFC0FFFFC000000
000007FFFC0FFFF8000000
000007FFF807FFF8000000
000003FFF807FFF0000000
000003FFF003FFE0000000
000001FFE003FFE0000000
000001FFE001FFC0000000
000000FFC001FFC0000000
000000FFC000FF80000000
0000007F8000FF80000000
0000003F80007F00000000
0000001E00003E00000000
ENDCHAR
STARTCHAR x
ENCODING 120
SWIDTH 1000 0
DWIDTH 66 0
BBX 63 48 1 0
BITMAP
3FFC000000003FF8
0FFE000000007FF0
07FF00000000FFC0
03FF80000001FF80
01FFC0000003FF00
00FFF0000007FE00
007FF800000FFC00
003FFC00001FF800
001FFE00003FF000
000FFF0000FFE000
0007FF8001FFC000
0003FFC003FF8000
0001FFE007FF0000
0000FFF00FFE0000
00007FF81FFC0000
00003FFC3FF80000
00001FFE7FF00000
00000FFFFFE00000
000007FFFFC00000
000003FFFF800000
000000FFFF000000
0000007FFE000000
0000003FFC000000
0000003FFC000000
0000007FFE000000
000000FFFF000000
000001FFFF800000
000003FFFFC00000
000007FFFFE00000
00000FFCFFF00000
00003FF87FF80000
00007FF03FFC0000
0000FFE01FFE0000
0001FFC007FF0000
0003FF8003FF8000
0007FF0001FFC000
000FFE0000FFE000
001FFC00007FF000
003FF800003FF800
007FF000001FFC00
00FFE000000FFE00
01FFC0000007FF00
03FF80000003FF80
07FF00000001FFC0
0FFE00000000FFF0
1FFC000000007FF8
3FF8000000003FFC
FFF0000000001FFE
ENDCHAR
STARTCHAR y
ENCODING 121
SWIDTH 926 0
DWIDTH 61 0
BBX 59 48 1 0
BITMAP
FFF000000000FFE0
7FF000000001FFC0
3FF800000003FF80
1FFC00000003FF00
0FFE00000007FE00
07FF0000000FFE00
07FF8000001FFC00
03FF8000003FF800
01FFC000007FF000
00FFE000007FE000
007FF00000FFC000
003FF80001FF8000
001FFC0003FF8000
001FFE0007FF0000
000FFE000FFE0000
0007FF001FFC0000
0003FF801FF80000
0001FFC03FF00000
0000FFE07FE00000
00007FF0FFE00000
00007FF1FFC00000
00003FFBFF800000
00001FFFFF000000
00000FFFFE000000
000007FFFC000000
000003FFF8000000
000001FFF8000000
000001FFF0000000
000000FFE0000000
0000007FC0000000
0000007FC0000000
0000007FC0000000
0000007FC0000000
0000007FC0000000
0000007FC0000000
0000007FC0000000
0000007FC0000000
0000007FC0000000
0000007FC0000000
0000007FC0000000
0000007FC0000000
0000007FC0000000
0000007FC0000000
0000007FC0000000
0000007FC0000000
0000007FC0000000
0000007FC0000000
0000007FC0000000
ENDCHAR
STARTCHAR z
ENCODING 122
SWIDTH 802 0
DWIDTH 53 0
BBX 47 48 3 0
BITMAP
FFFFFFFFFFF8
FFFFFFFFFFFC
FFFFFFFFFFFE
FFFFFFFFFFFE
FFFFFFFFFFFE
FFFFFFFFFFFE
FFFFFFFFFFFC
FFFFFFFFFFFC
000000007FF8
00000000FFF0
00000001FFE0
00000003FFC0
00000007FF80
0000000FFF00
0000001FFE00
0000003FFC00
0000007FF800
000000FFF000
000001FFE000
000003FFC000
000007FF8000
00000FFF0000
00001FFE0000
00003FFC0000
00007FF80000
0000FFF00000
0001FFE00000
0003FFC00000
0007FF800000
000FFF000000
001FFE000000
003FFC000000
007FF8000000
00FFF0000000
01FFE0000000
03FFC0000000
07FF80000000
0FFF00000000
1FFE00000000
3FFC00000000
7FFFFFFFFFFE
FFFFFFFFFFFE
FFFFFFFFFFFE
FFFFFFFFFFFE
FFFFFFFFFFFE
FFFFFFFFFFFE
7FFFFFFFFFFE
3FFFFFFFFFFE
ENDCHAR
STARTCHAR braceleft
ENCODING 123
SWIDTH 337 0
DWIDTH 22 0
BBX 14 61 4 -6
BITMAP
00FC
03FC
07FC
0FFC
0FFC
0FE0
0FC0
1F80
1F80
1F80
1F80
1F80
1F80
1F80
1F80
1F80
1F80
1F80
1F80
1F80
1F80
1F80
1F80
1F80
1F80
1F80
1F80
1F80
FF00
FF00
FC00
FF00
FF00
1F80
1F80
1F80
1F80
1F80
1F80
1F80
1F80
1F80
1F80
1F80
1F80
1F80
1F80
1F80
1F80
1F80
1F80
1F80
1F80
1F80
0FC0
0FE0
0FFC
0FFC
07FC
03FC
00FC
ENDCHAR
STARTCHAR bar
ENCODING 124
SWIDTH 297 0
DWIDTH 20 0
BBX 5 60 7 -6
BITMAP
F8
F8
F8
F8
F8
F8
F8
F8
F8
F8
F8
F8
F8
F8
F8
F8
F8
F8
F8
F8
F8
F8
F8
F8
F8
F8
F8
F8
F8
F8
F8
F8
F8
F8
F8
F8
F8
F8
F8
F8
F8
F8
F8
F8
F8
F8
F8
F8
F8
F8
F8
F8
F8
F8
F8
F8
F8
F8
F8
F8
ENDCHAR
STARTCHAR braceright
ENCODING 125
SWIDTH 337 0
DWIDTH 22 0
BBX 14 61 4 -6
BITMAP
FC00
FF00
FF80
FFC0
FFC0
1FC0
0FE0
07E0
07E0
07E0
07E0
07E0
07E0
07E0
07E0
07E0
07E0
07E0
07E0
07E0
07E0
07E0
07E0
07E0
07E0
07E0
07E0
07E0
03FC
03FC
00FC
03FC
03FC
07E0
07E0
07E0
07E0
07E0
07E0
07E0
07E0
07E0
07E0
07E0
07E0
07E0
07E0
07E0
07E0
07E0
07E0
07E0
07E0
07E0
07E0
1FC0
FFC0
FFC0
FF80
FF00
FC00
ENDCHAR
STARTCHAR asciitilde
ENCODING 126
SWIDTH 691 0
DWIDTH 46 0
BBX 37 10 4 19
BITMAP
07FC000000
1FFF800008
7FFFF00038
FFFFFF00F8
FFFFFFFFF8
FFFFFFFFF8
FC03FFFFF8
E0007FFFF8
C0000FFFE0
800000FF00
ENDCHAR
STARTCHAR nonbreakingspace
ENCODING 160
SWIDTH 294 0
DWIDTH 19 0
BBX 1 1 0 0
BITMAP
00
ENDCHAR
STARTCHAR exclamdown
ENCODING 161
SWIDTH 298 0
DWIDTH 20 0
BBX 9 48 5 0
BITMAP
1E00
7F00
7F80
7F80
FF80
7F80
7F80
3F00
0000
0000
0000
0000
0000
0000
0000
7F80
7F80
7F80
7F80
7F80
7F80
7F80
7F80
7F80
7F80
7F80
7F80
7F80
7F80
7F80
7F80
7F80
7F80
7F80
7F80
7F80
7F80
7F80
7F80
7F80
7F80
7F80
7F80
7F80
7F80
7F80
7F80
7F80
ENDCHAR
STARTCHAR cent
ENCODING 162
SWIDTH 692 0
DWIDTH 46 0
BBX 39 48 3 0
BITMAP
000001E000
000001E000
000001E000
000001E000
000001E000
0003FFFFFE
001FFFFFFE
007FFFFFFE
01FFFFFFFE
03FFFFFFFE
07FFFFFFFE
0FFFFFFFFE
1FFE01E000
3FF001E000
3FE001E000
7FC001E000
7F8001E000
7F0001E000
FF0001E000
FE0001E000
FE0001E000
FE0001E000
FE0001E000
FE0001E000
FE0001E000
FE0001E000
FE0001E000
FE0001E000
FE0001E000
7F0001E000
7F0001E000
7F8001E000
3FC001E000
3FE001E000
1FF001E000
1FFE01E000
0FFFFFFFFE
07FFFFFFFE
03FFFFFFFE
01FFFFFFFE
007FFFFFFE
001FFFFFFE
0003FFFFFE
000001E000
000001E000
000001E000
000001E000
000001E000
ENDCHAR
STARTCHAR sterling
ENCODING 163
SWIDTH 709 0
DWIDTH 47 0
BBX 42 48 2 0
BITMAP
0000FFFFE000
0007FFFFE000
001FFFFFE000
003FFFFFE000
007FFFFFE000
00FFFFFFE000
00FFFFFFE000
01FFFFFFE000
01FFF8000000
03FF80000000
03FE00000000
03FE00000000
03FC00000000
03FC00000000
03FC00000000
03FC00000000
03FC00000000
03FC00000000
03FC00000000
03FC00000000
3FFFFFE00000
3FFFFFE00000
3FFFFFE00000
3FFFFFE00000
3FFFFFE00000
3FFFFFE00000
03FC00000000
03FC00000000
03FC00000000
03FC00000000
03FC00000000
03FC00000000
03FC00000000
03FC00000000
03FC00000000
03FC00000000
03FC00000000
03FC00000000
03FC00000000
03FC00000000
FFFFFFFFFFC0
FFFFFFFFFFC0
FFFFFFFFFFC0
FFFFFFFFFFC0
FFFFFFFFFFC0
FFFFFFFFFFC0
FFFFFFFFFFC0
FFFFFFFFFFC0
ENDCHAR
STARTCHAR yen
ENCODING 165
SWIDTH 787 0
DWIDTH 52 0
BBX 49 48 1 0
BITMAP
FFE0000001FF80
7FE0000003FF00
3FF0000003FF00
1FF8000007FE00
1FF8000007FC00
0FFC00000FFC00
07FC00001FF800
07FE00001FF000
03FF00003FF000
01FF00007FE000
01FF80007FC000
00FFC000FFC000
007FC000FF8000
007FE001FF0000
003FF003FF0000
001FF003FE0000
001FF807FC0000
000FF807FC0000
0007FC0FF80000
0007FE1FF00000
0003FE1FF00000
0001FF3FE00000
0001FFFFE00000
0000FFFFC00000
00007FFF800000
00007FFF800000
01FFFFFFFFE000
01FFFFFFFFE000
01FFFFFFFFE000
01FFFFFFFFE000
01FFFFFFFFE000
01FFFFFFFFE000
000007F8000000
000007F8000000
000007F8000000
000007F8000000
000007F8000000
01FFFFFFFFE000
01FFFFFFFFE000
01FFFFFFFFE000
01FFFFFFFFE000
01FFFFFFFFE000
01FFFFFFFFE000
000007F8000000
000007F8000000
000007F8000000
000007F8000000
000007F8000000
ENDCHAR
STARTCHAR brokenbar
ENCODING 166
SWIDTH 297 0
DWIDTH 20 0
BBX 5 60 7 -6
BITMAP
F8
F8
F8
F8
F8
F8
F8
F8
F8
F8
F8
F8
F8
F8
F8
F8
F8
F8
F8
F8
F8
F8
F8
F8
F8
F8
F8
00
00
00
00
00
00
00
F8
F8
F8
F8
F8
F8
F8
F8
F8
F8
F8
F8
F8
F8
F8
F8
F8
F8
F8
F8
F8
F8
F8
F8
F8
F8
ENDCHAR
STARTCHAR section
ENCODING 167
SWIDTH 773 0
DWIDTH 51 0
BBX 44 62 3 -14
BITMAP
003FFFFFFE00
01FFFFFFFE00
07FFFFFFFE00
0FFFFFFFFE00
1FFFFFFFFE00
3FFFFFFFFE00
3FFFFFFFFE00
7FFFFFFFFE00
7FFC00000000
7FE000000000
FF8000000000
FF8000000000
FF0000000000
FF0000000000
FF0000000000
FF0000000000
7F8000000000
7F8000000000
7FC000000000
3FE000000000
3FFFFFFFE000
1FFFFFFFF800
0FFFFFFFFE00
07FFFFFFFF00
03FFFFFFFF00
07FFFFFFFF80
0FF00000FF80
1FE000007FC0
1FC000003FC0
1FC000003FC0
1FC000003FC0
1FC000003FC0
1FC000003FC0
1FC000003F80
1FE000007F80
1FF80000FF00
1FFFFFFFFF00
0FFFFFFFFE00
07FFFFFFFE00
03FFFFFFFF00
01FFFFFFFF80
003FFFFFFFC0
000000007FE0
000000001FE0
000000001FE0
000000000FF0
000000000FF0
000000000FF0
000000000FF0
000000000FF0
000000000FF0
000000001FF0
000000003FF0
00000003FFE0
07FFFFFFFFE0
07FFFFFFFFE0
07FFFFFFFFC0
07FFFFFFFF80
07FFFFFFFF00
07FFFFFFFE00
07FFFFFFFC00
07FFFFFFE000
ENDCHAR
STARTCHAR dieresis
ENCODING 168
SWIDTH 393 0
DWIDTH 26 0
BBX 19 6 3 53
BITMAP
3C03C0
7E07E0
7E07E0
FE07E0
7E07E0
3C03C0
ENDCHAR
STARTCHAR copyright
ENCODING 169
SWIDTH 829 0
DWIDTH 55 0
BBX 49 49 3 -1
BITMAP
00001FF8000000
0000FFFF800000
0003F80FE00000
000F8000F80000
003E00003E0000
007800000F0000
00E00000038000
01C0000001C000
0380000000E000
07000000007000
0E000000003800
0C000000001800
1C000000001C00
38000FFF000C00
30003FFF000E00
7000FFFF000600
7001F800000700
6003E000000300
E007C000000300
E0078000000300
C0070000000380
C00F0000000180
C00F0000000180
C00E0000000180
C00E0000000180
C00E0000000180
C00F0000000180
C00F0000000180
C0070000000380
E0078000000300
E003C000000300
6003E000000300
7001F800000700
7000FFFF000600
30003FFF000E00
38000FFF000C00
18000000001C00
1C000000001800
0E000000003800
07000000007000
0380000000E000
01C0000001C000
00E00000038000
007000000F0000
003C00001E0000
001F0000780000
0007F007F00000
0001FFFF800000
00001FFC000000
ENDCHAR
STARTCHAR ordfeminine
ENCODING 170
SWIDTH 604 0
DWIDTH 40 0
BBX 34 27 3 19
BITMAP
0001C00000
0001E00000
0003F00000
0007F00000
0007F80000
000FFC0000
000FFC0000
001F7E0000
003E3E0000
003E1F0000
007C1F8000
007C0F8000
00F80FC000
01F807C000
01F003E000
03E003F000
03E3FFF000
07C3FFF800
0FC7FFFC00
0F8FFFFC00
1F00007E00
1F00003E00
3E00003F00
7E00001F80
7C00000F80
F800000FC0
F8000007C0
ENDCHAR
STARTCHAR guillemotleft
ENCODING 171
SWIDTH 629 0
DWIDTH 42 0
BBX 36 25 3 12
BITMAP
0000200010
0000E00030
0001E000F0
0007E003F0
001FC007F0
003F001FC0
00FE007F00
03F800FC00
07E003F800
1FC00FE000
7F001F8000
FC007E0000
F0007C0000
FC007E0000
7E001F8000
1F800FC000
07E003F000
03F800FC00
00FC007F00
003F001F80
001FC007E0
0007E003F0
0001E000F0
0000E00030
0000200010
ENDCHAR
STARTCHAR registered
ENCODING 174
SWIDTH 585 0
DWIDTH 39 0
BBX 30 30 4 18
BITMAP
001FE000
007FFC00
01F03F00
03C00780
0F0003C0
0E0000E0
1C000070
38000030
30FFF038
70FFF818
60E01C1C
60E00C1C
E0E00C0C
E0E00C0C
C0E01C0C
C0E7FC0C
E0E7F00C
E0E0780C
60E03C0C
60E01E1C
70000118
30000038
38000030
1C000070
0E0000E0
0F0001C0
03C00780
01F03F00
007FFC00
001FE000
ENDCHAR
STARTCHAR macron
ENCODING 175
SWIDTH 362 0
DWIDTH 24 0
BBX 17 4 3 54
BITMAP
FFFF80
FFFF80
FFFF80
FFFF80
ENDCHAR
STARTCHAR degree
ENCODING 176
SWIDTH 361 0
DWIDTH 24 0
BBX 18 19 3 29
BITMAP
07F800
1FFE00
3FFF00
7FFF80
7C0F80
F807C0
F003C0
F003C0
E003C0
E003C0
E003C0
F003C0
F003C0
F807C0
7C0F80
7FFF80
3FFF00
1FFE00
07F000
ENDCHAR
STARTCHAR plusminus
ENCODING 177
SWIDTH 690 0
DWIDTH 46 0
BBX 37 46 4 -3
BITMAP
0000FC0000
0000FC0000
0000FC0000
0000FC0000
0000FC0000
0000FC0000
0000FC0000
0000FC0000
0000FC0000
0000FC0000
0000FC0000
0000FC0000
0000FC0000
0000FC0000
0000FC0000
FFFFFFFFF8
FFFFFFFFF8
FFFFFFFFF8
FFFFFFFFF8
FFFFFFFFF8
FFFFFFFFF8
0000FC0000
0000FC0000
0000FC0000
0000FC0000
0000FC0000
0000FC0000
0000FC0000
0000FC0000
0000FC0000
0000FC0000
0000FC0000
0000FC0000
0000FC0000
0000FC0000
0000FC0000
0000FC0000
0000000000
0000000000
0000000000
FFFFFFFFF8
FFFFFFFFF8
FFFFFFFFF8
FFFFFFFFF8
FFFFFFFFF8
FFFFFFFFF8
ENDCHAR
STARTCHAR twosuperior
ENCODING 178
SWIDTH 442 0
DWIDTH 29 0
BBX 23 24 3 24
BITMAP
FFFFE0
FFFFF8
FFFFFC
FFFFFE
00003E
00001E
00001E
00001E
00001E
00003E
0FFFFE
3FFFFC
7FFFF8
7FFFE0
F80000
F00000
F00000
F00000
F00000
F00000
FFFFFE
FFFFFE
FFFFFE
FFFFFE
ENDCHAR
STARTCHAR threesuperior
ENCODING 179
SWIDTH 443 0
DWIDTH 29 0
BBX 24 24 3 24
BITMAP
FFFFE0
FFFFF8
FFFFFC
FFFFFE
00007E
00001E
00001E
00001E
00001E
00003C
07FFFC
07FFF0
07FFFC
07FFFE
00003E
00001F
00001F
00001F
00001E
00003E
FFFFFE
FFFFFC
FFFFF8
FFFFE0
ENDCHAR
STARTCHAR acute
ENCODING 180
SWIDTH 362 0
DWIDTH 24 0
BBX 17 9 3 51
BITMAP
000080
000780
003F80
03FF80
1FFF80
FFFF80
FFF000
FF0000
E00000
ENDCHAR
STARTCHAR paragraph
ENCODING 182
SWIDTH 629 0
DWIDTH 42 0
BBX 34 55 3 -7
BITMAP
01FFFFFFC0
07FFFFFFC0
1FFFFFFFC0
3FFFFFFFC0
3FFFFFFFC0
7FFFF807C0
7FFFF807C0
FFFFF807C0
FFFFF807C0
FFFFF807C0
FFFFF807C0
FFFFF807C0
FFFFF807C0
FFFFF807C0
FFFFF807C0
7FFFF807C0
7FFFF807C0
3FFFF807C0
1FFFF807C0
0FFFF807C0
07FFF807C0
003FF807C0
0001F807C0
0001F807C0
0001F807C0
0001F807C0
0001F807C0
0001F807C0
0001F807C0
0001F807C0
0001F807C0
0001F807C0
0001F807C0
0001F807C0
0001F807C0
0001F807C0
0001F807C0
0001F807C0
0001F807C0
0001F807C0
0001F807C0
0001F807C0
0001F807C0
0001F807C0
0001F807C0
0001F807C0
0001F807C0
0001F807C0
0001F807C0
0001F807C0
0001F807C0
0001F807C0
0001F807C0
0001F807C0
0001F807C0
ENDCHAR
STARTCHAR periodcentered
ENCODING 183
SWIDTH 262 0
DWIDTH 17 0
BBX 9 8 4 19
BITMAP
3E00
7F00
FF80
FF80
FF80
FF80
7F00
3E00
ENDCHAR
STARTCHAR cedilla
ENCODING 184
SWIDTH 219 0
DWIDTH 14 0
BBX 9 10 3 -13
BITMAP
FF80
FF00
7F00
7E00
3E00
3C00
1C00
1800
1800
0800
ENDCHAR
STARTCHAR onesuperior
ENCODING 185
SWIDTH 222 0
DWIDTH 15 0
BBX 10 24 2 24
BITMAP
F800
FE00
FF00
FF80
0F80
0780
07C0
07C0
07C0
07C0
07C0
07C0
07C0
07C0
07C0
07C0
07C0
07C0
07C0
07C0
07C0
07C0
07C0
07C0
ENDCHAR
STARTCHAR ordmasculine
ENCODING 186
SWIDTH 592 0
DWIDTH 39 0
BBX 33 27 3 20
BITMAP
003FFF0000
01FFFFC000
07FFFFF000
0FFFFFF800
1FFFFFFC00
1FC001FC00
3F00007E00
3E00003F00
7E00001F00
7C00001F00
7C00000F00
7800000F80
F800000F80
F800000F80
7800000F80
7800000F00
7C00000F00
7C00001F00
7E00001F00
3E00003E00
3F00007E00
1FE001FC00
0FFFFFF800
07FFFFF800
03FFFFE000
01FFFFC000
003FFE0000
ENDCHAR
STARTCHAR guillemotright
ENCODING 187
SWIDTH 629 0
DWIDTH 42 0
BBX 36 25 3 12
BITMAP
8000400000
C000600000
F000780000
F8007E0000
FE007F0000
3F801FC000
0FC007F000
07F001F800
01FC00FE00
007E003F80
001F800FC0
000FC007E0
0003E001F0
0007C003E0
001F800FC0
007E003F00
01FC007E00
03F001F800
0FC007E000
3F801FC000
FE003F0000
F8007C0000
F000780000
C000600000
8000400000
ENDCHAR
STARTCHAR onequarter
ENCODING 188
SWIDTH 972 0
DWIDTH 64 0
BBX 58 56 3 -4
BITMAP
00000000001F8000
00000000003F0000
00000000003E0000
00000000007C0000
07E0000000FC0000
07F8000001F80000
07FC000003F00000
07FC000003E00000
003E000007E00000
003E00000FC00000
001E00001F800000
001E00001F000000
001E00003E000000
001E00007E000000
001E0000FC000000
001E0001F8000000
001E0001F0000000
001E0003F0000000
001E0007E0000000
001E000FC0000000
001E000F80000000
001E001F00000000
001E003F00000000
001E007E00000000
001E00FC00000000
001E00F800000000
001E01F800000000
001E03F000000000
000007E000000000
00000FC078001E00
00000F8078001E00
00001F8078001E00
00003F0078001E00
00007E0078001E00
00007C0078001E00
0000FC0078001E00
0001F80078001E00
0003F00078001E00
0007E00078001E00
0007C00078001E00
000FC00078001E00
001F800078001E00
003F00007C001E00
003E00003FFFFFC0
007C00003FFFFFC0
00FC00001FFFFFC0
01F8000007FFFFC0
03F0000000001E00
03E0000000001E00
07E0000000001E00
0FC0000000001E00
1F80000000001E00
1F00000000001E00
3E00000000000000
7E00000000000000
FC00000000000000
ENDCHAR
STARTCHAR onehalf
ENCODING 189
SWIDTH 948 0
DWIDTH 63 0
BBX 57 56 3 -4
BITMAP
00000000001F8000
00000000003F0000
00000000003E0000
00000000007C0000
07E0000000FC0000
07F8000001F80000
07FC000003F00000
07FC000003E00000
003E000007E00000
003E00000FC00000
001E00001F800000
001E00001F000000
001E00003E000000
001E00007E000000
001E0000FC000000
001E0001F8000000
001E0001F0000000
001E0003F0000000
001E0007E0000000
001E000FC0000000
001E000F80000000
001E001F00000000
001E003F00000000
001E007E00000000
001E00FC00000000
001E00F800000000
001E01F800000000
001E03F000000000
000007E000000000
00000FC03FFFF800
00000F803FFFFC00
00001F803FFFFE00
00003F003FFFFF00
00007E0000001F00
00007C0000000F80
0000FC0000000F80
0001F80000000F80
0003F00000000F80
0007E00000001F00
0007C00007FFFF00
000FC0001FFFFE00
001F80001FFFFC00
003F00003FFFF800
003E00003E000000
007C00007C000000
00FC000078000000
01F8000078000000
03F0000078000000
03E0000078000000
07E000007FFFFF00
0FC000007FFFFF00
1F8000007FFFFF00
1F0000007FFFFF00
3E00000000000000
7E00000000000000
FC00000000000000
ENDCHAR
STARTCHAR threequarters
ENCODING 190
SWIDTH 1029 0
DWIDTH 68 0
BBX 62 56 3 -4
BITMAP
000000000001F800
000000000003F000
000000000007E000
000000000007C000
FFFFE000000F8000
FFFFF800001F8000
FFFFFC00003F0000
FFFFFE00007E0000
00003E00007C0000
00001E0000FC0000
00001E0001F80000
00001E0003F00000
00001E0003E00000
00003E0007C00000
07FFFC000FC00000
07FFF0001F800000
07FFFC003F000000
07FFFE003E000000
00003F007C000000
00001F00FC000000
00000F01F8000000
00000F03F0000000
00001F03E0000000
00003E07E0000000
FFFFFE0FC0000000
FFFFFC1F80000000
FFFFF81F00000000
FFFFE03E00000000
0000007E00000000
000000FC078003E0
000001F8078003E0
000001F0078003E0
000003F0078003E0
000007E0078003E0
00000FC0078003E0
00000F80078003E0
00001F00078003E0
00003F00078003E0
00007E00078003E0
0000FC00078003E0
0000F800078003E0
0001F800078003E0
0003F00007C003E0
0007E00003FFFFFC
0007C00003FFFFFC
000F800001FFFFFC
001F8000007FFFFC
003F0000000003E0
007E0000000003E0
007C0000000003E0
00FC0000000003E0
01F80000000003E0
03F00000000003E0
07E0000000000000
07C0000000000000
0FC0000000000000
ENDCHAR
STARTCHAR questiondown
ENCODING 191
SWIDTH 776 0
DWIDTH 51 0
BBX 46 48 2 0
BITMAP
000000001F00
000000003F80
000000007FC0
000000007FC0
000000007FC0
000000007FC0
000000003F80
000000001F00
000000000000
000000000000
000000000000
000000000000
000000000000
000000000000
000000000000
000000003FC0
000000003FC0
000000003FC0
000000003FC0
000000003FC0
000000007FC0
003FFFFFFF80
01FFFFFFFF80
07FFFFFFFF00
0FFFFFFFFF00
1FFFFFFFFE00
3FFFFFFFF800
3FFFFFFFE000
7FF000000000
7FC000000000
FF8000000000
FF8000000000
FF8000000000
FF0000000000
FF0000000000
FF8000000000
FF8000000000
FFC000000000
FFE000000000
7FFC00000000
7FFFFFFFFFFC
7FFFFFFFFFFC
3FFFFFFFFFFC
1FFFFFFFFFFC
0FFFFFFFFFFC
07FFFFFFFFFC
01FFFFFFFFFC
003FFFFFFFFC
ENDCHAR
STARTCHAR Agrave
ENCODING 192
SWIDTH 989 0
DWIDTH 65 0
BBX 63 60 1 0
BITMAP
0000040000000000
000007C000000000
000007F800000000
000007FF00000000
000007FFF0000000
000003FFFC000000
0000003FFC000000
00000001FC000000
000000000C000000
0000000000000000
0000000000000000
0000000100000000
00000007C0000000
0000000FE0000000
0000001FF0000000
0000001FF0000000
0000003FF8000000
0000003FFC000000
0000007FFC000000
000000FFFE000000
000000FFFE000000
000001FFFF000000
000003FFFF800000
000003FFFF800000
000007FEFFC00000
000007FC7FC00000
00000FF87FE00000
00001FF83FF00000
00001FF03FF00000
00003FF01FF80000
00003FE00FF80000
00007FC00FFC0000
0000FFC007FE0000
0000FF8007FE0000
0001FF8003FF0000
0001FF0001FF0000
0003FE0001FF8000
0007FE0000FFC000
0007FC0000FFC000
000FFC00007FE000
000FF800003FE000
001FF01FFFFFF000
003FF03FFFFFF800
003FE03FFFFFF800
007FE07FFFFFFC00
007FC07FFFFFFE00
00FFC0FFFFFFFE00
01FF81FFFFFFFF00
01FF00000003FF00
03FF00000001FF80
03FE00000001FFC0
07FE00000000FFC0
0FFC000000007FE0
0FF8000000007FE0
1FF8000000003FF0
1FF0000000003FF8
3FF0000000001FF8
7FE0000000000FFC
7FC0000000000FFC
FFC00000000007FE
ENDCHAR
STARTCHAR Aacute
ENCODING 193
SWIDTH 989 0
DWIDTH 65 0
BBX 63 60 1 0
BITMAP
0000000000400000
0000000003C00000
000000003FC00000
00000001FFC00000
0000000FFFC00000
0000007FFFC00000
0000007FF8000000
0000007F00000000
0000007000000000
0000000000000000
0000000000000000
0000000100000000
00000007C0000000
0000000FE0000000
0000001FF0000000
0000001FF0000000
0000003FF8000000
0000003FFC000000
0000007FFC000000
000000FFFE000000
000000FFFE000000
000001FFFF000000
000003FFFF800000
000003FFFF800000
000007FEFFC00000
000007FC7FC00000
00000FF87FE00000
00001FF83FF00000
00001FF03FF00000
00003FF01FF80000
00003FE00FF80000
00007FC00FFC0000
0000FFC007FE0000
0000FF8007FE0000
0001FF8003FF0000
0001FF0001FF0000
0003FE0001FF8000
0007FE0000FFC000
0007FC0000FFC000
000FFC00007FE000
000FF800003FE000
001FF01FFFFFF000
003FF03FFFFFF800
003FE03FFFFFF800
007FE07FFFFFFC00
007FC07FFFFFFE00
00FFC0FFFFFFFE00
01FF81FFFFFFFF00
01FF00000003FF00
03FF00000001FF80
03FE00000001FFC0
07FE00000000FFC0
0FFC000000007FE0
0FF8000000007FE0
1FF8000000003FF0
1FF0000000003FF8
3FF0000000001FF8
7FE0000000000FFC
7FC0000000000FFC
FFC00000000007FE
ENDCHAR
STARTCHAR Acircumflex
ENCODING 194
SWIDTH 989 0
DWIDTH 65 0
BBX 63 59 1 0
BITMAP
0000000FE0000000
0000001FF0000000
0000001EF0000000
0000003C78000000
0000007C7C000000
000000783E000000
000000F01E000000
000001F01F000000
000001E00F800000
0000000000000000
0000000100000000
00000007C0000000
0000000FE0000000
0000001FF0000000
0000001FF0000000
0000003FF8000000
0000003FFC000000
0000007FFC000000
000000FFFE000000
000000FFFE000000
000001FFFF000000
000003FFFF800000
000003FFFF800000
000007FEFFC00000
000007FC7FC00000
00000FF87FE00000
00001FF83FF00000
00001FF03FF00000
00003FF01FF80000
00003FE00FF80000
00007FC00FFC0000
0000FFC007FE0000
0000FF8007FE0000
0001FF8003FF0000
0001FF0001FF0000
0003FE0001FF8000
0007FE0000FFC000
0007FC0000FFC000
000FFC00007FE000
000FF800003FE000
001FF01FFFFFF000
003FF03FFFFFF800
003FE03FFFFFF800
007FE07FFFFFFC00
007FC07FFFFFFE00
00FFC0FFFFFFFE00
01FF81FFFFFFFF00
01FF00000003FF00
03FF00000001FF80
03FE00000001FFC0
07FE00000000FFC0
0FFC000000007FE0
0FF8000000007FE0
1FF8000000003FF0
1FF0000000003FF8
3FF0000000001FF8
7FE0000000000FFC
7FC0000000000FFC
FFC00000000007FE
ENDCHAR
STARTCHAR Atilde
ENCODING 195
SWIDTH 989 0
DWIDTH 65 0
BBX 63 58 1 0
BITMAP
0000007C01000000
000001FF83000000
000001FFFF000000
000001FFFF000000
00000183FF000000
000001007C000000
0000000000000000
0000000000000000
0000000000000000
0000000100000000
00000007C0000000
0000000FE0000000
0000001FF0000000
0000001FF0000000
0000003FF8000000
0000003FFC000000
0000007FFC000000
000000FFFE000000
000000FFFE000000
000001FFFF000000
000003FFFF800000
000003FFFF800000
000007FEFFC00000
000007FC7FC00000
00000FF87FE00000
00001FF83FF00000
00001FF03FF00000
00003FF01FF80000
00003FE00FF80000
00007FC00FFC0000
0000FFC007FE0000
0000FF8007FE0000
0001FF8003FF0000
0001FF0001FF0000
0003FE0001FF8000
0007FE0000FFC000
0007FC0000FFC000
000FFC00007FE000
000FF800003FE000
001FF01FFFFFF000
003FF03FFFFFF800
003FE03FFFFFF800
007FE07FFFFFFC00
007FC07FFFFFFE00
00FFC0FFFFFFFE00
01FF81FFFFFFFF00
01FF00000003FF00
03FF00000001FF80
03FE00000001FFC0
07FE00000000FFC0
0FFC000000007FE0
0FF8000000007FE0
1FF8000000003FF0
1FF0000000003FF8
3FF0000000001FF8
7FE0000000000FFC
7FC0000000000FFC
FFC00000000007FE
ENDCHAR
STARTCHAR Adieresis
ENCODING 196
SWIDTH 989 0
DWIDTH 65 0
BBX 63 59 1 0
BITMAP
000000F00F000000
000001F81F800000
000003F83F800000
000003F83F800000
000001F81F800000
000000F00F000000
0000000000000000
0000000000000000
0000000000000000
0000000000000000
0000000100000000
00000007C0000000
0000000FE0000000
0000001FF0000000
0000001FF0000000
0000003FF8000000
0000003FFC000000
0000007FFC000000
000000FFFE000000
000000FFFE000000
000001FFFF000000
000003FFFF800000
000003FFFF800000
000007FEFFC00000
000007FC7FC00000
00000FF87FE00000
00001FF83FF00000
00001FF03FF00000
00003FF01FF80000
00003FE00FF80000
00007FC00FFC0000
0000FFC007FE0000
0000FF8007FE0000
0001FF8003FF0000
0001FF0001FF0000
0003FE0001FF8000
0007FE0000FFC000
0007FC0000FFC000
000FFC00007FE000
000FF800003FE000
001FF01FFFFFF000
003FF03FFFFFF800
003FE03FFFFFF800
007FE07FFFFFFC00
007FC07FFFFFFE00
00FFC0FFFFFFFE00
01FF81FFFFFFFF00
01FF00000003FF00
03FF00000001FF80
03FE00000001FFC0
07FE00000000FFC0
0FFC000000007FE0
0FF8000000007FE0
1FF8000000003FF0
1FF0000000003FF8
3FF0000000001FF8
7FE0000000000FFC
7FC0000000000FFC
FFC00000000007FE
ENDCHAR
STARTCHAR Aring
ENCODING 197
SWIDTH 989 0
DWIDTH 65 0
BBX 63 65 1 0
BITMAP
0000000FE0000000
0000003FFC000000
0000007FFE000000
000000F01E000000
000001E007000000
000001C007000000
000001C007000000
000001C003000000
000001C007000000
000000C007000000
000000E00E000000
000000701E000000
0000003FFC000000
0000001FF0000000
0000000000000000
0000000000000000
0000000100000000
00000007C0000000
0000000FE0000000
0000001FF0000000
0000001FF0000000
0000003FF8000000
0000003FFC000000
0000007FFC000000
000000FFFE000000
000000FFFE000000
000001FFFF000000
000003FFFF800000
000003FFFF800000
000007FEFFC00000
000007FC7FC00000
00000FF87FE00000
00001FF83FF00000
00001FF03FF00000
00003FF01FF80000
00003FE00FF80000
00007FC00FFC0000
0000FFC007FE0000
0000FF8007FE0000
0001FF8003FF0000
0001FF0001FF0000
0003FE0001FF8000
0007FE0000FFC000
0007FC0000FFC000
000FFC00007FE000
000FF800003FE000
001FF01FFFFFF000
003FF03FFFFFF800
003FE03FFFFFF800
007FE07FFFFFFC00
007FC07FFFFFFE00
00FFC0FFFFFFFE00
01FF81FFFFFFFF00
01FF00000003FF00
03FF00000001FF80
03FE00000001FFC0
07FE00000000FFC0
0FFC000000007FE0
0FF8000000007FE0
1FF8000000003FF0
1FF0000000003FF8
3FF0000000001FF8
7FE0000000000FFC
7FC0000000000FFC
FFC00000000007FE
ENDCHAR
STARTCHAR AE
ENCODING 198
SWIDTH 1345 0
DWIDTH 89 0
BBX 85 48 1 0
BITMAP
0000000FFFFFFFFFFFFFF8
0000001FFFFFFFFFFFFFF8
0000003FFFFFFFFFFFFFF8
0000003FFFFFFFFFFFFFF8
0000007FFFFFFFFFFFFFF8
0000007FFFFFFFFFFFFFF8
000000FFFFFFFFFFFFFFF8
000001FFFFFFFFFFFFFFF8
000001FF0007F800000000
000003FE0007F800000000
000003FE0007F800000000
000007FC0007F800000000
000007FC0007F800000000
00000FF80007F800000000
00001FF00007F800000000
00001FF00007F800000000
00003FE00007F800000000
00003FE00007F800000000
00007FC00007F800000000
0000FFC00007F800000000
0000FF800007F81FFFFFE0
0001FF000007F81FFFFFE0
0001FF000007F81FFFFFE0
0003FE000007F81FFFFFE0
0003FE000007F81FFFFFE0
0007FC000007F81FFFFFE0
000FFC000007F81FFFFFE0
000FF8000007F800000000
001FF0000007F800000000
001FF01FFFFFF800000000
003FE03FFFFFF800000000
003FE07FFFFFF800000000
007FC07FFFFFF800000000
00FFC0FFFFFFF800000000
00FF80FFFFFFF800000000
01FF01FFFFFFF800000000
01FF00000007F800000000
03FE00000007F800000000
07FE00000007F800000000
07FC00000007F800000000
0FFC00000007FFFFFFFFF8
0FF800000007FFFFFFFFF8
1FF800000007FFFFFFFFF8
1FF000000007FFFFFFFFF8
3FE000000007FFFFFFFFF8
7FE000000007FFFFFFFFF8
7FC000000007FFFFFFFFF8
FFC000000007FFFFFFFFF8
ENDCHAR
STARTCHAR Ccedilla
ENCODING 199
SWIDTH 829 0
DWIDTH 55 0
BBX 49 61 3 -13
BITMAP
00003FFFFFFF80
0003FFFFFFFF80
000FFFFFFFFF80
003FFFFFFFFF80
007FFFFFFFFF80
01FFFFFFFFFF80
03FFFFFFFFFF80
07FFFFFFFFFF80
07FFFC00000000
0FFF8000000000
1FFE0000000000
1FFC0000000000
3FF80000000000
3FF00000000000
7FE00000000000
7FC00000000000
7FC00000000000
FF800000000000
FF800000000000
FF800000000000
FF000000000000
FF000000000000
FF000000000000
FF000000000000
FF000000000000
FF000000000000
FF000000000000
FF800000000000
FF800000000000
FF800000000000
7F800000000000
7FC00000000000
7FC00000000000
3FE00000000000
3FF00000000000
1FF80000000000
1FFC0000000000
0FFE0000000000
0FFF8000000000
07FFFC00000000
03FFFFFFFFFF80
01FFFFFFFFFF80
00FFFFFFFFFF80
007FFFFFFFFF80
001FFFFFFFFF80
000FFFFFFFFF80
0001FFFFFFFF80
00003FFFFFFF80
00000000000000
00000000000000
00000000000000
000007FC000000
000003F8000000
000003F8000000
000001F8000000
000001F0000000
000000F0000000
000000E0000000
000000E0000000
00000040000000
00000040000000
ENDCHAR
STARTCHAR Egrave
ENCODING 200
SWIDTH 759 0
DWIDTH 50 0
BBX 43 60 4 0
BITMAP
001000000000
001E00000000
001FC0000000
001FFC000000
001FFF800000
001FFFE00000
0000FFE00000
00000FE00000
000000600000
000000000000
000000000000
000000000000
FFFFFFFFFFE0
FFFFFFFFFFE0
FFFFFFFFFFE0
FFFFFFFFFFE0
FFFFFFFFFFE0
FFFFFFFFFFE0
FFFFFFFFFFE0
FFFFFFFFFFE0
FF0000000000
FF0000000000
FF0000000000
FF0000000000
FF0000000000
FF0000000000
FF0000000000
FF0000000000
FF0000000000
FF0000000000
FF0000000000
FF0000000000
FF01FFFFFF80
FF01FFFFFF80
FF01FFFFFF80
FF01FFFFFF80
FF01FFFFFF80
FF01FFFFFF80
FF01FFFFFF80
FF0000000000
FF0000000000
FF0000000000
FF0000000000
FF0000000000
FF0000000000
FF0000000000
FF0000000000
FF0000000000
FF0000000000
FF0000000000
FF0000000000
FF0000000000
FFFFFFFFFFE0
FFFFFFFFFFE0
FFFFFFFFFFE0
FFFFFFFFFFE0
FFFFFFFFFFE0
FFFFFFFFFFE0
FFFFFFFFFFE0
FFFFFFFFFFE0
ENDCHAR
STARTCHAR Eacute
ENCODING 201
SWIDTH 759 0
DWIDTH 50 0
BBX 43 60 4 0
BITMAP
000000020000
0000001E0000
000000FE0000
00000FFE0000
00007FFE0000
0001FFFE0000
0001FFC00000
0001FC000000
000180000000
000000000000
000000000000
000000000000
FFFFFFFFFFE0
FFFFFFFFFFE0
FFFFFFFFFFE0
FFFFFFFFFFE0
FFFFFFFFFFE0
FFFFFFFFFFE0
FFFFFFFFFFE0
FFFFFFFFFFE0
FF0000000000
FF0000000000
FF0000000000
FF0000000000
FF0000000000
FF0000000000
FF0000000000
FF0000000000
FF0000000000
FF0000000000
FF0000000000
FF0000000000
FF01FFFFFF80
FF01FFFFFF80
FF01FFFFFF80
FF01FFFFFF80
FF01FFFFFF80
FF01FFFFFF80
FF01FFFFFF80
FF0000000000
FF0000000000
FF0000000000
FF0000000000
FF0000000000
FF0000000000
FF0000000000
FF0000000000
FF0000000000
FF0000000000
FF0000000000
FF0000000000
FF0000000000
FFFFFFFFFFE0
FFFFFFFFFFE0
FFFFFFFFFFE0
FFFFFFFFFFE0
FFFFFFFFFFE0
FFFFFFFFFFE0
FFFFFFFFFFE0
FFFFFFFFFFE0
ENDCHAR
STARTCHAR Ecircumflex
ENCODING 202
SWIDTH 759 0
DWIDTH 50 0
BBX 43 59 4 0
BITMAP
00003F800000
00007F800000
0000F3C00000
0001F3E00000
0001E1E00000
0003E0F00000
0007C0F80000
000780780000
000F807C0000
000000000000
000000000000
FFFFFFFFFFE0
FFFFFFFFFFE0
FFFFFFFFFFE0
FFFFFFFFFFE0
FFFFFFFFFFE0
FFFFFFFFFFE0
FFFFFFFFFFE0
FFFFFFFFFFE0
FF0000000000
FF0000000000
FF0000000000
FF0000000000
FF0000000000
FF0000000000
FF0000000000
FF0000000000
FF0000000000
FF0000000000
FF0000000000
FF0000000000
FF01FFFFFF80
FF01FFFFFF80
FF01FFFFFF80
FF01FFFFFF80
FF01FFFFFF80
FF01FFFFFF80
FF01FFFFFF80
FF0000000000
FF0000000000
FF0000000000
FF0000000000
FF0000000000
FF0000000000
FF0000000000
FF0000000000
FF0000000000
FF0000000000
FF0000000000
FF0000000000
FF0000000000
FFFFFFFFFFE0
FFFFFFFFFFE0
FFFFFFFFFFE0
FFFFFFFFFFE0
FFFFFFFFFFE0
FFFFFFFFFFE0
FFFFFFFFFFE0
FFFFFFFFFFE0
ENDCHAR
STARTCHAR Edieresis
ENCODING 203
SWIDTH 759 0
DWIDTH 50 0
BBX 43 59 4 0
BITMAP
000780780000
000FC0FC0000
000FC0FC0000
000FC0FE0000
000FC0FC0000
000780780000
000000000000
000000000000
000000000000
000000000000
000000000000
FFFFFFFFFFE0
FFFFFFFFFFE0
FFFFFFFFFFE0
FFFFFFFFFFE0
FFFFFFFFFFE0
FFFFFFFFFFE0
FFFFFFFFFFE0
FFFFFFFFFFE0
FF0000000000
FF0000000000
FF0000000000
FF0000000000
FF0000000000
FF0000000000
FF0000000000
FF0000000000
FF0000000000
FF0000000000
FF0000000000
FF0000000000
FF01FFFFFF80
FF01FFFFFF80
FF01FFFFFF80
FF01FFFFFF80
FF01FFFFFF80
FF01FFFFFF80
FF01FFFFFF80
FF0000000000
FF0000000000
FF0000000000
FF0000000000
FF0000000000
FF0000000000
FF0000000000
FF0000000000
FF0000000000
FF0000000000
FF0000000000
FF0000000000
FF0000000000
FFFFFFFFFFE0
FFFFFFFFFFE0
FFFFFFFFFFE0
FFFFFFFFFFE0
FFFFFFFFFFE0
FFFFFFFFFFE0
FFFFFFFFFFE0
FFFFFFFFFFE0
ENDCHAR
STARTCHAR Igrave
ENCODING 204
SWIDTH 267 0
DWIDTH 18 0
BBX 17 60 -2 0
BITMAP
C00000
F80000
FF0000
FFF000
FFFE00
7FFF80
03FF80
003F80
000180
000000
000000
000000
01FE00
01FE00
01FE00
01FE00
01FE00
01FE00
01FE00
01FE00
01FE00
01FE00
01FE00
01FE00
01FE00
01FE00
01FE00
01FE00
01FE00
01FE00
01FE00
01FE00
01FE00
01FE00
01FE00
01FE00
01FE00
01FE00
01FE00
01FE00
01FE00
01FE00
01FE00
01FE00
01FE00
01FE00
01FE00
01FE00
01FE00
01FE00
01FE00
01FE00
01FE00
01FE00
01FE00
01FE00
01FE00
01FE00
01FE00
01FE00
ENDCHAR
STARTCHAR Iacute
ENCODING 205
SWIDTH 267 0
DWIDTH 18 0
BBX 17 60 2 0
BITMAP
000080
000780
003F80
03FF80
1FFF80
FFFF80
FFF000
FF0000
E00000
000000
000000
000000
1FE000
1FE000
1FE000
1FE000
1FE000
1FE000
1FE000
1FE000
1FE000
1FE000
1FE000
1FE000
1FE000
1FE000
1FE000
1FE000
1FE000
1FE000
1FE000
1FE000
1FE000
1FE000
1FE000
1FE000
1FE000
1FE000
1FE000
1FE000
1FE000
1FE000
1FE000
1FE000
1FE000
1FE000
1FE000
1FE000
1FE000
1FE000
1FE000
1FE000
1FE000
1FE000
1FE000
1FE000
1FE000
1FE000
1FE000
1FE000
ENDCHAR
STARTCHAR Icircumflex
ENCODING 206
SWIDTH 267 0
DWIDTH 18 0
BBX 18 59 0 0
BITMAP
07F000
07F800
0F7C00
1F3C00
1E1E00
3C1F00
7C0F80
780780
F007C0
000000
000000
07F800
07F800
07F800
07F800
07F800
07F800
07F800
07F800
07F800
07F800
07F800
07F800
07F800
07F800
07F800
07F800
07F800
07F800
07F800
07F800
07F800
07F800
07F800
07F800
07F800
07F800
07F800
07F800
07F800
07F800
07F800
07F800
07F800
07F800
07F800
07F800
07F800
07F800
07F800
07F800
07F800
07F800
07F800
07F800
07F800
07F800
07F800
07F800
ENDCHAR
STARTCHAR Idieresis
ENCODING 207
SWIDTH 267 0
DWIDTH 18 0
BBX 19 59 -1 0
BITMAP
3C03C0
7E07E0
FE07E0
FE07E0
7E07E0
3C03C0
000000
000000
000000
000000
000000
03FC00
03FC00
03FC00
03FC00
03FC00
03FC00
03FC00
03FC00
03FC00
03FC00
03FC00
03FC00
03FC00
03FC00
03FC00
03FC00
03FC00
03FC00
03FC00
03FC00
03FC00
03FC00
03FC00
03FC00
03FC00
03FC00
03FC00
03FC00
03FC00
03FC00
03FC00
03FC00
03FC00
03FC00
03FC00
03FC00
03FC00
03FC00
03FC00
03FC00
03FC00
03FC00
03FC00
03FC00
03FC00
03FC00
03FC00
03FC00
ENDCHAR
STARTCHAR Eth
ENCODING 208
SWIDTH 877 0
DWIDTH 58 0
BBX 54 48 1 0
BITMAP
1FFFFFFFF00000
1FFFFFFFFF0000
1FFFFFFFFFC000
1FFFFFFFFFF000
1FFFFFFFFFF800
1FFFFFFFFFFC00
1FFFFFFFFFFF00
1FFFFFFFFFFF80
1FE00000FFFF80
1FE0000007FFC0
1FE0000001FFE0
1FE0000000FFE0
1FE00000007FF0
1FE00000003FF0
1FE00000001FF8
1FE00000000FF8
1FE00000000FF8
1FE000000007FC
1FE000000007FC
1FE000000007FC
FFFFFFFC0007FC
FFFFFFFC0003FC
FFFFFFFC0003FC
FFFFFFFC0003FC
FFFFFFFC0003FC
FFFFFFFC0003FC
FFFFFFFC0003FC
1FE000000007FC
1FE000000007FC
1FE000000007FC
1FE000000007F8
1FE00000000FF8
1FE00000000FF8
1FE00000001FF0
1FE00000003FF0
1FE00000007FE0
1FE0000000FFE0
1FE0000001FFC0
1FE0000007FFC0
1FE00000FFFF80
1FFFFFFFFFFF00
1FFFFFFFFFFE00
1FFFFFFFFFFC00
1FFFFFFFFFF800
1FFFFFFFFFE000
1FFFFFFFFF8000
1FFFFFFFFE0000
1FFFFFFFF00000
ENDCHAR
STARTCHAR Ntilde
ENCODING 209
SWIDTH 873 0
DWIDTH 58 0
BBX 50 58 4 0
BITMAP
00003E00400000
0000FFC1800000
0000FFFF800000
0000FFFF800000
0000C1FF800000
0000803F000000
00000000000000
00000000000000
00000000000000
00000000000000
3C000000003FC0
7F000000003FC0
FF800000003FC0
FFC00000003FC0
FFE00000003FC0
FFF00000003FC0
FFF80000003FC0
FFFC0000003FC0
FFFE0000003FC0
FFFF0000003FC0
FFFF8000003FC0
FFFFC000003FC0
FFFFE000003FC0
FFFFF000003FC0
FF7FF800003FC0
FF3FFC00003FC0
FF1FFE00003FC0
FF0FFF00003FC0
FF07FF80003FC0
FF03FFC0003FC0
FF01FFE0003FC0
FF00FFF0003FC0
FF007FF8003FC0
FF003FFC003FC0
FF001FFE003FC0
FF000FFF003FC0
FF0007FF803FC0
FF0003FFC03FC0
FF0001FFE03FC0
FF0000FFF03FC0
FF00007FF83FC0
FF00003FFC3FC0
FF00000FFE3FC0
FF000007FF3FC0
FF000003FFBFC0
FF000001FFFFC0
FF000000FFFFC0
FF0000007FFFC0
FF0000003FFFC0
FF0000001FFFC0
FF0000000FFFC0
FF00000007FFC0
FF00000003FFC0
FF00000001FFC0
FF00000000FFC0
FF000000007F80
FF000000003F80
FF000000001E00
ENDCHAR
STARTCHAR Ograve
ENCODING 210
SWIDTH 968 0
DWIDTH 64 0
BBX 58 60 3 0
BITMAP
0000100000000000
00001E0000000000
00001FC000000000
00001FFC00000000
00001FFF80000000
00001FFFE0000000
000000FFE0000000
0000000FE0000000
0000000060000000
0000000000000000
0000000000000000
0000000000000000
00003FFFFF000000
0003FFFFFFF00000
000FFFFFFFFC0000
003FFFFFFFFF0000
007FFFFFFFFF8000
01FFFFFFFFFFE000
03FFFFFFFFFFF000
07FFFFFFFFFFF800
07FFFC000FFFF800
0FFF8000007FFC00
1FFE0000001FFE00
1FFC0000000FFE00
3FF800000007FF00
3FF000000003FF00
7FE000000001FF80
7FC000000000FF80
7FC000000000FF80
FF80000000007FC0
FF80000000007FC0
FF80000000007FC0
FF00000000003FC0
FF00000000003FC0
FF00000000003FC0
FF00000000003FC0
FF00000000003FC0
FF00000000003FC0
FF00000000003FC0
FF80000000007FC0
FF80000000007FC0
FF80000000007FC0
7F80000000007F80
7FC000000000FF80
7FC000000000FF80
3FE000000001FF00
3FF000000003FF00
1FF800000007FE00
1FFC0000000FFE00
0FFE0000001FFC00
0FFF8000007FFC00
07FFFC000FFFF800
03FFFFFFFFFFF000
01FFFFFFFFFFE000
00FFFFFFFFFFC000
007FFFFFFFFF8000
001FFFFFFFFE0000
000FFFFFFFF80000
0001FFFFFFE00000
00003FFFFF000000
ENDCHAR
STARTCHAR Oacute
ENCODING 211
SWIDTH 968 0
DWIDTH 64 0
BBX 58 60 3 0
BITMAP
0000000002000000
000000001E000000
00000000FE000000
0000000FFE000000
0000007FFE000000
000003FFFE000000
000003FFC0000000
000003FC00000000
0000038000000000
0000000000000000
0000000000000000
0000000000000000
00003FFFFF000000
0003FFFFFFF00000
000FFFFFFFFC0000
003FFFFFFFFF0000
007FFFFFFFFF8000
01FFFFFFFFFFE000
03FFFFFFFFFFF000
07FFFFFFFFFFF800
07FFFC000FFFF800
0FFF8000007FFC00
1FFE0000001FFE00
1FFC0000000FFE00
3FF800000007FF00
3FF000000003FF00
7FE000000001FF80
7FC000000000FF80
7FC000000000FF80
FF80000000007FC0
FF80000000007FC0
FF80000000007FC0
FF00000000003FC0
FF00000000003FC0
FF00000000003FC0
FF00000000003FC0
FF00000000003FC0
FF00000000003FC0
FF00000000003FC0
FF80000000007FC0
FF80000000007FC0
FF80000000007FC0
7F80000000007F80
7FC000000000FF80
7FC000000000FF80
3FE000000001FF00
3FF000000003FF00
1FF800000007FE00
1FFC0000000FFE00
0FFE0000001FFC00
0FFF8000007FFC00
07FFFC000FFFF800
03FFFFFFFFFFF000
01FFFFFFFFFFE000
00FFFFFFFFFFC000
007FFFFFFFFF8000
001FFFFFFFFE0000
000FFFFFFFF80000
0001FFFFFFE00000
00003FFFFF000000
ENDCHAR
STARTCHAR Ocircumflex
ENCODING 212
SWIDTH 968 0
DWIDTH 64 0
BBX 58 59 3 0
BITMAP
0000007F00000000
0000007F80000000
000000F7C0000000
000001F3C0000000
000001E1E0000000
000003C1F0000000
000007C0F8000000
0000078078000000
00000F007C000000
0000000000000000
0000000000000000
00003FFFFF000000
0003FFFFFFF00000
000FFFFFFFFC0000
003FFFFFFFFF0000
007FFFFFFFFF8000
01FFFFFFFFFFE000
03FFFFFFFFFFF000
07FFFFFFFFFFF800
07FFFC000FFFF800
0FFF8000007FFC00
1FFE0000001FFE00
1FFC0000000FFE00
3FF800000007FF00
3FF000000003FF00
7FE000000001FF80
7FC000000000FF80
7FC000000000FF80
FF80000000007FC0
FF80000000007FC0
FF80000000007FC0
FF00000000003FC0
FF00000000003FC0
FF00000000003FC0
FF00000000003FC0
FF00000000003FC0
FF00000000003FC0
FF00000000003FC0
FF80000000007FC0
FF80000000007FC0
FF80000000007FC0
7F80000000007F80
7FC000000000FF80
7FC000000000FF80
3FE000000001FF00
3FF000000003FF00
1FF800000007FE00
1FFC0000000FFE00
0FFE0000001FFC00
0FFF8000007FFC00
07FFFC000FFFF800
03FFFFFFFFFFF000
01FFFFFFFFFFE000
00FFFFFFFFFFC000
007FFFFFFFFF8000
001FFFFFFFFE0000
000FFFFFFFF80000
0001FFFFFFE00000
00003FFFFF000000
ENDCHAR
STARTCHAR Otilde
ENCODING 213
SWIDTH 968 0
DWIDTH 64 0
BBX 58 58 3 0
BITMAP
000003E004000000
00000FFC18000000
00000FFFF8000000
00000FFFF8000000
00000C0FF8000000
00000803F0000000
0000000000000000
0000000000000000
0000000000000000
0000000000000000
00003FFFFF000000
0003FFFFFFF00000
000FFFFFFFFC0000
003FFFFFFFFF0000
007FFFFFFFFF8000
01FFFFFFFFFFE000
03FFFFFFFFFFF000
07FFFFFFFFFFF800
07FFFC000FFFF800
0FFF8000007FFC00
1FFE0000001FFE00
1FFC0000000FFE00
3FF800000007FF00
3FF000000003FF00
7FE000000001FF80
7FC000000000FF80
7FC000000000FF80
FF80000000007FC0
FF80000000007FC0
FF80000000007FC0
FF00000000003FC0
FF00000000003FC0
FF00000000003FC0
FF00000000003FC0
FF00000000003FC0
FF00000000003FC0
FF00000000003FC0
FF80000000007FC0
FF80000000007FC0
FF80000000007FC0
7F80000000007F80
7FC000000000FF80
7FC000000000FF80
3FE000000001FF00
3FF000000003FF00
1FF800000007FE00
1FFC0000000FFE00
0FFE0000001FFC00
0FFF8000007FFC00
07FFFC000FFFF800
03FFFFFFFFFFF000
01FFFFFFFFFFE000
00FFFFFFFFFFC000
007FFFFFFFFF8000
001FFFFFFFFE0000
000FFFFFFFF80000
0001FFFFFFE00000
00003FFFFF000000
ENDCHAR
STARTCHAR Odieresis
ENCODING 214
SWIDTH 968 0
DWIDTH 64 0
BBX 58 59 3 0
BITMAP
0000078078000000
00000FC0FC000000
00001FC0FC000000
00001FC0FC000000
00000FC0FC000000
0000078078000000
0000000000000000
0000000000000000
0000000000000000
0000000000000000
0000000000000000
00003FFFFF000000
0003FFFFFFF00000
000FFFFFFFFC0000
003FFFFFFFFF0000
007FFFFFFFFF8000
01FFFFFFFFFFE000
03FFFFFFFFFFF000
07FFFFFFFFFFF800
07FFFC000FFFF800
0FFF8000007FFC00
1FFE0000001FFE00
1FFC0000000FFE00
3FF800000007FF00
3FF000000003FF00
7FE000000001FF80
7FC000000000FF80
7FC000000000FF80
FF80000000007FC0
FF80000000007FC0
FF80000000007FC0
FF00000000003FC0
FF00000000003FC0
FF00000000003FC0
FF00000000003FC0
FF00000000003FC0
FF00000000003FC0
FF00000000003FC0
FF80000000007FC0
FF80000000007FC0
FF80000000007FC0
7F80000000007F80
7FC000000000FF80
7FC000000000FF80
3FE000000001FF00
3FF000000003FF00
1FF800000007FE00
1FFC0000000FFE00
0FFE0000001FFC00
0FFF8000007FFC00
07FFFC000FFFF800
03FFFFFFFFFFF000
01FFFFFFFFFFE000
00FFFFFFFFFFC000
007FFFFFFFFF8000
001FFFFFFFFE0000
000FFFFFFFF80000
0001FFFFFFE00000
00003FFFFF000000
ENDCHAR
STARTCHAR multiply
ENCODING 215
SWIDTH 690 0
DWIDTH 46 0
BBX 30 31 8 9
BITMAP
10000040
38000060
7C0000F0
7E0001F8
FF0003FC
7F8007F8
3FC00FF0
1FE01FE0
0FF03FC0
07F87F80
03FCFF00
01FFFE00
00FFFC00
007FF800
003FF000
001FE000
003FF000
007FF800
00FFFC00
01FFFE00
03FCFF00
07F87F80
0FF03FC0
1FE01FE0
3FC00FF0
7F8007F8
FF0003FC
FE0001F8
7C0000F0
38000060
10000040
ENDCHAR
STARTCHAR Oslash
ENCODING 216
SWIDTH 968 0
DWIDTH 64 0
BBX 58 54 3 -3
BITMAP
0000000000002000
0000000000007800
000000000000F000
00003FFFFF01F000
0003FFFFFFF3E000
000FFFFFFFFFC000
003FFFFFFFFF8000
007FFFFFFFFF8000
01FFFFFFFFFFC000
03FFFFFFFFFFF000
07FFFFFFFFFFF800
07FFFC000FFFF800
0FFF800000FFFC00
1FFE000001FFFE00
1FFC000003CFFE00
3FF800000787FF00
3FF000000F83FF00
7FE000001F01FF80
7FC000003E00FF80
7FC000003C00FF80
FF80000078007FC0
FF800000F0007FC0
FF800001E0007FC0
FF000003E0003FC0
FF000007C0003FC0
FF00000F80003FC0
FF00000F00003FC0
FF00001E00003FC0
FF00003C00003FC0
FF00007C00003FC0
FF0000F800007FC0
FF8001F000007FC0
FF8001E000007FC0
7F8003C000007F80
7FC007800000FF80
7FC00F000000FF80
3FE01F000001FF00
3FF03E000003FF00
1FF87C000007FF00
1FFC7800000FFE00
0FFEF000001FFC00
0FFFE000007FFC00
07FFF8000FFFF800
03FFFFFFFFFFF000
01FFFFFFFFFFE000
00FFFFFFFFFFC000
007FFFFFFFFF8000
003FFFFFFFFE0000
007FFFFFFFF80000
00F9FFFFFFE00000
01F03FFFFF000000
03E0000000000000
03C0000000000000
0080000000000000
ENDCHAR
STARTCHAR Ugrave
ENCODING 217
SWIDTH 889 0
DWIDTH 59 0
BBX 52 61 3 -1
BITMAP
00008000000000
0000F000000000
0000FF00000000
0000FFE0000000
0000FFFC000000
0000FFFF800000
000007FF800000
0000003F800000
00000003800000
00000000000000
00000000000000
00000000000000
FF800000000FF0
FF800000000FF0
FF800000000FF0
FF800000000FF0
FF800000000FF0
FF800000000FF0
FF800000000FF0
FF800000000FF0
FF800000000FF0
FF800000000FF0
FF800000000FF0
FF800000000FF0
FF800000000FF0
FF800000000FF0
FF800000000FF0
FF800000000FF0
FF800000000FF0
FF800000000FF0
FF800000000FF0
FF800000000FF0
FF800000000FF0
FF800000000FF0
FF800000000FF0
FF800000000FF0
FF800000000FF0
FF800000000FF0
FF800000000FF0
FF800000000FF0
FF800000000FF0
FF800000000FF0
7F800000000FF0
7F800000000FF0
7FC00000001FF0
7FC00000001FF0
7FE00000001FE0
7FE00000003FE0
3FF00000007FE0
3FF8000000FFE0
1FFC000001FFC0
1FFF80000FFFC0
0FFFFF03FFFF80
0FFFFFFFFFFF00
07FFFFFFFFFE00
03FFFFFFFFFC00
01FFFFFFFFF800
007FFFFFFFF000
001FFFFFFFC000
0003FFFFFE0000
00001FFFC00000
ENDCHAR
STARTCHAR Uacute
ENCODING 218
SWIDTH 889 0
DWIDTH 59 0
BBX 52 61 3 -1
BITMAP
00000000080000
00000000F80000
00000007F80000
0000003FF80000
000003FFF80000
00000FFFF00000
00000FFF000000
00000FE0000000
00000C00000000
00000000000000
00000000000000
00000000000000
FF800000000FF0
FF800000000FF0
FF800000000FF0
FF800000000FF0
FF800000000FF0
FF800000000FF0
FF800000000FF0
FF800000000FF0
FF800000000FF0
FF800000000FF0
FF800000000FF0
FF800000000FF0
FF800000000FF0
FF800000000FF0
FF800000000FF0
FF800000000FF0
FF800000000FF0
FF800000000FF0
FF800000000FF0
FF800000000FF0
FF800000000FF0
FF800000000FF0
FF800000000FF0
FF800000000FF0
FF800000000FF0
FF800000000FF0
FF800000000FF0
FF800000000FF0
FF800000000FF0
FF800000000FF0
7F800000000FF0
7F800000000FF0
7FC00000001FF0
7FC00000001FF0
7FE00000001FE0
7FE00000003FE0
3FF00000007FE0
3FF8000000FFE0
1FFC000001FFC0
1FFF80000FFFC0
0FFFFF03FFFF80
0FFFFFFFFFFF00
07FFFFFFFFFE00
03FFFFFFFFFC00
01FFFFFFFFF800
007FFFFFFFF000
001FFFFFFFC000
0003FFFFFE0000
00001FFFC00000
ENDCHAR
STARTCHAR Ucircumflex
ENCODING 219
SWIDTH 889 0
DWIDTH 59 0
BBX 52 60 3 -1
BITMAP
000001FC000000
000003FE000000
000007DE000000
0000078F000000
00000F0F800000
00001F07800000
00001E07C00000
00003E03E00000
00007C01E00000
00000000000000
00000000000000
FF800000000FF0
FF800000000FF0
FF800000000FF0
FF800000000FF0
FF800000000FF0
FF800000000FF0
FF800000000FF0
FF800000000FF0
FF800000000FF0
FF800000000FF0
FF800000000FF0
FF800000000FF0
FF800000000FF0
FF800000000FF0
FF800000000FF0
FF800000000FF0
FF800000000FF0
FF800000000FF0
FF800000000FF0
FF800000000FF0
FF800000000FF0
FF800000000FF0
FF800000000FF0
FF800000000FF0
FF800000000FF0
FF800000000FF0
FF800000000FF0
FF800000000FF0
FF800000000FF0
FF800000000FF0
7F800000000FF0
7F800000000FF0
7FC00000001FF0
7FC00000001FF0
7FE00000001FE0
7FE00000003FE0
3FF00000007FE0
3FF8000000FFE0
1FFC000001FFC0
1FFF80000FFFC0
0FFFFF03FFFF80
0FFFFFFFFFFF00
07FFFFFFFFFE00
03FFFFFFFFFC00
01FFFFFFFFF800
007FFFFFFFF000
001FFFFFFFC000
0003FFFFFE0000
00001FFFC00000
ENDCHAR
STARTCHAR Udieresis
ENCODING 220
SWIDTH 889 0
DWIDTH 59 0
BBX 52 60 3 -1
BITMAP
00003C03C00000
00007E07E00000
00007F07F00000
00007F07F00000
00007E07E00000
00003C03C00000
00000000000000
00000000000000
00000000000000
00000000000000
00000000000000
FF800000000FF0
FF800000000FF0
FF800000000FF0
FF800000000FF0
FF800000000FF0
FF800000000FF0
FF800000000FF0
FF800000000FF0
FF800000000FF0
FF800000000FF0
FF800000000FF0
FF800000000FF0
FF800000000FF0
FF800000000FF0
FF800000000FF0
FF800000000FF0
FF800000000FF0
FF800000000FF0
FF800000000FF0
FF800000000FF0
FF800000000FF0
FF800000000FF0
FF800000000FF0
FF800000000FF0
FF800000000FF0
FF800000000FF0
FF800000000FF0
FF800000000FF0
FF800000000FF0
FF800000000FF0
7F800000000FF0
7F800000000FF0
7FC00000001FF0
7FC00000001FF0
7FE00000001FE0
7FE00000003FE0
3FF00000007FE0
3FF8000000FFE0
1FFC000001FFC0
1FFF80000FFFC0
0FFFFF03FFFF80
0FFFFFFFFFFF00
07FFFFFFFFFE00
03FFFFFFFFFC00
01FFFFFFFFF800
007FFFFFFFF000
001FFFFFFFC000
0003FFFFFE0000
00001FFFC00000
ENDCHAR
STARTCHAR Yacute
ENCODING 221
SWIDTH 926 0
DWIDTH 61 0
BBX 59 60 1 0
BITMAP
0000000001000000
000000000F000000
000000007F000000
00000007FF000000
0000003FFF000000
000001FFFF000000
000001FFE0000000
000001FE00000000
000001C000000000
0000000000000000
0000000000000000
0000000000000000
FFF000000000FFE0
7FF000000001FFC0
3FF800000003FF80
1FFC00000003FF00
0FFE00000007FE00
07FF0000000FFE00
07FF8000001FFC00
03FF8000003FF800
01FFC000007FF000
00FFE000007FE000
007FF00000FFC000
003FF80001FF8000
001FFC0003FF8000
001FFE0007FF0000
000FFE000FFE0000
0007FF001FFC0000
0003FF801FF80000
0001FFC03FF00000
0000FFE07FE00000
00007FF0FFE00000
00007FF1FFC00000
00003FFBFF800000
00001FFFFF000000
00000FFFFE000000
000007FFFC000000
000003FFF8000000
000001FFF8000000
000001FFF0000000
000000FFE0000000
0000007FC0000000
0000007FC0000000
0000007FC0000000
0000007FC0000000
0000007FC0000000
0000007FC0000000
0000007FC0000000
0000007FC0000000
0000007FC0000000
0000007FC0000000
0000007FC0000000
0000007FC0000000
0000007FC0000000
0000007FC0000000
0000007FC0000000
0000007FC0000000
0000007FC0000000
0000007FC0000000
0000007FC0000000
ENDCHAR
STARTCHAR Thorn
ENCODING 222
SWIDTH 843 0
DWIDTH 56 0
BBX 50 48 4 0
BITMAP
FF000000000000
FF000000000000
FF000000000000
FF000000000000
FF000000000000
FF000000000000
FF000000000000
FFFFFFFFFC0000
FFFFFFFFFF8000
FFFFFFFFFFE000
FFFFFFFFFFF000
FFFFFFFFFFF800
FFFFFFFFFFFC00
FFFFFFFFFFFE00
FFFFFFFFFFFE00
FF0000001FFF00
FF00000003FF00
FF00000001FF80
FF00000000FF80
FF00000000FF80
FF000000007F80
FF000000007FC0
FF000000007FC0
FF000000007FC0
FF000000007FC0
FF000000007FC0
FF000000007FC0
FF000000007F80
FF000000007F80
FF00000000FF80
FF00000001FF80
FF00000003FF00
FF00000007FF00
FF0000003FFF00
FF01FFFFFFFE00
FF01FFFFFFFC00
FF01FFFFFFFC00
FF01FFFFFFF800
FF01FFFFFFE000
FF01FFFFFFC000
FF01FFFFFF0000
FF01FFFFF80000
FF000000000000
FF000000000000
FF000000000000
FF000000000000
FF000000000000
FF000000000000
ENDCHAR
STARTCHAR germandbls
ENCODING 223
SWIDTH 1760 0
DWIDTH 116 0
BBX 110 48 3 0
BITMAP
001FFFFFFFFFC00007FFFFFFFFF0
00FFFFFFFFFFC0003FFFFFFFFFF0
03FFFFFFFFFFC000FFFFFFFFFFF0
07FFFFFFFFFFC001FFFFFFFFFFF0
0FFFFFFFFFFFC003FFFFFFFFFFF0
1FFFFFFFFFFFC007FFFFFFFFFFF0
3FFFFFFFFFFFC00FFFFFFFFFFFF0
3FFFFFFFFFFFC00FFFFFFFFFFFF0
7FFC00000000001FFF0000000000
7FE000000000001FF80000000000
7FC000000000001FF00000000000
7FC000000000001FF00000000000
FF8000000000001FE00000000000
FF8000000000001FE00000000000
FF8000000000001FE00000000000
7F8000000000001FE00000000000
7F8000000000001FF00000000000
7FC000000000001FF00000000000
7FE000000000001FF80000000000
3FF000000000000FFC0000000000
3FFFFFFFFFC0000FFFFFFFFFF000
1FFFFFFFFFF80007FFFFFFFFFE00
0FFFFFFFFFFE0003FFFFFFFFFF80
07FFFFFFFFFF0001FFFFFFFFFFC0
03FFFFFFFFFF8000FFFFFFFFFFE0
00FFFFFFFFFFC0003FFFFFFFFFF0
001FFFFFFFFFE00007FFFFFFFFF8
0000000000FFE000000000003FF8
00000000003FE000000000000FF8
00000000001FF0000000000007FC
00000000000FF0000000000003FC
00000000000FF0000000000003FC
00000000000FF0000000000003FC
00000000000FF0000000000003FC
00000000000FF0000000000003FC
00000000000FF0000000000003FC
00000000001FF0000000000007FC
00000000001FF0000000000007FC
00000000003FE000000000000FFC
0000000003FFE00000000000FFF8
7FFFFFFFFFFFE01FFFFFFFFFFFF8
7FFFFFFFFFFFC01FFFFFFFFFFFF0
7FFFFFFFFFFFC01FFFFFFFFFFFF0
7FFFFFFFFFFF801FFFFFFFFFFFE0
7FFFFFFFFFFF001FFFFFFFFFFFC0
7FFFFFFFFFFE001FFFFFFFFFFF80
7FFFFFFFFFF8001FFFFFFFFFFE00
7FFFFFFFFFC0001FFFFFFFFFF000
ENDCHAR
STARTCHAR agrave
ENCODING 224
SWIDTH 989 0
DWIDTH 65 0
BBX 63 60 1 0
BITMAP
0000040000000000
000007C000000000
000007F800000000
000007FF00000000
000007FFF0000000
000003FFFC000000
0000003FFC000000
00000001FC000000
000000000C000000
0000000000000000
0000000000000000
0000000100000000
00000007C0000000
0000000FE0000000
0000001FF0000000
0000001FF0000000
0000003FF8000000
0000003FFC000000
0000007FFC000000
000000FFFE000000
000000FFFE000000
000001FFFF000000
000003FFFF800000
000003FFFF800000
000007FEFFC00000
000007FC7FC00000
00000FF87FE00000
00001FF83FF00000
00001FF03FF00000
00003FF01FF80000
00003FE00FF80000
00007FC00FFC0000
0000FFC007FE0000
0000FF8007FE0000
0001FF8003FF0000
0001FF0001FF0000
0003FE0001FF8000
0007FE0000FFC000
0007FC0000FFC000
000FFC00007FE000
000FF800003FE000
001FF01FFFFFF000
003FF03FFFFFF800
003FE03FFFFFF800
007FE07FFFFFFC00
007FC07FFFFFFE00
00FFC0FFFFFFFE00
01FF81FFFFFFFF00
01FF00000003FF00
03FF00000001FF80
03FE00000001FFC0
07FE00000000FFC0
0FFC000000007FE0
0FF8000000007FE0
1FF8000000003FF0
1FF0000000003FF8
3FF0000000001FF8
7FE0000000000FFC
7FC0000000000FFC
FFC00000000007FE
ENDCHAR
STARTCHAR aacute
ENCODING 225
SWIDTH 989 0
DWIDTH 65 0
BBX 63 60 1 0
BITMAP
0000000000400000
0000000003C00000
000000003FC00000
00000001FFC00000
0000000FFFC00000
0000007FFFC00000
0000007FF8000000
0000007F00000000
0000007000000000
0000000000000000
0000000000000000
0000000100000000
00000007C0000000
0000000FE0000000
0000001FF0000000
0000001FF0000000
0000003FF8000000
0000003FFC000000
0000007FFC000000
000000FFFE000000
000000FFFE000000
000001FFFF000000
000003FFFF800000
000003FFFF800000
000007FEFFC00000
000007FC7FC00000
00000FF87FE00000
00001FF83FF00000
00001FF03FF00000
00003FF01FF80000
00003FE00FF80000
00007FC00FFC0000
0000FFC007FE0000
0000FF8007FE0000
0001FF8003FF0000
0001FF0001FF0000
0003FE0001FF8000
0007FE0000FFC000
0007FC0000FFC000
000FFC00007FE000
000FF800003FE000
001FF01FFFFFF000
003FF03FFFFFF800
003FE03FFFFFF800
007FE07FFFFFFC00
007FC07FFFFFFE00
00FFC0FFFFFFFE00
01FF81FFFFFFFF00
01FF00000003FF00
03FF00000001FF80
03FE00000001FFC0
07FE00000000FFC0
0FFC000000007FE0
0FF8000000007FE0
1FF8000000003FF0
1FF0000000003FF8
3FF0000000001FF8
7FE0000000000FFC
7FC0000000000FFC
FFC00000000007FE
ENDCHAR
STARTCHAR acircumflex
ENCODING 226
SWIDTH 989 0
DWIDTH 65 0
BBX 63 59 1 0
BITMAP
0000000FE0000000
0000001FF0000000
0000001EF0000000
0000003C78000000
0000007C7C000000
000000783E000000
000000F01E000000
000001F01F000000
000001E00F800000
0000000000000000
0000000100000000
00000007C0000000
0000000FE0000000
0000001FF0000000
0000001FF0000000
0000003FF8000000
0000003FFC000000
0000007FFC000000
000000FFFE000000
000000FFFE000000
000001FFFF000000
000003FFFF800000
000003FFFF800000
000007FEFFC00000
000007FC7FC00000
00000FF87FE00000
00001FF83FF00000
00001FF03FF00000
00003FF01FF80000
00003FE00FF80000
00007FC00FFC0000
0000FFC007FE0000
0000FF8007FE0000
0001FF8003FF0000
0001FF0001FF0000
0003FE0001FF8000
0007FE0000FFC000
0007FC0000FFC000
000FFC00007FE000
000FF800003FE000
001FF01FFFFFF000
003FF03FFFFFF800
003FE03FFFFFF800
007FE07FFFFFFC00
007FC07FFFFFFE00
00FFC0FFFFFFFE00
01FF81FFFFFFFF00
01FF00000003FF00
03FF00000001FF80
03FE00000001FFC0
07FE00000000FFC0
0FFC000000007FE0
0FF8000000007FE0
1FF8000000003FF0
1FF0000000003FF8
3FF0000000001FF8
7FE0000000000FFC
7FC0000000000FFC
FFC00000000007FE
ENDCHAR
STARTCHAR atilde
ENCODING 227
SWIDTH 989 0
DWIDTH 65 0
BBX 63 58 1 0
BITMAP
0000007C01000000
000001FF83000000
000001FFFF000000
000001FFFF000000
00000183FF000000
000001007C000000
0000000000000000
0000000000000000
0000000000000000
0000000100000000
00000007C0000000
0000000FE0000000
0000001FF0000000
0000001FF0000000
0000003FF8000000
0000003FFC000000
0000007FFC000000
000000FFFE000000
000000FFFE000000
000001FFFF000000
000003FFFF800000
000003FFFF800000
000007FEFFC00000
000007FC7FC00000
00000FF87FE00000
00001FF83FF00000
00001FF03FF00000
00003FF01FF80000
00003FE00FF80000
00007FC00FFC0000
0000FFC007FE0000
0000FF8007FE0000
0001FF8003FF0000
0001FF0001FF0000
0003FE0001FF8000
0007FE0000FFC000
0007FC0000FFC000
000FFC00007FE000
000FF800003FE000
001FF01FFFFFF000
003FF03FFFFFF800
003FE03FFFFFF800
007FE07FFFFFFC00
007FC07FFFFFFE00
00FFC0FFFFFFFE00
01FF81FFFFFFFF00
01FF00000003FF00
03FF00000001FF80
03FE00000001FFC0
07FE00000000FFC0
0FFC000000007FE0
0FF8000000007FE0
1FF8000000003FF0
1FF0000000003FF8
3FF0000000001FF8
7FE0000000000FFC
7FC0000000000FFC
FFC00000000007FE
ENDCHAR
STARTCHAR adieresis
ENCODING 228
SWIDTH 989 0
DWIDTH 65 0
BBX 63 59 1 0
BITMAP
000000F00F000000
000001F81F800000
000003F83F800000
000003F83F800000
000001F81F800000
000000F00F000000
0000000000000000
0000000000000000
0000000000000000
0000000000000000
0000000100000000
00000007C0000000
0000000FE0000000
0000001FF0000000
0000001FF0000000
0000003FF8000000
0000003FFC000000
0000007FFC000000
000000FFFE000000
000000FFFE000000
000001FFFF000000
000003FFFF800000
000003FFFF800000
000007FEFFC00000
000007FC7FC00000
00000FF87FE00000
00001FF83FF00000
00001FF03FF00000
00003FF01FF80000
00003FE00FF80000
00007FC00FFC0000
0000FFC007FE0000
0000FF8007FE0000
0001FF8003FF0000
0001FF0001FF0000
0003FE0001FF8000
0007FE0000FFC000
0007FC0000FFC000
000FFC00007FE000
000FF800003FE000
001FF01FFFFFF000
003FF03FFFFFF800
003FE03FFFFFF800
007FE07FFFFFFC00
007FC07FFFFFFE00
00FFC0FFFFFFFE00
01FF81FFFFFFFF00
01FF00000003FF00
03FF00000001FF80
03FE00000001FFC0
07FE00000000FFC0
0FFC000000007FE0
0FF8000000007FE0
1FF8000000003FF0
1FF0000000003FF8
3FF0000000001FF8
7FE0000000000FFC
7FC0000000000FFC
FFC00000000007FE
ENDCHAR
STARTCHAR aring
ENCODING 229
SWIDTH 989 0
DWIDTH 65 0
BBX 63 65 1 0
BITMAP
0000000FE0000000
0000003FFC000000
0000007FFE000000
000000F01E000000
000001E007000000
000001C007000000
000001C007000000
000001C003000000
000001C007000000
000000C007000000
000000E00E000000
000000701E000000
0000003FFC000000
0000001FF0000000
0000000000000000
0000000000000000
0000000100000000
00000007C0000000
0000000FE0000000
0000001FF0000000
0000001FF0000000
0000003FF8000000
0000003FFC000000
0000007FFC000000
000000FFFE000000
000000FFFE000000
000001FFFF000000
000003FFFF800000
000003FFFF800000
000007FEFFC00000
000007FC7FC00000
00000FF87FE00000
00001FF83FF00000
00001FF03FF00000
00003FF01FF80000
00003FE00FF80000
00007FC00FFC0000
0000FFC007FE0000
0000FF8007FE0000
0001FF8003FF0000
0001FF0001FF0000
0003FE0001FF8000
0007FE0000FFC000
0007FC0000FFC000
000FFC00007FE000
000FF800003FE000
001FF01FFFFFF000
003FF03FFFFFF800
003FE03FFFFFF800
007FE07FFFFFFC00
007FC07FFFFFFE00
00FFC0FFFFFFFE00
01FF81FFFFFFFF00
01FF00000003FF00
03FF00000001FF80
03FE00000001FFC0
07FE00000000FFC0
0FFC000000007FE0
0FF8000000007FE0
1FF8000000003FF0
1FF0000000003FF8
3FF0000000001FF8
7FE0000000000FFC
7FC0000000000FFC
FFC00000000007FE
ENDCHAR
STARTCHAR ae
ENCODING 230
SWIDTH 1345 0
DWIDTH 89 0
BBX 85 48 1 0
BITMAP
0000000FFFFFFFFFFFFFF8
0000001FFFFFFFFFFFFFF8
0000003FFFFFFFFFFFFFF8
0000003FFFFFFFFFFFFFF8
0000007FFFFFFFFFFFFFF8
0000007FFFFFFFFFFFFFF8
000000FFFFFFFFFFFFFFF8
000001FFFFFFFFFFFFFFF8
000001FF0007F800000000
000003FE0007F800000000
000003FE0007F800000000
000007FC0007F800000000
000007FC0007F800000000
00000FF80007F800000000
00001FF00007F800000000
00001FF00007F800000000
00003FE00007F800000000
00003FE00007F800000000
00007FC00007F800000000
0000FFC00007F800000000
0000FF800007F81FFFFFE0
0001FF000007F81FFFFFE0
0001FF000007F81FFFFFE0
0003FE000007F81FFFFFE0
0003FE000007F81FFFFFE0
0007FC000007F81FFFFFE0
000FFC000007F81FFFFFE0
000FF8000007F800000000
001FF0000007F800000000
001FF01FFFFFF800000000
003FE03FFFFFF800000000
003FE07FFFFFF800000000
007FC07FFFFFF800000000
00FFC0FFFFFFF800000000
00FF80FFFFFFF800000000
01FF01FFFFFFF800000000
01FF00000007F800000000
03FE00000007F800000000
07FE00000007F800000000
07FC00000007F800000000
0FFC00000007FFFFFFFFF8
0FF800000007FFFFFFFFF8
1FF800000007FFFFFFFFF8
1FF000000007FFFFFFFFF8
3FE000000007FFFFFFFFF8
7FE000000007FFFFFFFFF8
7FC000000007FFFFFFFFF8
FFC000000007FFFFFFFFF8
ENDCHAR
STARTCHAR ccedilla
ENCODING 231
SWIDTH 829 0
DWIDTH 55 0
BBX 49 61 3 -13
BITMAP
00003FFFFFFF80
0003FFFFFFFF80
000FFFFFFFFF80
003FFFFFFFFF80
007FFFFFFFFF80
01FFFFFFFFFF80
03FFFFFFFFFF80
07FFFFFFFFFF80
07FFFC00000000
0FFF8000000000
1FFE0000000000
1FFC0000000000
3FF80000000000
3FF00000000000
7FE00000000000
7FC00000000000
7FC00000000000
FF800000000000
FF800000000000
FF800000000000
FF000000000000
FF000000000000
FF000000000000
FF000000000000
FF000000000000
FF000000000000
FF000000000000
FF800000000000
FF800000000000
FF800000000000
7F800000000000
7FC00000000000
7FC00000000000
3FE00000000000
3FF00000000000
1FF80000000000
1FFC0000000000
0FFE0000000000
0FFF8000000000
07FFFC00000000
03FFFFFFFFFF80
01FFFFFFFFFF80
00FFFFFFFFFF80
007FFFFFFFFF80
001FFFFFFFFF80
000FFFFFFFFF80
0001FFFFFFFF80
00003FFFFFFF80
00000000000000
00000000000000
00000000000000
000007FC000000
000003F8000000
000003F8000000
000001F8000000
000001F0000000
000000F0000000
000000E0000000
000000E0000000
00000040000000
00000040000000
ENDCHAR
STARTCHAR egrave
ENCODING 232
SWIDTH 759 0
DWIDTH 50 0
BBX 43 60 4 0
BITMAP
001000000000
001E00000000
001FC0000000
001FFC000000
001FFF800000
001FFFE00000
0000FFE00000
00000FE00000
000000600000
000000000000
000000000000
000000000000
FFFFFFFFFFE0
FFFFFFFFFFE0
FFFFFFFFFFE0
FFFFFFFFFFE0
FFFFFFFFFFE0
FFFFFFFFFFE0
FFFFFFFFFFE0
FFFFFFFFFFE0
FF0000000000
FF0000000000
FF0000000000
FF0000000000
FF0000000000
FF0000000000
FF0000000000
FF0000000000
FF0000000000
FF0000000000
FF0000000000
FF0000000000
FF01FFFFFF80
FF01FFFFFF80
FF01FFFFFF80
FF01FFFFFF80
FF01FFFFFF80
FF01FFFFFF80
FF01FFFFFF80
FF0000000000
FF0000000000
FF0000000000
FF0000000000
FF0000000000
FF0000000000
FF0000000000
FF0000000000
FF0000000000
FF0000000000
FF0000000000
FF0000000000
FF0000000000
FFFFFFFFFFE0
FFFFFFFFFFE0
FFFFFFFFFFE0
FFFFFFFFFFE0
FFFFFFFFFFE0
FFFFFFFFFFE0
FFFFFFFFFFE0
FFFFFFFFFFE0
ENDCHAR
STARTCHAR eacute
ENCODING 233
SWIDTH 759 0
DWIDTH 50 0
BBX 43 60 4 0
BITMAP
000000020000
0000001E0000
000000FE0000
00000FFE0000
00007FFE0000
0001FFFE0000
0001FFC00000
0001FC000000
000180000000
000000000000
000000000000
000000000000
FFFFFFFFFFE0
FFFFFFFFFFE0
FFFFFFFFFFE0
FFFFFFFFFFE0
FFFFFFFFFFE0
FFFFFFFFFFE0
FFFFFFFFFFE0
FFFFFFFFFFE0
FF0000000000
FF0000000000
FF0000000000
FF0000000000
FF0000000000
FF0000000000
FF0000000000
FF0000000000
FF0000000000
FF0000000000
FF0000000000
FF0000000000
FF01FFFFFF80
FF01FFFFFF80
FF01FFFFFF80
FF01FFFFFF80
FF01FFFFFF80
FF01FFFFFF80
FF01FFFFFF80
FF0000000000
FF0000000000
FF0000000000
FF0000000000
FF0000000000
FF0000000000
FF0000000000
FF0000000000
FF0000000000
FF0000000000
FF0000000000
FF0000000000
FF0000000000
FFFFFFFFFFE0
FFFFFFFFFFE0
FFFFFFFFFFE0
FFFFFFFFFFE0
FFFFFFFFFFE0
FFFFFFFFFFE0
FFFFFFFFFFE0
FFFFFFFFFFE0
ENDCHAR
STARTCHAR ecircumflex
ENCODING 234
SWIDTH 759 0
DWIDTH 50 0
BBX 43 59 4 0
BITMAP
00003F800000
00007F800000
0000F3C00000
0001F3E00000
0001E1E00000
0003E0F00000
0007C0F80000
000780780000
000F807C0000
000000000000
000000000000
FFFFFFFFFFE0
FFFFFFFFFFE0
FFFFFFFFFFE0
FFFFFFFFFFE0
FFFFFFFFFFE0
FFFFFFFFFFE0
FFFFFFFFFFE0
FFFFFFFFFFE0
FF0000000000
FF0000000000
FF0000000000
FF0000000000
FF0000000000
FF0000000000
FF0000000000
FF0000000000
FF0000000000
FF0000000000
FF0000000000
FF0000000000
FF01FFFFFF80
FF01FFFFFF80
FF01FFFFFF80
FF01FFFFFF80
FF01FFFFFF80
FF01FFFFFF80
FF01FFFFFF80
FF0000000000
FF0000000000
FF0000000000
FF0000000000
FF0000000000
FF0000000000
FF0000000000
FF0000000000
FF0000000000
FF0000000000
FF0000000000
FF0000000000
FF0000000000
FFFFFFFFFFE0
FFFFFFFFFFE0
FFFFFFFFFFE0
FFFFFFFFFFE0
FFFFFFFFFFE0
FFFFFFFFFFE0
FFFFFFFFFFE0
FFFFFFFFFFE0
ENDCHAR
STARTCHAR edieresis
ENCODING 235
SWIDTH 759 0
DWIDTH 50 0
BBX 43 59 4 0
BITMAP
000780780000
000FC0FC0000
000FC0FC0000
000FC0FE0000
000FC0FC0000
000780780000
000000000000
000000000000
000000000000
000000000000
000000000000
FFFFFFFFFFE0
FFFFFFFFFFE0
FFFFFFFFFFE0
FFFFFFFFFFE0
FFFFFFFFFFE0
FFFFFFFFFFE0
FFFFFFFFFFE0
FFFFFFFFFFE0
FF0000000000
FF0000000000
FF0000000000
FF0000000000
FF0000000000
FF0000000000
FF0000000000
FF0000000000
FF0000000000
FF0000000000
FF0000000000
FF0000000000
FF01FFFFFF80
FF01FFFFFF80
FF01FFFFFF80
FF01FFFFFF80
FF01FFFFFF80
FF01FFFFFF80
FF01FFFFFF80
FF0000000000
FF0000000000
FF0000000000
FF0000000000
FF0000000000
FF0000000000
FF0000000000
FF0000000000
FF0000000000
FF0000000000
FF0000000000
FF0000000000
FF0000000000
FFFFFFFFFFE0
FFFFFFFFFFE0
FFFFFFFFFFE0
FFFFFFFFFFE0
FFFFFFFFFFE0
FFFFFFFFFFE0
FFFFFFFFFFE0
FFFFFFFFFFE0
ENDCHAR
STARTCHAR igrave
ENCODING 236
SWIDTH 267 0
DWIDTH 18 0
BBX 17 60 -2 0
BITMAP
C00000
F80000
FF0000
FFF000
FFFE00
7FFF80
03FF80
003F80
000180
000000
000000
000000
01FE00
01FE00
01FE00
01FE00
01FE00
01FE00
01FE00
01FE00
01FE00
01FE00
01FE00
01FE00
01FE00
01FE00
01FE00
01FE00
01FE00
01FE00
01FE00
01FE00
01FE00
01FE00
01FE00
01FE00
01FE00
01FE00
01FE00
01FE00
01FE00
01FE00
01FE00
01FE00
01FE00
01FE00
01FE00
01FE00
01FE00
01FE00
01FE00
01FE00
01FE00
01FE00
01FE00
01FE00
01FE00
01FE00
01FE00
01FE00
ENDCHAR
STARTCHAR iacute
ENCODING 237
SWIDTH 267 0
DWIDTH 18 0
BBX 17 60 2 0
BITMAP
000080
000780
003F80
03FF80
1FFF80
FFFF80
FFF000
FF0000
E00000
000000
000000
000000
1FE000
1FE000
1FE000
1FE000
1FE000
1FE000
1FE000
1FE000
1FE000
1FE000
1FE000
1FE000
1FE000
1FE000
1FE000
1FE000
1FE000
1FE000
1FE000
1FE000
1FE000
1FE000
1FE000
1FE000
1FE000
1FE000
1FE000
1FE000
1FE000
1FE000
1FE000
1FE000
1FE000
1FE000
1FE000
1FE000
1FE000
1FE000
1FE000
1FE000
1FE000
1FE000
1FE000
1FE000
1FE000
1FE000
1FE000
1FE000
ENDCHAR
STARTCHAR icircumflex
ENCODING 238
SWIDTH 267 0
DWIDTH 18 0
BBX 18 59 0 0
BITMAP
07F000
07F800
0F7C00
1F3C00
1E1E00
3C1F00
7C0F80
780780
F007C0
000000
000000
07F800
07F800
07F800
07F800
07F800
07F800
07F800
07F800
07F800
07F800
07F800
07F800
07F800
07F800
07F800
07F800
07F800
07F800
07F800
07F800
07F800
07F800
07F800
07F800
07F800
07F800
07F800
07F800
07F800
07F800
07F800
07F800
07F800
07F800
07F800
07F800
07F800
07F800
07F800
07F800
07F800
07F800
07F800
07F800
07F800
07F800
07F800
07F800
ENDCHAR
STARTCHAR idieresis
ENCODING 239
SWIDTH 267 0
DWIDTH 18 0
BBX 19 59 -1 0
BITMAP
3C03C0
7E07E0
FE07E0
FE07E0
7E07E0
3C03C0
000000
000000
000000
000000
000000
03FC00
03FC00
03FC00
03FC00
03FC00
03FC00
03FC00
03FC00
03FC00
03FC00
03FC00
03FC00
03FC00
03FC00
03FC00
03FC00
03FC00
03FC00
03FC00
03FC00
03FC00
03FC00
03FC00
03FC00
03FC00
03FC00
03FC00
03FC00
03FC00
03FC00
03FC00
03FC00
03FC00
03FC00
03FC00
03FC00
03FC00
03FC00
03FC00
03FC00
03FC00
03FC00
03FC00
03FC00
03FC00
03FC00
03FC00
03FC00
ENDCHAR
STARTCHAR eth
ENCODING 240
SWIDTH 877 0
DWIDTH 58 0
BBX 54 48 1 0
BITMAP
1FFFFFFFF00000
1FFFFFFFFF0000
1FFFFFFFFFC000
1FFFFFFFFFF000
1FFFFFFFFFF800
1FFFFFFFFFFC00
1FFFFFFFFFFF00
1FFFFFFFFFFF80
1FE00000FFFF80
1FE0000007FFC0
1FE0000001FFE0
1FE0000000FFE0
1FE00000007FF0
1FE00000003FF0
1FE00000001FF8
1FE00000000FF8
1FE00000000FF8
1FE000000007FC
1FE000000007FC
1FE000000007FC
FFFFFFFC0007FC
FFFFFFFC0003FC
FFFFFFFC0003FC
FFFFFFFC0003FC
FFFFFFFC0003FC
FFFFFFFC0003FC
FFFFFFFC0003FC
1FE000000007FC
1FE000000007FC
1FE000000007FC
1FE000000007F8
1FE00000000FF8
1FE00000000FF8
1FE00000001FF0
1FE00000003FF0
1FE00000007FE0
1FE0000000FFE0
1FE0000001FFC0
1FE0000007FFC0
1FE00000FFFF80
1FFFFFFFFFFF00
1FFFFFFFFFFE00
1FFFFFFFFFFC00
1FFFFFFFFFF800
1FFFFFFFFFE000
1FFFFFFFFF8000
1FFFFFFFFE0000
1FFFFFFFF00000
ENDCHAR
STARTCHAR ntilde
ENCODING 241
SWIDTH 873 0
DWIDTH 58 0
BBX 50 58 4 0
BITMAP
00003E00400000
0000FFC1800000
0000FFFF800000
0000FFFF800000
0000C1FF800000
0000803F000000
00000000000000
00000000000000
00000000000000
00000000000000
3C000000003FC0
7F000000003FC0
FF800000003FC0
FFC00000003FC0
FFE00000003FC0
FFF00000003FC0
FFF80000003FC0
FFFC0000003FC0
FFFE0000003FC0
FFFF0000003FC0
FFFF8000003FC0
FFFFC000003FC0
FFFFE000003FC0
FFFFF000003FC0
FF7FF800003FC0
FF3FFC00003FC0
FF1FFE00003FC0
FF0FFF00003FC0
FF07FF80003FC0
FF03FFC0003FC0
FF01FFE0003FC0
FF00FFF0003FC0
FF007FF8003FC0
FF003FFC003FC0
FF001FFE003FC0
FF000FFF003FC0
FF0007FF803FC0
FF0003FFC03FC0
FF0001FFE03FC0
FF0000FFF03FC0
FF00007FF83FC0
FF00003FFC3FC0
FF00000FFE3FC0
FF000007FF3FC0
FF000003FFBFC0
FF000001FFFFC0
FF000000FFFFC0
FF0000007FFFC0
FF0000003FFFC0
FF0000001FFFC0
FF0000000FFFC0
FF00000007FFC0
FF00000003FFC0
FF00000001FFC0
FF00000000FFC0
FF000000007F80
FF000000003F80
FF000000001E00
ENDCHAR
STARTCHAR ograve
ENCODING 242
SWIDTH 968 0
DWIDTH 64 0
BBX 58 60 3 0
BITMAP
0000100000000000
00001E0000000000
00001FC000000000
00001FFC00000000
00001FFF80000000
00001FFFE0000000
000000FFE0000000
0000000FE0000000
0000000060000000
0000000000000000
0000000000000000
0000000000000000
00003FFFFF000000
0003FFFFFFF00000
000FFFFFFFFC0000
003FFFFFFFFF0000
007FFFFFFFFF8000
01FFFFFFFFFFE000
03FFFFFFFFFFF000
07FFFFFFFFFFF800
07FFFC000FFFF800
0FFF8000007FFC00
1FFE0000001FFE00
1FFC0000000FFE00
3FF800000007FF00
3FF000000003FF00
7FE000000001FF80
7FC000000000FF80
7FC000000000FF80
FF80000000007FC0
FF80000000007FC0
FF80000000007FC0
FF00000000003FC0
FF00000000003FC0
FF00000000003FC0
FF00000000003FC0
FF00000000003FC0
FF00000000003FC0
FF00000000003FC0
FF80000000007FC0
FF80000000007FC0
FF80000000007FC0
7F80000000007F80
7FC000000000FF80
7FC000000000FF80
3FE000000001FF00
3FF000000003FF00
1FF800000007FE00
1FFC0000000FFE00
0FFE0000001FFC00
0FFF8000007FFC00
07FFFC000FFFF800
03FFFFFFFFFFF000
01FFFFFFFFFFE000
00FFFFFFFFFFC000
007FFFFFFFFF8000
001FFFFFFFFE0000
000FFFFFFFF80000
0001FFFFFFE00000
00003FFFFF000000
ENDCHAR
STARTCHAR oacute
ENCODING 243
SWIDTH 968 0
DWIDTH 64 0
BBX 58 60 3 0
BITMAP
0000000002000000
000000001E000000
00000000FE000000
0000000FFE000000
0000007FFE000000
000003FFFE000000
000003FFC0000000
000003FC00000000
0000038000000000
0000000000000000
0000000000000000
0000000000000000
00003FFFFF000000
0003FFFFFFF00000
000FFFFFFFFC0000
003FFFFFFFFF0000
007FFFFFFFFF8000
01FFFFFFFFFFE000
03FFFFFFFFFFF000
07FFFFFFFFFFF800
07FFFC000FFFF800
0FFF8000007FFC00
1FFE0000001FFE00
1FFC0000000FFE00
3FF800000007FF00
3FF000000003FF00
7FE000000001FF80
7FC000000000FF80
7FC000000000FF80
FF80000000007FC0
FF80000000007FC0
FF80000000007FC0
FF00000000003FC0
FF00000000003FC0
FF00000000003FC0
FF00000000003FC0
FF00000000003FC0
FF00000000003FC0
FF00000000003FC0
FF80000000007FC0
FF80000000007FC0
FF80000000007FC0
7F80000000007F80
7FC000000000FF80
7FC000000000FF80
3FE000000001FF00
3FF000000003FF00
1FF800000007FE00
1FFC0000000FFE00
0FFE0000001FFC00
0FFF8000007FFC00
07FFFC000FFFF800
03FFFFFFFFFFF000
01FFFFFFFFFFE000
00FFFFFFFFFFC000
007FFFFFFFFF8000
001FFFFFFFFE0000
000FFFFFFFF80000
0001FFFFFFE00000
00003FFFFF000000
ENDCHAR
STARTCHAR ocircumflex
ENCODING 244
SWIDTH 968 0
DWIDTH 64 0
BBX 58 59 3 0
BITMAP
0000007F00000000
0000007F80000000
000000F7C0000000
000001F3C0000000
000001E1E0000000
000003C1F0000000
000007C0F8000000
0000078078000000
00000F007C000000
0000000000000000
0000000000000000
00003FFFFF000000
0003FFFFFFF00000
000FFFFFFFFC0000
003FFFFFFFFF0000
007FFFFFFFFF8000
01FFFFFFFFFFE000
03FFFFFFFFFFF000
07FFFFFFFFFFF800
07FFFC000FFFF800
0FFF8000007FFC00
1FFE0000001FFE00
1FFC0000000FFE00
3FF800000007FF00
3FF000000003FF00
7FE000000001FF80
7FC000000000FF80
7FC000000000FF80
FF80000000007FC0
FF80000000007FC0
FF80000000007FC0
FF00000000003FC0
FF00000000003FC0
FF00000000003FC0
FF00000000003FC0
FF00000000003FC0
FF00000000003FC0
FF00000000003FC0
FF80000000007FC0
FF80000000007FC0
FF80000000007FC0
7F80000000007F80
7FC000000000FF80
7FC000000000FF80
3FE000000001FF00
3FF000000003FF00
1FF800000007FE00
1FFC0000000FFE00
0FFE0000001FFC00
0FFF8000007FFC00
07FFFC000FFFF800
03FFFFFFFFFFF000
01FFFFFFFFFFE000
00FFFFFFFFFFC000
007FFFFFFFFF8000
001FFFFFFFFE0000
000FFFFFFFF80000
0001FFFFFFE00000
00003FFFFF000000
ENDCHAR
STARTCHAR otilde
ENCODING 245
SWIDTH 968 0
DWIDTH 64 0
BBX 58 58 3 0
BITMAP
000003E004000000
00000FFC18000000
00000FFFF8000000
00000FFFF8000000
00000C0FF8000000
00000803F0000000
0000000000000000
0000000000000000
0000000000000000
0000000000000000
00003FFFFF000000
0003FFFFFFF00000
000FFFFFFFFC0000
003FFFFFFFFF0000
007FFFFFFFFF8000
01FFFFFFFFFFE000
03FFFFFFFFFFF000
07FFFFFFFFFFF800
07FFFC000FFFF800
0FFF8000007FFC00
1FFE0000001FFE00
1FFC0000000FFE00
3FF800000007FF00
3FF000000003FF00
7FE000000001FF80
7FC000000000FF80
7FC000000000FF80
FF80000000007FC0
FF80000000007FC0
FF80000000007FC0
FF00000000003FC0
FF00000000003FC0
FF00000000003FC0
FF00000000003FC0
FF00000000003FC0
FF00000000003FC0
FF00000000003FC0
FF80000000007FC0
FF80000000007FC0
FF80000000007FC0
7F80000000007F80
7FC000000000FF80
7FC000000000FF80
3FE000000001FF00
3FF000000003FF00
1FF800000007FE00
1FFC0000000FFE00
0FFE0000001FFC00
0FFF8000007FFC00
07FFFC000FFFF800
03FFFFFFFFFFF000
01FFFFFFFFFFE000
00FFFFFFFFFFC000
007FFFFFFFFF8000
001FFFFFFFFE0000
000FFFFFFFF80000
0001FFFFFFE00000
00003FFFFF000000
ENDCHAR
STARTCHAR odieresis
ENCODING 246
SWIDTH 968 0
DWIDTH 64 0
BBX 58 59 3 0
BITMAP
0000078078000000
00000FC0FC000000
00001FC0FC000000
00001FC0FC000000
00000FC0FC000000
0000078078000000
0000000000000000
0000000000000000
0000000000000000
0000000000000000
0000000000000000
00003FFFFF000000
0003FFFFFFF00000
000FFFFFFFFC0000
003FFFFFFFFF0000
007FFFFFFFFF8000
01FFFFFFFFFFE000
03FFFFFFFFFFF000
07FFFFFFFFFFF800
07FFFC000FFFF800
0FFF8000007FFC00
1FFE0000001FFE00
1FFC0000000FFE00
3FF800000007FF00
3FF000000003FF00
7FE000000001FF80
7FC000000000FF80
7FC000000000FF80
FF80000000007FC0
FF80000000007FC0
FF80000000007FC0
FF00000000003FC0
FF00000000003FC0
FF00000000003FC0
FF00000000003FC0
FF00000000003FC0
FF00000000003FC0
FF00000000003FC0
FF80000000007FC0
FF80000000007FC0
FF80000000007FC0
7F80000000007F80
7FC000000000FF80
7FC000000000FF80
3FE000000001FF00
3FF000000003FF00
1FF800000007FE00
1FFC0000000FFE00
0FFE0000001FFC00
0FFF8000007FFC00
07FFFC000FFFF800
03FFFFFFFFFFF000
01FFFFFFFFFFE000
00FFFFFFFFFFC000
007FFFFFFFFF8000
001FFFFFFFFE0000
000FFFFFFFF80000
0001FFFFFFE00000
00003FFFFF000000
ENDCHAR
STARTCHAR divide
ENCODING 247
SWIDTH 690 0
DWIDTH 46 0
BBX 37 43 4 3
BITMAP
0000FC0000
0001FE0000
0003FE0000
0003FE0000
0003FE0000
0001FE0000
0001FC0000
0000F80000
0000000000
0000000000
0000000000
0000000000
0000000000
0000000000
0000000000
0000000000
0000000000
0000000000
FFFFFFFFF8
FFFFFFFFF8
FFFFFFFFF8
FFFFFFFFF8
FFFFFFFFF8
FFFFFFFFF8
0000000000
0000000000
0000000000
0000000000
0000000000
0000000000
0000000000
0000000000
0000000000
0000000000
0000000000
0000FC0000
0001FE0000
0003FE0000
0003FE0000
0003FE0000
0001FE0000
0001FC0000
0000F80000
ENDCHAR
STARTCHAR oslash
ENCODING 248
SWIDTH 968 0
DWIDTH 64 0
BBX 58 54 3 -3
BITMAP
0000000000002000
0000000000007800
000000000000F000
00003FFFFF01F000
0003FFFFFFF3E000
000FFFFFFFFFC000
003FFFFFFFFF8000
007FFFFFFFFF8000
01FFFFFFFFFFC000
03FFFFFFFFFFF000
07FFFFFFFFFFF800
07FFFC000FFFF800
0FFF800000FFFC00
1FFE000001FFFE00
1FFC000003CFFE00
3FF800000787FF00
3FF000000F83FF00
7FE000001F01FF80
7FC000003E00FF80
7FC000003C00FF80
FF80000078007FC0
FF800000F0007FC0
FF800001E0007FC0
FF000003E0003FC0
FF000007C0003FC0
FF00000F80003FC0
FF00000F00003FC0
FF00001E00003FC0
FF00003C00003FC0
FF00007C00003FC0
FF0000F800007FC0
FF8001F000007FC0
FF8001E000007FC0
7F8003C000007F80
7FC007800000FF80
7FC00F000000FF80
3FE01F000001FF00
3FF03E000003FF00
1FF87C000007FF00
1FFC7800000FFE00
0FFEF000001FFC00
0FFFE000007FFC00
07FFF8000FFFF800
03FFFFFFFFFFF000
01FFFFFFFFFFE000
00FFFFFFFFFFC000
007FFFFFFFFF8000
003FFFFFFFFE0000
007FFFFFFFF80000
00F9FFFFFFE00000
01F03FFFFF000000
03E0000000000000
03C0000000000000
0080000000000000
ENDCHAR
STARTCHAR ugrave
ENCODING 249
SWIDTH 889 0
DWIDTH 59 0
BBX 52 61 3 -1
BITMAP
00008000000000
0000F000000000
0000FF00000000
0000FFE0000000
0000FFFC000000
0000FFFF800000
000007FF800000
0000003F800000
00000003800000
00000000000000
00000000000000
00000000000000
FF800000000FF0
FF800000000FF0
FF800000000FF0
FF800000000FF0
FF800000000FF0
FF800000000FF0
FF800000000FF0
FF800000000FF0
FF800000000FF0
FF800000000FF0
FF800000000FF0
FF800000000FF0
FF800000000FF0
FF800000000FF0
FF800000000FF0
FF800000000FF0
FF800000000FF0
FF800000000FF0
FF800000000FF0
FF800000000FF0
FF800000000FF0
FF800000000FF0
FF800000000FF0
FF800000000FF0
FF800000000FF0
FF800000000FF0
FF800000000FF0
FF800000000FF0
FF800000000FF0
FF800000000FF0
7F800000000FF0
7F800000000FF0
7FC00000001FF0
7FC00000001FF0
7FE00000001FE0
7FE00000003FE0
3FF00000007FE0
3FF8000000FFE0
1FFC000001FFC0
1FFF80000FFFC0
0FFFFF03FFFF80
0FFFFFFFFFFF00
07FFFFFFFFFE00
03FFFFFFFFFC00
01FFFFFFFFF800
007FFFFFFFF000
001FFFFFFFC000
0003FFFFFE0000
00001FFFC00000
ENDCHAR
STARTCHAR uacute
ENCODING 250
SWIDTH 889 0
DWIDTH 59 0
BBX 52 61 3 -1
BITMAP
00000000080000
00000000F80000
00000007F80000
0000003FF80000
000003FFF80000
00000FFFF00000
00000FFF000000
00000FE0000000
00000C00000000
00000000000000
00000000000000
00000000000000
FF800000000FF0
FF800000000FF0
FF800000000FF0
FF800000000FF0
FF800000000FF0
FF800000000FF0
FF800000000FF0
FF800000000FF0
FF800000000FF0
FF800000000FF0
FF800000000FF0
FF800000000FF0
FF800000000FF0
FF800000000FF0
FF800000000FF0
FF800000000FF0
FF800000000FF0
FF800000000FF0
FF800000000FF0
FF800000000FF0
FF800000000FF0
FF800000000FF0
FF800000000FF0
FF800000000FF0
FF800000000FF0
FF800000000FF0
FF800000000FF0
FF800000000FF0
FF800000000FF0
FF800000000FF0
7F800000000FF0
7F800000000FF0
7FC00000001FF0
7FC00000001FF0
7FE00000001FE0
7FE00000003FE0
3FF00000007FE0
3FF8000000FFE0
1FFC000001FFC0
1FFF80000FFFC0
0FFFFF03FFFF80
0FFFFFFFFFFF00
07FFFFFFFFFE00
03FFFFFFFFFC00
01FFFFFFFFF800
007FFFFFFFF000
001FFFFFFFC000
0003FFFFFE0000
00001FFFC00000
ENDCHAR
STARTCHAR ucircumflex
ENCODING 251
SWIDTH 889 0
DWIDTH 59 0
BBX 52 60 3 -1
BITMAP
000001FC000000
000003FE000000
000007DE000000
0000078F000000
00000F0F800000
00001F07800000
00001E07C00000
00003E03E00000
00007C01E00000
00000000000000
00000000000000
FF800000000FF0
FF800000000FF0
FF800000000FF0
FF800000000FF0
FF800000000FF0
FF800000000FF0
FF800000000FF0
FF800000000FF0
FF800000000FF0
FF800000000FF0
FF800000000FF0
FF800000000FF0
FF800000000FF0
FF800000000FF0
FF800000000FF0
FF800000000FF0
FF800000000FF0
FF800000000FF0
FF800000000FF0
FF800000000FF0
FF800000000FF0
FF800000000FF0
FF800000000FF0
FF800000000FF0
FF800000000FF0
FF800000000FF0
FF800000000FF0
FF800000000FF0
FF800000000FF0
FF800000000FF0
7F800000000FF0
7F800000000FF0
7FC00000001FF0
7FC00000001FF0
7FE00000001FE0
7FE00000003FE0
3FF00000007FE0
3FF8000000FFE0
1FFC000001FFC0
1FFF80000FFFC0
0FFFFF03FFFF80
0FFFFFFFFFFF00
07FFFFFFFFFE00
03FFFFFFFFFC00
01FFFFFFFFF800
007FFFFFFFF000
001FFFFFFFC000
0003FFFFFE0000
00001FFFC00000
ENDCHAR
STARTCHAR udieresis
ENCODING 252
SWIDTH 889 0
DWIDTH 59 0
BBX 52 60 3 -1
BITMAP
00003C03C00000
00007E07E00000
00007F07F00000
00007F07F00000
00007E07E00000
00003C03C00000
00000000000000
00000000000000
00000000000000
00000000000000
00000000000000
FF800000000FF0
FF800000000FF0
FF800000000FF0
FF800000000FF0
FF800000000FF0
FF800000000FF0
FF800000000FF0
FF800000000FF0
FF800000000FF0
FF800000000FF0
FF800000000FF0
FF800000000FF0
FF800000000FF0
FF800000000FF0
FF800000000FF0
FF800000000FF0
FF800000000FF0
FF800000000FF0
FF800000000FF0
FF800000000FF0
FF800000000FF0
FF800000000FF0
FF800000000FF0
FF800000000FF0
FF800000000FF0
FF800000000FF0
FF800000000FF0
FF800000000FF0
FF800000000FF0
FF800000000FF0
7F800000000FF0
7F800000000FF0
7FC00000001FF0
7FC00000001FF0
7FE00000001FE0
7FE00000003FE0
3FF00000007FE0
3FF8000000FFE0
1FFC000001FFC0
1FFF80000FFFC0
0FFFFF03FFFF80
0FFFFFFFFFFF00
07FFFFFFFFFE00
03FFFFFFFFFC00
01FFFFFFFFF800
007FFFFFFFF000
001FFFFFFFC000
0003FFFFFE0000
00001FFFC00000
ENDCHAR
STARTCHAR yacute
ENCODING 253
SWIDTH 926 0
DWIDTH 61 0
BBX 59 60 1 0
BITMAP
0000000001000000
000000000F000000
000000007F000000
00000007FF000000
0000003FFF000000
000001FFFF000000
000001FFE0000000
000001FE00000000
000001C000000000
0000000000000000
0000000000000000
0000000000000000
FFF000000000FFE0
7FF000000001FFC0
3FF800000003FF80
1FFC00000003FF00
0FFE00000007FE00
07FF0000000FFE00
07FF8000001FFC00
03FF8000003FF800
01FFC000007FF000
00FFE000007FE000
007FF00000FFC000
003FF80001FF8000
001FFC0003FF8000
001FFE0007FF0000
000FFE000FFE0000
0007FF001FFC0000
0003FF801FF80000
0001FFC03FF00000
0000FFE07FE00000
00007FF0FFE00000
00007FF1FFC00000
00003FFBFF800000
00001FFFFF000000
00000FFFFE000000
000007FFFC000000
000003FFF8000000
000001FFF8000000
000001FFF0000000
000000FFE0000000
0000007FC0000000
0000007FC0000000
0000007FC0000000
0000007FC0000000
0000007FC0000000
0000007FC0000000
0000007FC0000000
0000007FC0000000
0000007FC0000000
0000007FC0000000
0000007FC0000000
0000007FC0000000
0000007FC0000000
0000007FC0000000
0000007FC0000000
0000007FC0000000
0000007FC0000000
0000007FC0000000
0000007FC0000000
ENDCHAR
STARTCHAR thorn
ENCODING 254
SWIDTH 843 0
DWIDTH 56 0
BBX 50 48 4 0
BITMAP
FF000000000000
FF000000000000
FF000000000000
FF000000000000
FF000000000000
FF000000000000
FF000000000000
FFFFFFFFFC0000
FFFFFFFFFF8000
FFFFFFFFFFE000
FFFFFFFFFFF000
FFFFFFFFFFF800
FFFFFFFFFFFC00
FFFFFFFFFFFE00
FFFFFFFFFFFE00
FF0000001FFF00
FF00000003FF00
FF00000001FF80
FF00000000FF80
FF00000000FF80
FF000000007F80
FF000000007FC0
FF000000007FC0
FF000000007FC0
FF000000007FC0
FF000000007FC0
FF000000007FC0
FF000000007F80
FF000000007F80
FF00000000FF80
FF00000001FF80
FF00000003FF00
FF00000007FF00
FF0000003FFF00
FF01FFFFFFFE00
FF01FFFFFFFC00
FF01FFFFFFFC00
FF01FFFFFFF800
FF01FFFFFFE000
FF01FFFFFFC000
FF01FFFFFF0000
FF01FFFFF80000
FF000000000000
FF000000000000
FF000000000000
FF000000000000
FF000000000000
FF000000000000
ENDCHAR
STARTCHAR ydieresis
ENCODING 255
SWIDTH 926 0
DWIDTH 61 0
BBX 59 59 1 0
BITMAP
000003C03C000000
000007E07E000000
00000FE07E000000
00000FE07E000000
000007E07E000000
000003C03C000000
0000000000000000
0000000000000000
0000000000000000
0000000000000000
0000000000000000
FFF000000000FFE0
7FF000000001FFC0
3FF800000003FF80
1FFC00000003FF00
0FFE00000007FE00
07FF0000000FFE00
07FF8000001FFC00
03FF8000003FF800
01FFC000007FF000
00FFE000007FE000
007FF00000FFC000
003FF80001FF8000
001FFC0003FF8000
001FFE0007FF0000
000FFE000FFE0000
0007FF001FFC0000
0003FF801FF80000
0001FFC03FF00000
0000FFE07FE00000
00007FF0FFE00000
00007FF1FFC00000
00003FFBFF800000
00001FFFFF000000
00000FFFFE000000
000007FFFC000000
000003FFF8000000
000001FFF8000000
000001FFF0000000
000000FFE0000000
0000007FC0000000
0000007FC0000000
0000007FC0000000
0000007FC0000000
0000007FC0000000
0000007FC0000000
0000007FC0000000
0000007FC0000000
0000007FC0000000
0000007FC0000000
0000007FC0000000
0000007FC0000000
0000007FC0000000
0000007FC0000000
0000007FC0000000
0000007FC0000000
0000007FC0000000
0000007FC0000000
0000007FC0000000
ENDCHAR
STARTCHAR Amacron
ENCODING 256
SWIDTH 989 0
DWIDTH 65 0
BBX 63 58 1 0
BITMAP
000001FFFF000000
000001FFFF000000
000001FFFF000000
000001FFFF000000
0000000000000000
0000000000000000
0000000000000000
0000000000000000
0000000000000000
0000000100000000
00000007C0000000
0000000FE0000000
0000001FF0000000
0000001FF0000000
0000003FF8000000
0000003FFC000000
0000007FFC000000
000000FFFE000000
000000FFFE000000
000001FFFF000000
000003FFFF800000
000003FFFF800000
000007FEFFC00000
000007FC7FC00000
00000FF87FE00000
00001FF83FF00000
00001FF03FF00000
00003FF01FF80000
00003FE00FF80000
00007FC00FFC0000
0000FFC007FE0000
0000FF8007FE0000
0001FF8003FF0000
0001FF0001FF0000
0003FE0001FF8000
0007FE0000FFC000
0007FC0000FFC000
000FFC00007FE000
000FF800003FE000
001FF01FFFFFF000
003FF03FFFFFF800
003FE03FFFFFF800
007FE07FFFFFFC00
007FC07FFFFFFE00
00FFC0FFFFFFFE00
01FF81FFFFFFFF00
01FF00000003FF00
03FF00000001FF80
03FE00000001FFC0
07FE00000000FFC0
0FFC000000007FE0
0FF8000000007FE0
1FF8000000003FF0
1FF0000000003FF8
3FF0000000001FF8
7FE0000000000FFC
7FC0000000000FFC
FFC00000000007FE
ENDCHAR
STARTCHAR amacron
ENCODING 257
SWIDTH 989 0
DWIDTH 65 0
BBX 63 58 1 0
BITMAP
000001FFFF000000
000001FFFF000000
000001FFFF000000
000001FFFF000000
0000000000000000
0000000000000000
0000000000000000
0000000000000000
0000000000000000
0000000100000000
00000007C0000000
0000000FE0000000
0000001FF0000000
0000001FF0000000
0000003FF8000000
0000003FFC000000
0000007FFC000000
000000FFFE000000
000000FFFE000000
000001FFFF000000
000003FFFF800000
000003FFFF800000
000007FEFFC00000
000007FC7FC00000
00000FF87FE00000
00001FF83FF00000
00001FF03FF00000
00003FF01FF80000
00003FE00FF80000
00007FC00FFC0000
0000FFC007FE0000
0000FF8007FE0000
0001FF8003FF0000
0001FF0001FF0000
0003FE0001FF8000
0007FE0000FFC000
0007FC0000FFC000
000FFC00007FE000
000FF800003FE000
001FF01FFFFFF000
003FF03FFFFFF800
003FE03FFFFFF800
007FE07FFFFFFC00
007FC07FFFFFFE00
00FFC0FFFFFFFE00
01FF81FFFFFFFF00
01FF00000003FF00
03FF00000001FF80
03FE00000001FFC0
07FE00000000FFC0
0FFC000000007FE0
0FF8000000007FE0
1FF8000000003FF0
1FF0000000003FF8
3FF0000000001FF8
7FE0000000000FFC
7FC0000000000FFC
FFC00000000007FE
ENDCHAR
STARTCHAR Abreve
ENCODING 258
SWIDTH 989 0
DWIDTH 65 0
BBX 63 60 1 0
BITMAP
000003E00F800000
000001E00F800000
000001E00F000000
000001F00F000000
000000F01F000000
000000F83E000000
0000007FFE000000
0000003FFC000000
0000001FF0000000
0000000000000000
0000000000000000
0000000100000000
00000007C0000000
0000000FE0000000
0000001FF0000000
0000001FF0000000
0000003FF8000000
0000003FFC000000
0000007FFC000000
000000FFFE000000
000000FFFE000000
000001FFFF000000
000003FFFF800000
000003FFFF800000
000007FEFFC00000
000007FC7FC00000
00000FF87FE00000
00001FF83FF00000
00001FF03FF00000
00003FF01FF80000
00003FE00FF80000
00007FC00FFC0000
0000FFC007FE0000
0000FF8007FE0000
0001FF8003FF0000
0001FF0001FF0000
0003FE0001FF8000
0007FE0000FFC000
0007FC0000FFC000
000FFC00007FE000
000FF800003FE000
001FF01FFFFFF000
003FF03FFFFFF800
003FE03FFFFFF800
007FE07FFFFFFC00
007FC07FFFFFFE00
00FFC0FFFFFFFE00
01FF81FFFFFFFF00
01FF00000003FF00
03FF00000001FF80
03FE00000001FFC0
07FE00000000FFC0
0FFC000000007FE0
0FF8000000007FE0
1FF8000000003FF0
1FF0000000003FF8
3FF0000000001FF8
7FE0000000000FFC
7FC0000000000FFC
FFC00000000007FE
ENDCHAR
STARTCHAR abreve
ENCODING 259
SWIDTH 989 0
DWIDTH 65 0
BBX 63 60 1 0
BITMAP
000003E00F800000
000001E00F800000
000001E00F000000
000001F00F000000
000000F01F000000
000000F83E000000
0000007FFE000000
0000003FFC000000
0000001FF0000000
0000000000000000
0000000000000000
0000000100000000
00000007C0000000
0000000FE0000000
0000001FF0000000
0000001FF0000000
0000003FF8000000
0000003FFC000000
0000007FFC000000
000000FFFE000000
000000FFFE000000
000001FFFF000000
000003FFFF800000
000003FFFF800000
000007FEFFC00000
000007FC7FC00000
00000FF87FE00000
00001FF83FF00000
00001FF03FF00000
00003FF01FF80000
00003FE00FF80000
00007FC00FFC0000
0000FFC007FE0000
0000FF8007FE0000
0001FF8003FF0000
0001FF0001FF0000
0003FE0001FF8000
0007FE0000FFC000
0007FC0000FFC000
000FFC00007FE000
000FF800003FE000
001FF01FFFFFF000
003FF03FFFFFF800
003FE03FFFFFF800
007FE07FFFFFFC00
007FC07FFFFFFE00
00FFC0FFFFFFFE00
01FF81FFFFFFFF00
01FF00000003FF00
03FF00000001FF80
03FE00000001FFC0
07FE00000000FFC0
0FFC000000007FE0
0FF8000000007FE0
1FF8000000003FF0
1FF0000000003FF8
3FF0000000001FF8
7FE0000000000FFC
7FC0000000000FFC
FFC00000000007FE
ENDCHAR
STARTCHAR Aogonek
ENCODING 260
SWIDTH 989 0
DWIDTH 65 0
BBX 63 62 1 -13
BITMAP
0000000100000000
00000007C0000000
0000000FE0000000
0000001FF0000000
0000001FF0000000
0000003FF8000000
0000003FFC000000
0000007FFC000000
000000FFFE000000
000000FFFE000000
000001FFFF000000
000003FFFF800000
000003FFFF800000
000007FEFFC00000
000007FC7FC00000
00000FF87FE00000
00001FF83FF00000
00001FF03FF00000
00003FF01FF80000
00003FE00FF80000
00007FC00FFC0000
0000FFC007FE0000
0000FF8007FE0000
0001FF8003FF0000
0001FF0001FF0000
0003FE0001FF8000
0007FE0000FFC000
0007FC0000FFC000
000FFC00007FE000
000FF800003FE000
001FF01FFFFFF000
003FF03FFFFFF800
003FE03FFFFFF800
007FE07FFFFFFC00
007FC07FFFFFFE00
00FFC0FFFFFFFE00
01FF81FFFFFFFF00
01FF00000003FF00
03FF00000001FF80
03FE00000001FFC0
07FE00000000FFC0
0FFC000000007FE0
0FF8000000007FE0
1FF8000000003FF0
1FF0000000003FF8
3FF0000000001FF8
7FE0000000000FFC
7FC0000000000FFC
FFC00000000007FE
000000000000001E
0000000000000078
00000000000001F0
00000000000003C0
0000000000000780
0000000000000F00
0000000000001F00
0000000000001F00
0000000000001FFE
0000000000001FFE
0000000000001FFE
0000000000000FFE
00000000000003FE
ENDCHAR
STARTCHAR aogonek
ENCODING 261
SWIDTH 989 0
DWIDTH 65 0
BBX 63 62 1 -13
BITMAP
0000000100000000
00000007C0000000
0000000FE0000000
0000001FF0000000
0000001FF0000000
0000003FF8000000
0000003FFC000000
0000007FFC000000
000000FFFE000000
000000FFFE000000
000001FFFF000000
000003FFFF800000
000003FFFF800000
000007FEFFC00000
000007FC7FC00000
00000FF87FE00000
00001FF83FF00000
00001FF03FF00000
00003FF01FF80000
00003FE00FF80000
00007FC00FFC0000
0000FFC007FE0000
0000FF8007FE0000
0001FF8003FF0000
0001FF0001FF0000
0003FE0001FF8000
0007FE0000FFC000
0007FC0000FFC000
000FFC00007FE000
000FF800003FE000
001FF01FFFFFF000
003FF03FFFFFF800
003FE03FFFFFF800
007FE07FFFFFFC00
007FC07FFFFFFE00
00FFC0FFFFFFFE00
01FF81FFFFFFFF00
01FF00000003FF00
03FF00000001FF80
03FE00000001FFC0
07FE00000000FFC0
0FFC000000007FE0
0FF8000000007FE0
1FF8000000003FF0
1FF0000000003FF8
3FF0000000001FF8
7FE0000000000FFC
7FC0000000000FFC
FFC00000000007FE
000000000000001E
0000000000000078
00000000000001F0
00000000000003C0
0000000000000780
0000000000000F00
0000000000001F00
0000000000001F00
0000000000001FFE
0000000000001FFE
0000000000001FFE
0000000000000FFE
00000000000003FE
ENDCHAR
STARTCHAR Cacute
ENCODING 262
SWIDTH 829 0
DWIDTH 55 0
BBX 49 60 3 0
BITMAP
00000000040000
000000003C0000
00000003FC0000
0000001FFC0000
000000FFFC0000
000007FFFC0000
000007FF800000
000007F0000000
00000700000000
00000000000000
00000000000000
00000000000000
00003FFFFFFF80
0003FFFFFFFF80
000FFFFFFFFF80
003FFFFFFFFF80
007FFFFFFFFF80
01FFFFFFFFFF80
03FFFFFFFFFF80
07FFFFFFFFFF80
07FFFC00000000
0FFF8000000000
1FFE0000000000
1FFC0000000000
3FF80000000000
3FF00000000000
7FE00000000000
7FC00000000000
7FC00000000000
FF800000000000
FF800000000000
FF800000000000
FF000000000000
FF000000000000
FF000000000000
FF000000000000
FF000000000000
FF000000000000
FF000000000000
FF800000000000
FF800000000000
FF800000000000
7F800000000000
7FC00000000000
7FC00000000000
3FE00000000000
3FF00000000000
1FF80000000000
1FFC0000000000
0FFE0000000000
0FFF8000000000
07FFFC00000000
03FFFFFFFFFF80
01FFFFFFFFFF80
00FFFFFFFFFF80
007FFFFFFFFF80
001FFFFFFFFF80
000FFFFFFFFF80
0001FFFFFFFF80
00003FFFFFFF80
ENDCHAR
STARTCHAR cacute
ENCODING 263
SWIDTH 829 0
DWIDTH 55 0
BBX 49 60 3 0
BITMAP
00000000040000
000000003C0000
00000003FC0000
0000001FFC0000
000000FFFC0000
000007FFFC0000
000007FF800000
000007F0000000
00000700000000
00000000000000
00000000000000
00000000000000
00003FFFFFFF80
0003FFFFFFFF80
000FFFFFFFFF80
003FFFFFFFFF80
007FFFFFFFFF80
01FFFFFFFFFF80
03FFFFFFFFFF80
07FFFFFFFFFF80
07FFFC00000000
0FFF8000000000
1FFE0000000000
1FFC0000000000
3FF80000000000
3FF00000000000
7FE00000000000
7FC00000000000
7FC00000000000
FF800000000000
FF800000000000
FF800000000000
FF000000000000
FF000000000000
FF000000000000
FF000000000000
FF000000000000
FF000000000000
FF000000000000
FF800000000000
FF800000000000
FF800000000000
7F800000000000
7FC00000000000
7FC00000000000
3FE00000000000
3FF00000000000
1FF80000000000
1FFC0000000000
0FFE0000000000
0FFF8000000000
07FFFC00000000
03FFFFFFFFFF80
01FFFFFFFFFF80
00FFFFFFFFFF80
007FFFFFFFFF80
001FFFFFFFFF80
000FFFFFFFFF80
0001FFFFFFFF80
00003FFFFFFF80
ENDCHAR
STARTCHAR Cdotaccent
ENCODING 266
SWIDTH 829 0
DWIDTH 55 0
BBX 49 59 3 0
BITMAP
0000003C000000
0000007E000000
0000007F000000
0000007F000000
0000007E000000
0000003C000000
00000000000000
00000000000000
00000000000000
00000000000000
00000000000000
00003FFFFFFF80
0003FFFFFFFF80
000FFFFFFFFF80
003FFFFFFFFF80
007FFFFFFFFF80
01FFFFFFFFFF80
03FFFFFFFFFF80
07FFFFFFFFFF80
07FFFC00000000
0FFF8000000000
1FFE0000000000
1FFC0000000000
3FF80000000000
3FF00000000000
7FE00000000000
7FC00000000000
7FC00000000000
FF800000000000
FF800000000000
FF800000000000
FF000000000000
FF000000000000
FF000000000000
FF000000000000
FF000000000000
FF000000000000
FF000000000000
FF800000000000
FF800000000000
FF800000000000
7F800000000000
7FC00000000000
7FC00000000000
3FE00000000000
3FF00000000000
1FF80000000000
1FFC0000000000
0FFE0000000000
0FFF8000000000
07FFFC00000000
03FFFFFFFFFF80
01FFFFFFFFFF80
00FFFFFFFFFF80
007FFFFFFFFF80
001FFFFFFFFF80
000FFFFFFFFF80
0001FFFFFFFF80
00003FFFFFFF80
ENDCHAR
STARTCHAR cdotaccent
ENCODING 267
SWIDTH 829 0
DWIDTH 55 0
BBX 49 59 3 0
BITMAP
0000003C000000
0000007E000000
0000007F000000
0000007F000000
0000007E000000
0000003C000000
00000000000000
00000000000000
00000000000000
00000000000000
00000000000000
00003FFFFFFF80
0003FFFFFFFF80
000FFFFFFFFF80
003FFFFFFFFF80
007FFFFFFFFF80
01FFFFFFFFFF80
03FFFFFFFFFF80
07FFFFFFFFFF80
07FFFC00000000
0FFF8000000000
1FFE0000000000
1FFC0000000000
3FF80000000000
3FF00000000000
7FE00000000000
7FC00000000000
7FC00000000000
FF800000000000
FF800000000000
FF800000000000
FF000000000000
FF000000000000
FF000000000000
FF000000000000
FF000000000000
FF000000000000
FF000000000000
FF800000000000
FF800000000000
FF800000000000
7F800000000000
7FC00000000000
7FC00000000000
3FE00000000000
3FF00000000000
1FF80000000000
1FFC0000000000
0FFE0000000000
0FFF8000000000
07FFFC00000000
03FFFFFFFFFF80
01FFFFFFFFFF80
00FFFFFFFFFF80
007FFFFFFFFF80
001FFFFFFFFF80
000FFFFFFFFF80
0001FFFFFFFF80
00003FFFFFFF80
ENDCHAR
STARTCHAR Ccaron
ENCODING 268
SWIDTH 829 0
DWIDTH 55 0
BBX 49 60 3 0
BITMAP
00001F00F80000
00000F01F00000
00000F81E00000
00000783C00000
000003C7C00000
000003E7800000
000001EF000000
000000FF000000
000000FE000000
00000000000000
00000000000000
00000000000000
00003FFFFFFF80
0003FFFFFFFF80
000FFFFFFFFF80
003FFFFFFFFF80
007FFFFFFFFF80
01FFFFFFFFFF80
03FFFFFFFFFF80
07FFFFFFFFFF80
07FFFC00000000
0FFF8000000000
1FFE0000000000
1FFC0000000000
3FF80000000000
3FF00000000000
7FE00000000000
7FC00000000000
7FC00000000000
FF800000000000
FF800000000000
FF800000000000
FF000000000000
FF000000000000
FF000000000000
FF000000000000
FF000000000000
FF000000000000
FF000000000000
FF800000000000
FF800000000000
FF800000000000
7F800000000000
7FC00000000000
7FC00000000000
3FE00000000000
3FF00000000000
1FF80000000000
1FFC0000000000
0FFE0000000000
0FFF8000000000
07FFFC00000000
03FFFFFFFFFF80
01FFFFFFFFFF80
00FFFFFFFFFF80
007FFFFFFFFF80
001FFFFFFFFF80
000FFFFFFFFF80
0001FFFFFFFF80
00003FFFFFFF80
ENDCHAR
STARTCHAR ccaron
ENCODING 269
SWIDTH 829 0
DWIDTH 55 0
BBX 49 60 3 0
BITMAP
00001F00F80000
00000F01F00000
00000F81E00000
00000783C00000
000003C7C00000
000003E7800000
000001EF000000
000000FF000000
000000FE000000
00000000000000
00000000000000
00000000000000
00003FFFFFFF80
0003FFFFFFFF80
000FFFFFFFFF80
003FFFFFFFFF80
007FFFFFFFFF80
01FFFFFFFFFF80
03FFFFFFFFFF80
07FFFFFFFFFF80
07FFFC00000000
0FFF8000000000
1FFE0000000000
1FFC0000000000
3FF80000000000
3FF00000000000
7FE00000000000
7FC00000000000
7FC00000000000
FF800000000000
FF800000000000
FF800000000000
FF000000000000
FF000000000000
FF000000000000
FF000000000000
FF000000000000
FF000000000000
FF000000000000
FF800000000000
FF800000000000
FF800000000000
7F800000000000
7FC00000000000
7FC00000000000
3FE00000000000
3FF00000000000
1FF80000000000
1FFC0000000000
0FFE0000000000
0FFF8000000000
07FFFC00000000
03FFFFFFFFFF80
01FFFFFFFFFF80
00FFFFFFFFFF80
007FFFFFFFFF80
001FFFFFFFFF80
000FFFFFFFFF80
0001FFFFFFFF80
00003FFFFFFF80
ENDCHAR
STARTCHAR Dcaron
ENCODING 270
SWIDTH 879 0
DWIDTH 58 0
BBX 51 60 4 0
BITMAP
0007C03E000000
0003E03C000000
0001E07C000000
0000F078000000
0000F8F0000000
000079F0000000
00003DE0000000
00003FC0000000
00001FC0000000
00000000000000
00000000000000
00000000000000
FFFFFFFF800000
FFFFFFFFF80000
FFFFFFFFFE0000
FFFFFFFFFF8000
FFFFFFFFFFC000
FFFFFFFFFFF000
FFFFFFFFFFF800
FFFFFFFFFFFC00
FF000007FFFC00
FF0000003FFE00
FF0000000FFF00
FF00000007FF00
FF00000003FF80
FF00000001FF80
FF00000000FFC0
FF000000007FC0
FF000000007FC0
FF000000003FE0
FF000000003FE0
FF000000003FE0
FF000000001FE0
FF000000001FE0
FF000000001FE0
FF000000001FE0
FF000000001FE0
FF000000001FE0
FF000000001FE0
FF000000001FE0
FF000000003FE0
FF000000003FE0
FF000000003FC0
FF000000007FC0
FF000000007FC0
FF00000000FF80
FF00000001FF80
FF00000003FF80
FF00000007FF00
FF0000000FFE00
FF0000003FFE00
FF000007FFFC00
FFFFFFFFFFF800
FFFFFFFFFFF000
FFFFFFFFFFE000
FFFFFFFFFFC000
FFFFFFFFFF0000
FFFFFFFFFE0000
FFFFFFFFF00000
FFFFFFFF800000
ENDCHAR
STARTCHAR dcaron
ENCODING 271
SWIDTH 879 0
DWIDTH 58 0
BBX 51 60 4 0
BITMAP
0007C03E000000
0003E03C000000
0001E07C000000
0000F078000000
0000F8F0000000
000079F0000000
00003DE0000000
00003FC0000000
00001FC0000000
00000000000000
00000000000000
00000000000000
FFFFFFFF800000
FFFFFFFFF80000
FFFFFFFFFE0000
FFFFFFFFFF8000
FFFFFFFFFFC000
FFFFFFFFFFF000
FFFFFFFFFFF800
FFFFFFFFFFFC00
FF000007FFFC00
FF0000003FFE00
FF0000000FFF00
FF00000007FF00
FF00000003FF80
FF00000001FF80
FF00000000FFC0
FF000000007FC0
FF000000007FC0
FF000000003FE0
FF000000003FE0
FF000000003FE0
FF000000001FE0
FF000000001FE0
FF000000001FE0
FF000000001FE0
FF000000001FE0
FF000000001FE0
FF000000001FE0
FF000000001FE0
FF000000003FE0
FF000000003FE0
FF000000003FC0
FF000000007FC0
FF000000007FC0
FF00000000FF80
FF00000001FF80
FF00000003FF80
FF00000007FF00
FF0000000FFE00
FF0000003FFE00
FF000007FFFC00
FFFFFFFFFFF800
FFFFFFFFFFF000
FFFFFFFFFFE000
FFFFFFFFFFC000
FFFFFFFFFF0000
FFFFFFFFFE0000
FFFFFFFFF00000
FFFFFFFF800000
ENDCHAR
STARTCHAR Dcroat
ENCODING 272
SWIDTH 877 0
DWIDTH 58 0
BBX 54 48 1 0
BITMAP
1FFFFFFFF00000
1FFFFFFFFF0000
1FFFFFFFFFC000
1FFFFFFFFFF000
1FFFFFFFFFF800
1FFFFFFFFFFC00
1FFFFFFFFFFF00
1FFFFFFFFFFF80
1FE00000FFFF80
1FE0000007FFC0
1FE0000001FFE0
1FE0000000FFE0
1FE00000007FF0
1FE00000003FF0
1FE00000001FF8
1FE00000000FF8
1FE00000000FF8
1FE000000007FC
1FE000000007FC
1FE000000007FC
FFFFFFFC0007FC
FFFFFFFC0003FC
FFFFFFFC0003FC
FFFFFFFC0003FC
FFFFFFFC0003FC
FFFFFFFC0003FC
FFFFFFFC0003FC
1FE000000007FC
1FE000000007FC
1FE000000007FC
1FE000000007F8
1FE00000000FF8
1FE00000000FF8
1FE00000001FF0
1FE00000003FF0
1FE00000007FE0
1FE0000000FFE0
1FE0000001FFC0
1FE0000007FFC0
1FE00000FFFF80
1FFFFFFFFFFF00
1FFFFFFFFFFE00
1FFFFFFFFFFC00
1FFFFFFFFFF800
1FFFFFFFFFE000
1FFFFFFFFF8000
1FFFFFFFFE0000
1FFFFFFFF00000
ENDCHAR
STARTCHAR dcroat
ENCODING 273
SWIDTH 877 0
DWIDTH 58 0
BBX 54 48 1 0
BITMAP
1FFFFFFFF00000
1FFFFFFFFF0000
1FFFFFFFFFC000
1FFFFFFFFFF000
1FFFFFFFFFF800
1FFFFFFFFFFC00
1FFFFFFFFFFF00
1FFFFFFFFFFF80
1FE00000FFFF80
1FE0000007FFC0
1FE0000001FFE0
1FE0000000FFE0
1FE00000007FF0
1FE00000003FF0
1FE00000001FF8
1FE00000000FF8
1FE00000000FF8
1FE000000007FC
1FE000000007FC
1FE000000007FC
FFFFFFFC0007FC
FFFFFFFC0003FC
FFFFFFFC0003FC
FFFFFFFC0003FC
FFFFFFFC0003FC
FFFFFFFC0003FC
FFFFFFFC0003FC
1FE000000007FC
1FE000000007FC
1FE000000007FC
1FE000000007F8
1FE00000000FF8
1FE00000000FF8
1FE00000001FF0
1FE00000003FF0
1FE00000007FE0
1FE0000000FFE0
1FE0000001FFC0
1FE0000007FFC0
1FE00000FFFF80
1FFFFFFFFFFF00
1FFFFFFFFFFE00
1FFFFFFFFFFC00
1FFFFFFFFFF800
1FFFFFFFFFE000
1FFFFFFFFF8000
1FFFFFFFFE0000
1FFFFFFFF00000
ENDCHAR
STARTCHAR Emacron
ENCODING 274
SWIDTH 759 0
DWIDTH 50 0
BBX 43 58 4 0
BITMAP
0007FFF80000
0007FFF80000
0007FFF80000
0007FFF80000
000000000000
000000000000
000000000000
000000000000
000000000000
000000000000
FFFFFFFFFFE0
FFFFFFFFFFE0
FFFFFFFFFFE0
FFFFFFFFFFE0
FFFFFFFFFFE0
FFFFFFFFFFE0
FFFFFFFFFFE0
FFFFFFFFFFE0
FF0000000000
FF0000000000
FF0000000000
FF0000000000
FF0000000000
FF0000000000
FF0000000000
FF0000000000
FF0000000000
FF0000000000
FF0000000000
FF0000000000
FF01FFFFFF80
FF01FFFFFF80
FF01FFFFFF80
FF01FFFFFF80
FF01FFFFFF80
FF01FFFFFF80
FF01FFFFFF80
FF0000000000
FF0000000000
FF0000000000
FF0000000000
FF0000000000
FF0000000000
FF0000000000
FF0000000000
FF0000000000
FF0000000000
FF0000000000
FF0000000000
FF0000000000
FFFFFFFFFFE0
FFFFFFFFFFE0
FFFFFFFFFFE0
FFFFFFFFFFE0
FFFFFFFFFFE0
FFFFFFFFFFE0
FFFFFFFFFFE0
FFFFFFFFFFE0
ENDCHAR
STARTCHAR emacron
ENCODING 275
SWIDTH 759 0
DWIDTH 50 0
BBX 43 58 4 0
BITMAP
0007FFF80000
0007FFF80000
0007FFF80000
0007FFF80000
000000000000
000000000000
000000000000
000000000000
000000000000
000000000000
FFFFFFFFFFE0
FFFFFFFFFFE0
FFFFFFFFFFE0
FFFFFFFFFFE0
FFFFFFFFFFE0
FFFFFFFFFFE0
FFFFFFFFFFE0
FFFFFFFFFFE0
FF0000000000
FF0000000000
FF0000000000
FF0000000000
FF0000000000
FF0000000000
FF0000000000
FF0000000000
FF0000000000
FF0000000000
FF0000000000
FF0000000000
FF01FFFFFF80
FF01FFFFFF80
FF01FFFFFF80
FF01FFFFFF80
FF01FFFFFF80
FF01FFFFFF80
FF01FFFFFF80
FF0000000000
FF0000000000
FF0000000000
FF0000000000
FF0000000000
FF0000000000
FF0000000000
FF0000000000
FF0000000000
FF0000000000
FF0000000000
FF0000000000
FF0000000000
FFFFFFFFFFE0
FFFFFFFFFFE0
FFFFFFFFFFE0
FFFFFFFFFFE0
FFFFFFFFFFE0
FFFFFFFFFFE0
FFFFFFFFFFE0
FFFFFFFFFFE0
ENDCHAR
STARTCHAR Ebreve
ENCODING 276
SWIDTH 759 0
DWIDTH 50 0
BBX 43 60 4 0
BITMAP
000F003C0000
000F807C0000
000F807C0000
0007807C0000
0007C0780000
0007C0F80000
0003FFF00000
0001FFE00000
00007F800000
000000000000
000000000000
000000000000
FFFFFFFFFFE0
FFFFFFFFFFE0
FFFFFFFFFFE0
FFFFFFFFFFE0
FFFFFFFFFFE0
FFFFFFFFFFE0
FFFFFFFFFFE0
FFFFFFFFFFE0
FF0000000000
FF0000000000
FF0000000000
FF0000000000
FF0000000000
FF0000000000
FF0000000000
FF0000000000
FF0000000000
FF0000000000
FF0000000000
FF0000000000
FF01FFFFFF80
FF01FFFFFF80
FF01FFFFFF80
FF01FFFFFF80
FF01FFFFFF80
FF01FFFFFF80
FF01FFFFFF80
FF0000000000
FF0000000000
FF0000000000
FF0000000000
FF0000000000
FF0000000000
FF0000000000
FF0000000000
FF0000000000
FF0000000000
FF0000000000
FF0000000000
FF0000000000
FFFFFFFFFFE0
FFFFFFFFFFE0
FFFFFFFFFFE0
FFFFFFFFFFE0
FFFFFFFFFFE0
FFFFFFFFFFE0
FFFFFFFFFFE0
FFFFFFFFFFE0
ENDCHAR
STARTCHAR ebreve
ENCODING 277
SWIDTH 759 0
DWIDTH 50 0
BBX 43 60 4 0
BITMAP
000F003C0000
000F807C0000
000F807C0000
0007807C0000
0007C0780000
0007C0F80000
0003FFF00000
0001FFE00000
00007F800000
000000000000
000000000000
000000000000
FFFFFFFFFFE0
FFFFFFFFFFE0
FFFFFFFFFFE0
FFFFFFFFFFE0
FFFFFFFFFFE0
FFFFFFFFFFE0
FFFFFFFFFFE0
FFFFFFFFFFE0
FF0000000000
FF0000000000
FF0000000000
FF0000000000
FF0000000000
FF0000000000
FF0000000000
FF0000000000
FF0000000000
FF0000000000
FF0000000000
FF0000000000
FF01FFFFFF80
FF01FFFFFF80
FF01FFFFFF80
FF01FFFFFF80
FF01FFFFFF80
FF01FFFFFF80
FF01FFFFFF80
FF0000000000
FF0000000000
FF0000000000
FF0000000000
FF0000000000
FF0000000000
FF0000000000
FF0000000000
FF0000000000
FF0000000000
FF0000000000
FF0000000000
FF0000000000
FFFFFFFFFFE0
FFFFFFFFFFE0
FFFFFFFFFFE0
FFFFFFFFFFE0
FFFFFFFFFFE0
FFFFFFFFFFE0
FFFFFFFFFFE0
FFFFFFFFFFE0
ENDCHAR
STARTCHAR Edotaccent
ENCODING 278
SWIDTH 759 0
DWIDTH 50 0
BBX 43 59 4 0
BITMAP
00001E000000
00003F000000
00003F000000
00003F000000
00003F000000
00001E000000
000000000000
000000000000
000000000000
000000000000
000000000000
FFFFFFFFFFE0
FFFFFFFFFFE0
FFFFFFFFFFE0
FFFFFFFFFFE0
FFFFFFFFFFE0
FFFFFFFFFFE0
FFFFFFFFFFE0
FFFFFFFFFFE0
FF0000000000
FF0000000000
FF0000000000
FF0000000000
FF0000000000
FF0000000000
FF0000000000
FF0000000000
FF0000000000
FF0000000000
FF0000000000
FF0000000000
FF01FFFFFF80
FF01FFFFFF80
FF01FFFFFF80
FF01FFFFFF80
FF01FFFFFF80
FF01FFFFFF80
FF01FFFFFF80
FF0000000000
FF0000000000
FF0000000000
FF0000000000
FF0000000000
FF0000000000
FF0000000000
FF0000000000
FF0000000000
FF0000000000
FF0000000000
FF0000000000
FF0000000000
FFFFFFFFFFE0
FFFFFFFFFFE0
FFFFFFFFFFE0
FFFFFFFFFFE0
FFFFFFFFFFE0
FFFFFFFFFFE0
FFFFFFFFFFE0
FFFFFFFFFFE0
ENDCHAR
STARTCHAR edotaccent
ENCODING 279
SWIDTH 759 0
DWIDTH 50 0
BBX 43 59 4 0
BITMAP
00001E000000
00003F000000
00003F000000
00003F000000
00003F000000
00001E000000
000000000000
000000000000
000000000000
000000000000
000000000000
FFFFFFFFFFE0
FFFFFFFFFFE0
FFFFFFFFFFE0
FFFFFFFFFFE0
FFFFFFFFFFE0
FFFFFFFFFFE0
FFFFFFFFFFE0
FFFFFFFFFFE0
FF0000000000
FF0000000000
FF0000000000
FF0000000000
FF0000000000
FF0000000000
FF0000000000
FF0000000000
FF0000000000
FF0000000000
FF0000000000
FF0000000000
FF01FFFFFF80
FF01FFFFFF80
FF01FFFFFF80
FF01FFFFFF80
FF01FFFFFF80
FF01FFFFFF80
FF01FFFFFF80
FF0000000000
FF0000000000
FF0000000000
FF0000000000
FF0000000000
FF0000000000
FF0000000000
FF0000000000
FF0000000000
FF0000000000
FF0000000000
FF0000000000
FF0000000000
FFFFFFFFFFE0
FFFFFFFFFFE0
FFFFFFFFFFE0
FFFFFFFFFFE0
FFFFFFFFFFE0
FFFFFFFFFFE0
FFFFFFFFFFE0
FFFFFFFFFFE0
ENDCHAR
STARTCHAR Eogonek
ENCODING 280
SWIDTH 759 0
DWIDTH 50 0
BBX 43 61 4 -13
BITMAP
FFFFFFFFFFE0
FFFFFFFFFFE0
FFFFFFFFFFE0
FFFFFFFFFFE0
FFFFFFFFFFE0
FFFFFFFFFFE0
FFFFFFFFFFE0
FFFFFFFFFFE0
FF0000000000
FF0000000000
FF0000000000
FF0000000000
FF0000000000
FF0000000000
FF0000000000
FF0000000000
FF0000000000
FF0000000000
FF0000000000
FF0000000000
FF01FFFFFF80
FF01FFFFFF80
FF01FFFFFF80
FF01FFFFFF80
FF01FFFFFF80
FF01FFFFFF80
FF01FFFFFF80
FF0000000000
FF0000000000
FF0000000000
FF0000000000
FF0000000000
FF0000000000
FF0000000000
FF0000000000
FF0000000000
FF0000000000
FF0000000000
FF0000000000
FF0000000000
FFFFFFFFFFE0
FFFFFFFFFFE0
FFFFFFFFFFE0
FFFFFFFFFFE0
FFFFFFFFFFE0
FFFFFFFFFFE0
FFFFFFFFFFE0
FFFFFFFFFFE0
0000000003C0
000000000780
000000001E00
000000003C00
00000000F800
00000001F000
00000001F000
00000001F000
00000001FFE0
00000001FFE0
00000001FFE0
00000000FFE0
000000003FE0
ENDCHAR
STARTCHAR eogonek
ENCODING 281
SWIDTH 759 0
DWIDTH 50 0
BBX 43 61 4 -13
BITMAP
FFFFFFFFFFE0
FFFFFFFFFFE0
FFFFFFFFFFE0
FFFFFFFFFFE0
FFFFFFFFFFE0
FFFFFFFFFFE0
FFFFFFFFFFE0
FFFFFFFFFFE0
FF0000000000
FF0000000000
FF0000000000
FF0000000000
FF0000000000
FF0000000000
FF0000000000
FF0000000000
FF0000000000
FF0000000000
FF0000000000
FF0000000000
FF01FFFFFF80
FF01FFFFFF80
FF01FFFFFF80
FF01FFFFFF80
FF01FFFFFF80
FF01FFFFFF80
FF01FFFFFF80
FF0000000000
FF0000000000
FF0000000000
FF0000000000
FF0000000000
FF0000000000
FF0000000000
FF0000000000
FF0000000000
FF0000000000
FF0000000000
FF0000000000
FF0000000000
FFFFFFFFFFE0
FFFFFFFFFFE0
FFFFFFFFFFE0
FFFFFFFFFFE0
FFFFFFFFFFE0
FFFFFFFFFFE0
FFFFFFFFFFE0
FFFFFFFFFFE0
0000000003C0
000000000780
000000001E00
000000003C00
00000000F800
00000001F000
00000001F000
00000001F000
00000001FFE0
00000001FFE0
00000001FFE0
00000000FFE0
000000003FE0
ENDCHAR
STARTCHAR Ecaron
ENCODING 282
SWIDTH 759 0
DWIDTH 50 0
BBX 43 60 4 0
BITMAP
000F807C0000
0007C0780000
0003C0F00000
0003E1F00000
0001E1E00000
0000F3C00000
0000FFC00000
00007F800000
00003F000000
000000000000
000000000000
000000000000
FFFFFFFFFFE0
FFFFFFFFFFE0
FFFFFFFFFFE0
FFFFFFFFFFE0
FFFFFFFFFFE0
FFFFFFFFFFE0
FFFFFFFFFFE0
FFFFFFFFFFE0
FF0000000000
FF0000000000
FF0000000000
FF0000000000
FF0000000000
FF0000000000
FF0000000000
FF0000000000
FF0000000000
FF0000000000
FF0000000000
FF0000000000
FF01FFFFFF80
FF01FFFFFF80
FF01FFFFFF80
FF01FFFFFF80
FF01FFFFFF80
FF01FFFFFF80
FF01FFFFFF80
FF0000000000
FF0000000000
FF0000000000
FF0000000000
FF0000000000
FF0000000000
FF0000000000
FF0000000000
FF0000000000
FF0000000000
FF0000000000
FF0000000000
FF0000000000
FFFFFFFFFFE0
FFFFFFFFFFE0
FFFFFFFFFFE0
FFFFFFFFFFE0
FFFFFFFFFFE0
FFFFFFFFFFE0
FFFFFFFFFFE0
FFFFFFFFFFE0
ENDCHAR
STARTCHAR ecaron
ENCODING 283
SWIDTH 759 0
DWIDTH 50 0
BBX 43 60 4 0
BITMAP
000F807C0000
0007C0780000
0003C0F00000
0003E1F00000
0001E1E00000
0000F3C00000
0000FFC00000
00007F800000
00003F000000
000000000000
000000000000
000000000000
FFFFFFFFFFE0
FFFFFFFFFFE0
FFFFFFFFFFE0
FFFFFFFFFFE0
FFFFFFFFFFE0
FFFFFFFFFFE0
FFFFFFFFFFE0
FFFFFFFFFFE0
FF0000000000
FF0000000000
FF0000000000
FF0000000000
FF0000000000
FF0000000000
FF0000000000
FF0000000000
FF0000000000
FF0000000000
FF0000000000
FF0000000000
FF01FFFFFF80
FF01FFFFFF80
FF01FFFFFF80
FF01FFFFFF80
FF01FFFFFF80
FF01FFFFFF80
FF01FFFFFF80
FF0000000000
FF0000000000
FF0000000000
FF0000000000
FF0000000000
FF0000000000
FF0000000000
FF0000000000
FF0000000000
FF0000000000
FF0000000000
FF0000000000
FF0000000000
FFFFFFFFFFE0
FFFFFFFFFFE0
FFFFFFFFFFE0
FFFFFFFFFFE0
FFFFFFFFFFE0
FFFFFFFFFFE0
FFFFFFFFFFE0
FFFFFFFFFFE0
ENDCHAR
STARTCHAR Gbreve
ENCODING 286
SWIDTH 888 0
DWIDTH 59 0
BBX 52 60 3 0
BITMAP
00001F00780000
00001F00780000
00000F00780000
00000F00F80000
00000F80F00000
000007C1F00000
000007FFE00000
000003FFC00000
000000FF800000
00000000000000
00000000000000
00000000000000
00003FFFFFFF80
0003FFFFFFFF80
000FFFFFFFFF80
003FFFFFFFFF80
007FFFFFFFFF80
01FFFFFFFFFF80
03FFFFFFFFFF80
07FFFFFFFFFF80
07FFFC00000000
0FFF8000000000
1FFE0000000000
1FFC0000000000
3FF80000000000
3FF00000000000
7FE00000000000
7FC00000000000
7FC00000000000
FF800000000000
FF800000000000
FF800000000000
FF0003FFFFFFF0
FF0003FFFFFFF0
FF0003FFFFFFF0
FF0003FFFFFFF0
FF0003FFFFFFF0
FF0003FFFFFFF0
FF0003FFFFFFF0
FF800000000FF0
FF800000000FF0
FF800000000FF0
7F800000000FF0
7FC00000000FF0
7FC00000000FF0
3FE00000000FF0
3FF00000000FF0
1FF80000000FF0
1FFC0000000FF0
0FFE0000000FF0
0FFF8000000FF0
07FFFC00000FF0
03FFFFFFFFFFF0
01FFFFFFFFFFF0
00FFFFFFFFFFF0
007FFFFFFFFFF0
001FFFFFFFFFF0
000FFFFFFFFFF0
0001FFFFFFFFF0
00003FFFFFFFF0
ENDCHAR
STARTCHAR gbreve
ENCODING 287
SWIDTH 888 0
DWIDTH 59 0
BBX 52 60 3 0
BITMAP
00001F00780000
00001F00780000
00000F00780000
00000F00F80000
00000F80F00000
000007C1F00000
000007FFE00000
000003FFC00000
000000FF800000
00000000000000
00000000000000
00000000000000
00003FFFFFFF80
0003FFFFFFFF80
000FFFFFFFFF80
003FFFFFFFFF80
007FFFFFFFFF80
01FFFFFFFFFF80
03FFFFFFFFFF80
07FFFFFFFFFF80
07FFFC00000000
0FFF8000000000
1FFE0000000000
1FFC0000000000
3FF80000000000
3FF00000000000
7FE00000000000
7FC00000000000
7FC00000000000
FF800000000000
FF800000000000
FF800000000000
FF0003FFFFFFF0
FF0003FFFFFFF0
FF0003FFFFFFF0
FF0003FFFFFFF0
FF0003FFFFFFF0
FF0003FFFFFFF0
FF0003FFFFFFF0
FF800000000FF0
FF800000000FF0
FF800000000FF0
7F800000000FF0
7FC00000000FF0
7FC00000000FF0
3FE00000000FF0
3FF00000000FF0
1FF80000000FF0
1FFC0000000FF0
0FFE0000000FF0
0FFF8000000FF0
07FFFC00000FF0
03FFFFFFFFFFF0
01FFFFFFFFFFF0
00FFFFFFFFFFF0
007FFFFFFFFFF0
001FFFFFFFFFF0
000FFFFFFFFFF0
0001FFFFFFFFF0
00003FFFFFFFF0
ENDCHAR
STARTCHAR Gdotaccent
ENCODING 288
SWIDTH 888 0
DWIDTH 59 0
BBX 52 59 3 0
BITMAP
0000001E000000
0000003F000000
0000003F000000
0000003F000000
0000003F000000
0000001E000000
00000000000000
00000000000000
00000000000000
00000000000000
00000000000000
00003FFFFFFF80
0003FFFFFFFF80
000FFFFFFFFF80
003FFFFFFFFF80
007FFFFFFFFF80
01FFFFFFFFFF80
03FFFFFFFFFF80
07FFFFFFFFFF80
07FFFC00000000
0FFF8000000000
1FFE0000000000
1FFC0000000000
3FF80000000000
3FF00000000000
7FE00000000000
7FC00000000000
7FC00000000000
FF800000000000
FF800000000000
FF800000000000
FF0003FFFFFFF0
FF0003FFFFFFF0
FF0003FFFFFFF0
FF0003FFFFFFF0
FF0003FFFFFFF0
FF0003FFFFFFF0
FF0003FFFFFFF0
FF800000000FF0
FF800000000FF0
FF800000000FF0
7F800000000FF0
7FC00000000FF0
7FC00000000FF0
3FE00000000FF0
3FF00000000FF0
1FF80000000FF0
1FFC0000000FF0
0FFE0000000FF0
0FFF8000000FF0
07FFFC00000FF0
03FFFFFFFFFFF0
01FFFFFFFFFFF0
00FFFFFFFFFFF0
007FFFFFFFFFF0
001FFFFFFFFFF0
000FFFFFFFFFF0
0001FFFFFFFFF0
00003FFFFFFFF0
ENDCHAR
STARTCHAR gdotaccent
ENCODING 289
SWIDTH 888 0
DWIDTH 59 0
BBX 52 59 3 0
BITMAP
0000001E000000
0000003F000000
0000003F000000
0000003F000000
0000003F000000
0000001E000000
00000000000000
00000000000000
00000000000000
00000000000000
00000000000000
00003FFFFFFF80
0003FFFFFFFF80
000FFFFFFFFF80
003FFFFFFFFF80
007FFFFFFFFF80
01FFFFFFFFFF80
03FFFFFFFFFF80
07FFFFFFFFFF80
07FFFC00000000
0FFF8000000000
1FFE0000000000
1FFC0000000000
3FF80000000000
3FF00000000000
7FE00000000000
7FC00000000000
7FC00000000000
FF800000000000
FF800000000000
FF800000000000
FF0003FFFFFFF0
FF0003FFFFFFF0
FF0003FFFFFFF0
FF0003FFFFFFF0
FF0003FFFFFFF0
FF0003FFFFFFF0
FF0003FFFFFFF0
FF800000000FF0
FF800000000FF0
FF800000000FF0
7F800000000FF0
7FC00000000FF0
7FC00000000FF0
3FE00000000FF0
3FF00000000FF0
1FF80000000FF0
1FFC0000000FF0
0FFE0000000FF0
0FFF8000000FF0
07FFFC00000FF0
03FFFFFFFFFFF0
01FFFFFFFFFFF0
00FFFFFFFFFFF0
007FFFFFFFFFF0
001FFFFFFFFFF0
000FFFFFFFFFF0
0001FFFFFFFFF0
00003FFFFFFFF0
ENDCHAR
STARTCHAR Gcommaaccent
ENCODING 290
SWIDTH 888 0
DWIDTH 59 0
BBX 52 61 3 -13
BITMAP
00003FFFFFFF80
0003FFFFFFFF80
000FFFFFFFFF80
003FFFFFFFFF80
007FFFFFFFFF80
01FFFFFFFFFF80
03FFFFFFFFFF80
07FFFFFFFFFF80
07FFFC00000000
0FFF8000000000
1FFE0000000000
1FFC0000000000
3FF80000000000
3FF00000000000
7FE00000000000
7FC00000000000
7FC00000000000
FF800000000000
FF800000000000
FF800000000000
FF0003FFFFFFF0
FF0003FFFFFFF0
FF0003FFFFFFF0
FF0003FFFFFFF0
FF0003FFFFFFF0
FF0003FFFFFFF0
FF0003FFFFFFF0
FF800000000FF0
FF800000000FF0
FF800000000FF0
7F800000000FF0
7FC00000000FF0
7FC00000000FF0
3FE00000000FF0
3FF00000000FF0
1FF80000000FF0
1FFC0000000FF0
0FFE0000000FF0
0FFF8000000FF0
07FFFC00000FF0
03FFFFFFFFFFF0
01FFFFFFFFFFF0
00FFFFFFFFFFF0
007FFFFFFFFFF0
001FFFFFFFFFF0
000FFFFFFFFFF0
0001FFFFFFFFF0
00003FFFFFFFF0
00000000000000
00000000000000
00000000000000
000001FE000000
000001FE000000
000000FC000000
000000FC000000
000000F8000000
00000078000000
00000070000000
00000030000000
00000030000000
00000020000000
ENDCHAR
STARTCHAR gcommaaccent
ENCODING 291
SWIDTH 888 0
DWIDTH 59 0
BBX 52 61 3 -13
BITMAP
00003FFFFFFF80
0003FFFFFFFF80
000FFFFFFFFF80
003FFFFFFFFF80
007FFFFFFFFF80
01FFFFFFFFFF80
03FFFFFFFFFF80
07FFFFFFFFFF80
07FFFC00000000
0FFF8000000000
1FFE0000000000
1FFC0000000000
3FF80000000000
3FF00000000000
7FE00000000000
7FC00000000000
7FC00000000000
FF800000000000
FF800000000000
FF800000000000
FF0003FFFFFFF0
FF0003FFFFFFF0
FF0003FFFFFFF0
FF0003FFFFFFF0
FF0003FFFFFFF0
FF0003FFFFFFF0
FF0003FFFFFFF0
FF800000000FF0
FF800000000FF0
FF800000000FF0
7F800000000FF0
7FC00000000FF0
7FC00000000FF0
3FE00000000FF0
3FF00000000FF0
1FF80000000FF0
1FFC0000000FF0
0FFE0000000FF0
0FFF8000000FF0
07FFFC00000FF0
03FFFFFFFFFFF0
01FFFFFFFFFFF0
00FFFFFFFFFFF0
007FFFFFFFFFF0
001FFFFFFFFFF0
000FFFFFFFFFF0
0001FFFFFFFFF0
00003FFFFFFFF0
00000000000000
00000000000000
00000000000000
000001FE000000
000001FE000000
000000FC000000
000000FC000000
000000F8000000
00000078000000
00000070000000
00000030000000
00000030000000
00000020000000
ENDCHAR
STARTCHAR Hbar
ENCODING 294
SWIDTH 838 0
DWIDTH 55 0
BBX 47 48 4 0
BITMAP
FF80000001FE
FF80000001FE
FF80000001FE
FF80000001FE
FF80000001FE
FF80000001FE
FF80000001FE
FF81FFFFFFFE
FF81FFFFFFFE
FF81FFFFFFFE
FF81FFFFFFFE
FF80000001FE
FF80000001FE
FF80000001FE
FF80000001FE
FF80000001FE
FF80000001FE
FF80000001FE
FF80000001FE
FF80000001FE
FF81FFFFFFFE
FF81FFFFFFFE
FF81FFFFFFFE
FF81FFFFFFFE
FF81FFFFFFFE
FF81FFFFFFFE
FF81FFFFFFFE
FF80000001FE
FF80000001FE
FF80000001FE
FF80000001FE
FF80000001FE
FF80000001FE
FF80000001FE
FF80000001FE
FF80000001FE
FF80000001FE
FF80000001FE
FF80000001FE
FF80000001FE
FF80000001FE
FF80000001FE
FF80000001FE
FF80000001FE
FF80000001FE
FF80000001FE
FF80000001FE
FF80000001FE
ENDCHAR
STARTCHAR hbar
ENCODING 295
SWIDTH 838 0
DWIDTH 55 0
BBX 47 48 4 0
BITMAP
FF80000001FE
FF80000001FE
FF80000001FE
FF80000001FE
FF80000001FE
FF80000001FE
FF80000001FE
FF81FFFFFFFE
FF81FFFFFFFE
FF81FFFFFFFE
FF81FFFFFFFE
FF80000001FE
FF80000001FE
FF80000001FE
FF80000001FE
FF80000001FE
FF80000001FE
FF80000001FE
FF80000001FE
FF80000001FE
FF81FFFFFFFE
FF81FFFFFFFE
FF81FFFFFFFE
FF81FFFFFFFE
FF81FFFFFFFE
FF81FFFFFFFE
FF81FFFFFFFE
FF80000001FE
FF80000001FE
FF80000001FE
FF80000001FE
FF80000001FE
FF80000001FE
FF80000001FE
FF80000001FE
FF80000001FE
FF80000001FE
FF80000001FE
FF80000001FE
FF80000001FE
FF80000001FE
FF80000001FE
FF80000001FE
FF80000001FE
FF80000001FE
FF80000001FE
FF80000001FE
FF80000001FE
ENDCHAR
STARTCHAR uni012A
ENCODING 298
SWIDTH 267 0
DWIDTH 18 0
BBX 17 58 0 0
BITMAP
FFFF80
FFFF80
FFFF80
FFFF80
000000
000000
000000
000000
000000
000000
07F800
07F800
07F800
07F800
07F800
07F800
07F800
07F800
07F800
07F800
07F800
07F800
07F800
07F800
07F800
07F800
07F800
07F800
07F800
07F800
07F800
07F800
07F800
07F800
07F800
07F800
07F800
07F800
07F800
07F800
07F800
07F800
07F800
07F800
07F800
07F800
07F800
07F800
07F800
07F800
07F800
07F800
07F800
07F800
07F800
07F800
07F800
07F800
ENDCHAR
STARTCHAR imacron
ENCODING 299
SWIDTH 267 0
DWIDTH 18 0
BBX 17 58 0 0
BITMAP
FFFF80
FFFF80
FFFF80
FFFF80
000000
000000
000000
000000
000000
000000
07F800
07F800
07F800
07F800
07F800
07F800
07F800
07F800
07F800
07F800
07F800
07F800
07F800
07F800
07F800
07F800
07F800
07F800
07F800
07F800
07F800
07F800
07F800
07F800
07F800
07F800
07F800
07F800
07F800
07F800
07F800
07F800
07F800
07F800
07F800
07F800
07F800
07F800
07F800
07F800
07F800
07F800
07F800
07F800
07F800
07F800
07F800
07F800
ENDCHAR
STARTCHAR Ibreve
ENCODING 300
SWIDTH 267 0
DWIDTH 18 0
BBX 18 60 0 0
BITMAP
F007C0
F007C0
F807C0
F80780
7C0F80
7C0F80
3FFF00
1FFE00
0FF800
000000
000000
000000
07F800
07F800
07F800
07F800
07F800
07F800
07F800
07F800
07F800
07F800
07F800
07F800
07F800
07F800
07F800
07F800
07F800
07F800
07F800
07F800
07F800
07F800
07F800
07F800
07F800
07F800
07F800
07F800
07F800
07F800
07F800
07F800
07F800
07F800
07F800
07F800
07F800
07F800
07F800
07F800
07F800
07F800
07F800
07F800
07F800
07F800
07F800
07F800
ENDCHAR
STARTCHAR ibreve
ENCODING 301
SWIDTH 267 0
DWIDTH 18 0
BBX 18 60 0 0
BITMAP
F007C0
F007C0
F807C0
F80780
7C0F80
7C0F80
3FFF00
1FFE00
0FF800
000000
000000
000000
07F800
07F800
07F800
07F800
07F800
07F800
07F800
07F800
07F800
07F800
07F800
07F800
07F800
07F800
07F800
07F800
07F800
07F800
07F800
07F800
07F800
07F800
07F800
07F800
07F800
07F800
07F800
07F800
07F800
07F800
07F800
07F800
07F800
07F800
07F800
07F800
07F800
07F800
07F800
07F800
07F800
07F800
07F800
07F800
07F800
07F800
07F800
07F800
ENDCHAR
STARTCHAR Iogonek
ENCODING 302
SWIDTH 267 0
DWIDTH 18 0
BBX 12 61 1 -13
BITMAP
0FF0
0FF0
0FF0
0FF0
0FF0
0FF0
0FF0
0FF0
0FF0
0FF0
0FF0
0FF0
0FF0
0FF0
0FF0
0FF0
0FF0
0FF0
0FF0
0FF0
0FF0
0FF0
0FF0
0FF0
0FF0
0FF0
0FF0
0FF0
0FF0
0FF0
0FF0
0FF0
0FF0
0FF0
0FF0
0FF0
0FF0
0FF0
0FF0
0FF0
0FF0
0FF0
0FF0
0FF0
0FF0
0FF0
0FF0
0FF0
01E0
03C0
0F00
1E00
7C00
F800
F000
F800
FFF0
FFF0
FFF0
7FF0
1FF0
ENDCHAR
STARTCHAR iogonek
ENCODING 303
SWIDTH 267 0
DWIDTH 18 0
BBX 12 61 1 -13
BITMAP
0FF0
0FF0
0FF0
0FF0
0FF0
0FF0
0FF0
0FF0
0FF0
0FF0
0FF0
0FF0
0FF0
0FF0
0FF0
0FF0
0FF0
0FF0
0FF0
0FF0
0FF0
0FF0
0FF0
0FF0
0FF0
0FF0
0FF0
0FF0
0FF0
0FF0
0FF0
0FF0
0FF0
0FF0
0FF0
0FF0
0FF0
0FF0
0FF0
0FF0
0FF0
0FF0
0FF0
0FF0
0FF0
0FF0
0FF0
0FF0
01E0
03C0
0F00
1E00
7C00
F800
F000
F800
FFF0
FFF0
FFF0
7FF0
1FF0
ENDCHAR
STARTCHAR Idotaccent
ENCODING 304
SWIDTH 267 0
DWIDTH 18 0
BBX 8 59 5 0
BITMAP
3C
7E
FE
FE
7E
3C
00
00
00
00
00
FF
FF
FF
FF
FF
FF
FF
FF
FF
FF
FF
FF
FF
FF
FF
FF
FF
FF
FF
FF
FF
FF
FF
FF
FF
FF
FF
FF
FF
FF
FF
FF
FF
FF
FF
FF
FF
FF
FF
FF
FF
FF
FF
FF
FF
FF
FF
FF
ENDCHAR
STARTCHAR dotlessi
ENCODING 305
SWIDTH 267 0
DWIDTH 18 0
BBX 8 48 5 0
BITMAP
FF
FF
FF
FF
FF
FF
FF
FF
FF
FF
FF
FF
FF
FF
FF
FF
FF
FF
FF
FF
FF
FF
FF
FF
FF
FF
FF
FF
FF
FF
FF
FF
FF
FF
FF
FF
FF
FF
FF
FF
FF
FF
FF
FF
FF
FF
FF
FF
ENDCHAR
STARTCHAR IJ
ENCODING 306
SWIDTH 975 0
DWIDTH 64 0
BBX 56 48 5 0
BITMAP
FF0000000000FF
FF0000000000FF
FF0000000000FF
FF0000000000FF
FF0000000000FF
FF0000000000FF
FF0000000000FF
FF0000000000FF
FF0000000000FF
FF0000000000FF
FF0000000000FF
FF0000000000FF
FF0000000000FF
FF0000000000FF
FF0000000000FF
FF0000000000FF
FF0000000000FF
FF0000000000FF
FF0000000000FF
FF0000000000FF
FF0000000000FF
FF0000000000FF
FF0000000000FF
FF0000000000FF
FF0000000000FF
FF0000000000FF
FF0000000000FF
FF0000000001FF
FF0000000001FF
FF0000000001FF
FF0000000001FF
FF0000000001FF
FF0000000003FE
FF0000000003FE
FF0000000007FE
FF0000000007FE
FF000000000FFC
FF000000003FFC
FF00000000FFF8
FF0000003FFFF8
FF03FFFFFFFFF0
FF03FFFFFFFFE0
FF03FFFFFFFFC0
FF03FFFFFFFF80
FF03FFFFFFFF00
FF03FFFFFFFC00
FF03FFFFFFE000
FF03FFFFFE0000
ENDCHAR
STARTCHAR ij
ENCODING 307
SWIDTH 975 0
DWIDTH 64 0
BBX 56 48 5 0
BITMAP
FF0000000000FF
FF0000000000FF
FF0000000000FF
FF0000000000FF
FF0000000000FF
FF0000000000FF
FF0000000000FF
FF0000000000FF
FF0000000000FF
FF0000000000FF
FF0000000000FF
FF0000000000FF
FF0000000000FF
FF0000000000FF
FF0000000000FF
FF0000000000FF
FF0000000000FF
FF0000000000FF
FF0000000000FF
FF0000000000FF
FF0000000000FF
FF0000000000FF
FF0000000000FF
FF0000000000FF
FF0000000000FF
FF0000000000FF
FF0000000000FF
FF0000000001FF
FF0000000001FF
FF0000000001FF
FF0000000001FF
FF0000000001FF
FF0000000003FE
FF0000000003FE
FF0000000007FE
FF0000000007FE
FF000000000FFC
FF000000003FFC
FF00000000FFF8
FF0000003FFFF8
FF03FFFFFFFFF0
FF03FFFFFFFFE0
FF03FFFFFFFFC0
FF03FFFFFFFF80
FF03FFFFFFFF00
FF03FFFFFFFC00
FF03FFFFFFE000
FF03FFFFFE0000
ENDCHAR
STARTCHAR Kcommaaccent
ENCODING 310
SWIDTH 875 0
DWIDTH 58 0
BBX 53 61 4 -13
BITMAP
FF80000003FFF0
FF80000007FFC0
FF8000001FFF00
FF8000003FFE00
FF8000007FF800
FF800001FFF000
FF800003FFE000
FF800007FF8000
FF80000FFF0000
FF80003FFE0000
FF80007FF80000
FF8000FFF00000
FF8003FFE00000
FF8007FF800000
FF800FFF000000
FF803FFE000000
FF807FF8000000
FF80FFF0000000
FF81FFE0000000
FF87FF80000000
FF8FFF00000000
FF9FFE00000000
FF9FF800000000
FF9FF000000000
FF9FF800000000
FF8FFE00000000
FF8FFF00000000
FF83FF80000000
FF81FFE0000000
FF80FFF0000000
FF807FF8000000
FF801FFE000000
FF800FFF000000
FF8007FF800000
FF8003FFE00000
FF8000FFF00000
FF80007FF80000
FF80003FFE0000
FF80000FFF0000
FF800007FF8000
FF800003FFE000
FF800001FFF000
FF8000007FF800
FF8000003FFE00
FF8000001FFF00
FF8000000FFF80
FF80000003FFE0
FF80000001FFF0
00000000000008
00000000000000
00000000000000
00000FF8000000
000007F8000000
000003F0000000
000003F0000000
000003E0000000
000001E0000000
000001C0000000
000000C0000000
000000C0000000
00000080000000
ENDCHAR
STARTCHAR kcommaaccent
ENCODING 311
SWIDTH 875 0
DWIDTH 58 0
BBX 53 61 4 -13
BITMAP
FF80000003FFF0
FF80000007FFC0
FF8000001FFF00
FF8000003FFE00
FF8000007FF800
FF800001FFF000
FF800003FFE000
FF800007FF8000
FF80000FFF0000
FF80003FFE0000
FF80007FF80000
FF8000FFF00000
FF8003FFE00000
FF8007FF800000
FF800FFF000000
FF803FFE000000
FF807FF8000000
FF80FFF0000000
FF81FFE0000000
FF87FF80000000
FF8FFF00000000
FF9FFE00000000
FF9FF800000000
FF9FF000000000
FF9FF800000000
FF8FFE00000000
FF8FFF00000000
FF83FF80000000
FF81FFE0000000
FF80FFF0000000
FF807FF8000000
FF801FFE000000
FF800FFF000000
FF8007FF800000
FF8003FFE00000
FF8000FFF00000
FF80007FF80000
FF80003FFE0000
FF80000FFF0000
FF800007FF8000
FF800003FFE000
FF800001FFF000
FF8000007FF800
FF8000003FFE00
FF8000001FFF00
FF8000000FFF80
FF80000003FFE0
FF80000001FFF0
00000000000008
00000000000000
00000000000000
00000FF8000000
000007F8000000
000003F0000000
000003F0000000
000003E0000000
000001E0000000
000001C0000000
000000C0000000
000000C0000000
00000080000000
ENDCHAR
STARTCHAR Lacute
ENCODING 313
SWIDTH 707 0
DWIDTH 47 0
BBX 43 60 2 0
BITMAP
000080000000
000F80000000
007F80000000
03FF80000000
3FFF80000000
FFFF00000000
FFF000000000
FE0000000000
C00000000000
000000000000
000000000000
000000000000
3FE000000000
3FE000000000
3FE000000000
3FE000000000
3FE000000000
3FE000000000
3FE000000000
3FE000000000
3FE000000000
3FE000000000
3FE000000000
3FE000000000
3FE000000000
3FE000000000
3FE000000000
3FE000000000
3FE000000000
3FE000000000
3FE000000000
3FE000000000
3FE000000000
3FE000000000
3FE000000000
3FE000000000
3FE000000000
3FE000000000
3FE000000000
3FE000000000
3FE000000000
3FE000000000
3FE000000000
3FE000000000
3FE000000000
3FE000000000
3FE000000000
3FE000000000
3FE000000000
3FE000000000
3FE000000000
3FE000000000
3FFFFFFFFFE0
3FFFFFFFFFE0
3FFFFFFFFFE0
3FFFFFFFFFE0
3FFFFFFFFFE0
3FFFFFFFFFE0
3FFFFFFFFFE0
3FFFFFFFFFE0
ENDCHAR
STARTCHAR lacute
ENCODING 314
SWIDTH 707 0
DWIDTH 47 0
BBX 43 60 2 0
BITMAP
000080000000
000F80000000
007F80000000
03FF80000000
3FFF80000000
FFFF00000000
FFF000000000
FE0000000000
C00000000000
000000000000
000000000000
000000000000
3FE000000000
3FE000000000
3FE000000000
3FE000000000
3FE000000000
3FE000000000
3FE000000000
3FE000000000
3FE000000000
3FE000000000
3FE000000000
3FE000000000
3FE000000000
3FE000000000
3FE000000000
3FE000000000
3FE000000000
3FE000000000
3FE000000000
3FE000000000
3FE000000000
3FE000000000
3FE000000000
3FE000000000
3FE000000000
3FE000000000
3FE000000000
3FE000000000
3FE000000000
3FE000000000
3FE000000000
3FE000000000
3FE000000000
3FE000000000
3FE000000000
3FE000000000
3FE000000000
3FE000000000
3FE000000000
3FE000000000
3FFFFFFFFFE0
3FFFFFFFFFE0
3FFFFFFFFFE0
3FFFFFFFFFE0
3FFFFFFFFFE0
3FFFFFFFFFE0
3FFFFFFFFFE0
3FFFFFFFFFE0
ENDCHAR
STARTCHAR Lcommaaccent
ENCODING 315
SWIDTH 707 0
DWIDTH 47 0
BBX 41 61 4 -13
BITMAP
FF8000000000
FF8000000000
FF8000000000
FF8000000000
FF8000000000
FF8000000000
FF8000000000
FF8000000000
FF8000000000
FF8000000000
FF8000000000
FF8000000000
FF8000000000
FF8000000000
FF8000000000
FF8000000000
FF8000000000
FF8000000000
FF8000000000
FF8000000000
FF8000000000
FF8000000000
FF8000000000
FF8000000000
FF8000000000
FF8000000000
FF8000000000
FF8000000000
FF8000000000
FF8000000000
FF8000000000
FF8000000000
FF8000000000
FF8000000000
FF8000000000
FF8000000000
FF8000000000
FF8000000000
FF8000000000
FF8000000000
FFFFFFFFFF80
FFFFFFFFFF80
FFFFFFFFFF80
FFFFFFFFFF80
FFFFFFFFFF80
FFFFFFFFFF80
FFFFFFFFFF80
FFFFFFFFFF80
000000000000
000000000000
000000000000
0000FF800000
00007F000000
00007F000000
00003E000000
00003E000000
00003E000000
00001C000000
00001C000000
000008000000
000008000000
ENDCHAR
STARTCHAR lcommaaccent
ENCODING 316
SWIDTH 707 0
DWIDTH 47 0
BBX 41 61 4 -13
BITMAP
FF8000000000
FF8000000000
FF8000000000
FF8000000000
FF8000000000
FF8000000000
FF8000000000
FF8000000000
FF8000000000
FF8000000000
FF8000000000
FF8000000000
FF8000000000
FF8000000000
FF8000000000
FF8000000000
FF8000000000
FF8000000000
FF8000000000
FF8000000000
FF8000000000
FF8000000000
FF8000000000
FF8000000000
FF8000000000
FF8000000000
FF8000000000
FF8000000000
FF8000000000
FF8000000000
FF8000000000
FF8000000000
FF8000000000
FF8000000000
FF8000000000
FF8000000000
FF8000000000
FF8000000000
FF8000000000
FF8000000000
FFFFFFFFFF80
FFFFFFFFFF80
FFFFFFFFFF80
FFFFFFFFFF80
FFFFFFFFFF80
FFFFFFFFFF80
FFFFFFFFFF80
FFFFFFFFFF80
000000000000
000000000000
000000000000
0000FF800000
00007F000000
00007F000000
00003E000000
00003E000000
00003E000000
00001C000000
00001C000000
000008000000
000008000000
ENDCHAR
STARTCHAR Lcaron
ENCODING 317
SWIDTH 707 0
DWIDTH 47 0
BBX 41 48 4 0
BITMAP
FF807F800000
FF807F800000
FF807F800000
FF807F000000
FF807F000000
FF807F000000
FF807F000000
FF807F000000
FF807E000000
FF807E000000
FF807E000000
FF807E000000
FF807E000000
FF807C000000
FF807C000000
FF807C000000
FF807C000000
FF8000000000
FF8000000000
FF8000000000
FF8000000000
FF8000000000
FF8000000000
FF8000000000
FF8000000000
FF8000000000
FF8000000000
FF8000000000
FF8000000000
FF8000000000
FF8000000000
FF8000000000
FF8000000000
FF8000000000
FF8000000000
FF8000000000
FF8000000000
FF8000000000
FF8000000000
FF8000000000
FFFFFFFFFF80
FFFFFFFFFF80
FFFFFFFFFF80
FFFFFFFFFF80
FFFFFFFFFF80
FFFFFFFFFF80
FFFFFFFFFF80
FFFFFFFFFF80
ENDCHAR
STARTCHAR lcaron
ENCODING 318
SWIDTH 707 0
DWIDTH 47 0
BBX 41 48 4 0
BITMAP
FF807F800000
FF807F800000
FF807F800000
FF807F000000
FF807F000000
FF807F000000
FF807F000000
FF807F000000
FF807E000000
FF807E000000
FF807E000000
FF807E000000
FF807E000000
FF807C000000
FF807C000000
FF807C000000
FF807C000000
FF8000000000
FF8000000000
FF8000000000
FF8000000000
FF8000000000
FF8000000000
FF8000000000
FF8000000000
FF8000000000
FF8000000000
FF8000000000
FF8000000000
FF8000000000
FF8000000000
FF8000000000
FF8000000000
FF8000000000
FF8000000000
FF8000000000
FF8000000000
FF8000000000
FF8000000000
FF8000000000
FFFFFFFFFF80
FFFFFFFFFF80
FFFFFFFFFF80
FFFFFFFFFF80
FFFFFFFFFF80
FFFFFFFFFF80
FFFFFFFFFF80
FFFFFFFFFF80
ENDCHAR
STARTCHAR Ldot
ENCODING 319
SWIDTH 707 0
DWIDTH 47 0
BBX 41 48 4 0
BITMAP
FF8000000000
FF8000000000
FF8000000000
FF8000000000
FF8000000000
FF8000000000
FF8000000000
FF8000000000
FF8000000000
FF8000000000
FF8000000000
FF8000000000
FF8000000000
FF8000000000
FF8000000000
FF8000000000
FF8000000000
FF8000000000
FF8000000000
FF8000000000
FF80F0000000
FF81F8000000
FF81F8000000
FF81F8000000
FF81F8000000
FF80F0000000
FF8000000000
FF8000000000
FF8000000000
FF8000000000
FF8000000000
FF8000000000
FF8000000000
FF8000000000
FF8000000000
FF8000000000
FF8000000000
FF8000000000
FF8000000000
FF8000000000
FFFFFFFFFF80
FFFFFFFFFF80
FFFFFFFFFF80
FFFFFFFFFF80
FFFFFFFFFF80
FFFFFFFFFF80
FFFFFFFFFF80
FFFFFFFFFF80
ENDCHAR
STARTCHAR ldot
ENCODING 320
SWIDTH 707 0
DWIDTH 47 0
BBX 41 48 4 0
BITMAP
FF8000000000
FF8000000000
FF8000000000
FF8000000000
FF8000000000
FF8000000000
FF8000000000
FF8000000000
FF8000000000
FF8000000000
FF8000000000
FF8000000000
FF8000000000
FF8000000000
FF8000000000
FF8000000000
FF8000000000
FF8000000000
FF8000000000
FF8000000000
FF80F0000000
FF81F8000000
FF81F8000000
FF81F8000000
FF81F8000000
FF80F0000000
FF8000000000
FF8000000000
FF8000000000
FF8000000000
FF8000000000
FF8000000000
FF8000000000
FF8000000000
FF8000000000
FF8000000000
FF8000000000
FF8000000000
FF8000000000
FF8000000000
FFFFFFFFFF80
FFFFFFFFFF80
FFFFFFFFFF80
FFFFFFFFFF80
FFFFFFFFFF80
FFFFFFFFFF80
FFFFFFFFFF80
FFFFFFFFFF80
ENDCHAR
STARTCHAR Lslash
ENCODING 321
SWIDTH 707 0
DWIDTH 47 0
BBX 41 48 4 0
BITMAP
FF8000000000
FF8000000000
FF8000000000
FF8000000000
FF8000000000
FF8000000000
FF8000000000
FF8000000000
FF8000000000
FF8000000000
FF8000000000
FF8000000000
FF8000000000
FF8000000000
FF8000E00000
FF8003E00000
FF800FE00000
FF803FE00000
FF81FFE00000
FF87FFE00000
FF9FFFE00000
FFFFFF800000
FFFFFE000000
FFFFF8000000
FFFFC0000000
FFFF00000000
FFFC00000000
FFE000000000
FF8000000000
FF8000000000
FF8000000000
FF8000000000
FF8000000000
FF8000000000
FF8000000000
FF8000000000
FF8000000000
FF8000000000
FF8000000000
FF8000000000
FFFFFFFFFF80
FFFFFFFFFF80
FFFFFFFFFF80
FFFFFFFFFF80
FFFFFFFFFF80
FFFFFFFFFF80
FFFFFFFFFF80
FFFFFFFFFF80
ENDCHAR
STARTCHAR lslash
ENCODING 322
SWIDTH 707 0
DWIDTH 47 0
BBX 41 48 4 0
BITMAP
FF8000000000
FF8000000000
FF8000000000
FF8000000000
FF8000000000
FF8000000000
FF8000000000
FF8000000000
FF8000000000
FF8000000000
FF8000000000
FF8000000000
FF8000000000
FF8000000000
FF8000E00000
FF8003E00000
FF800FE00000
FF803FE00000
FF81FFE00000
FF87FFE00000
FF9FFFE00000
FFFFFF800000
FFFFFE000000
FFFFF8000000
FFFFC0000000
FFFF00000000
FFFC00000000
FFE000000000
FF8000000000
FF8000000000
FF8000000000
FF8000000000
FF8000000000
FF8000000000
FF8000000000
FF8000000000
FF8000000000
FF8000000000
FF8000000000
FF8000000000
FFFFFFFFFF80
FFFFFFFFFF80
FFFFFFFFFF80
FFFFFFFFFF80
FFFFFFFFFF80
FFFFFFFFFF80
FFFFFFFFFF80
FFFFFFFFFF80
ENDCHAR
STARTCHAR Nacute
ENCODING 323
SWIDTH 873 0
DWIDTH 58 0
BBX 50 60 4 0
BITMAP
00000000200000
00000001E00000
0000001FE00000
000000FFE00000
000007FFE00000
00003FFFE00000
00003FFC000000
00003F80000000
00003800000000
00000000000000
00000000000000
00000000000000
3C000000003FC0
7F000000003FC0
FF800000003FC0
FFC00000003FC0
FFE00000003FC0
FFF00000003FC0
FFF80000003FC0
FFFC0000003FC0
FFFE0000003FC0
FFFF0000003FC0
FFFF8000003FC0
FFFFC000003FC0
FFFFE000003FC0
FFFFF000003FC0
FF7FF800003FC0
FF3FFC00003FC0
FF1FFE00003FC0
FF0FFF00003FC0
FF07FF80003FC0
FF03FFC0003FC0
FF01FFE0003FC0
FF00FFF0003FC0
FF007FF8003FC0
FF003FFC003FC0
FF001FFE003FC0
FF000FFF003FC0
FF0007FF803FC0
FF0003FFC03FC0
FF0001FFE03FC0
FF0000FFF03FC0
FF00007FF83FC0
FF00003FFC3FC0
FF00000FFE3FC0
FF000007FF3FC0
FF000003FFBFC0
FF000001FFFFC0
FF000000FFFFC0
FF0000007FFFC0
FF0000003FFFC0
FF0000001FFFC0
FF0000000FFFC0
FF00000007FFC0
FF00000003FFC0
FF00000001FFC0
FF00000000FFC0
FF000000007F80
FF000000003F80
FF000000001E00
ENDCHAR
STARTCHAR nacute
ENCODING 324
SWIDTH 873 0
DWIDTH 58 0
BBX 50 60 4 0
BITMAP
00000000200000
00000001E00000
0000001FE00000
000000FFE00000
000007FFE00000
00003FFFE00000
00003FFC000000
00003F80000000
00003800000000
00000000000000
00000000000000
00000000000000
3C000000003FC0
7F000000003FC0
FF800000003FC0
FFC00000003FC0
FFE00000003FC0
FFF00000003FC0
FFF80000003FC0
FFFC0000003FC0
FFFE0000003FC0
FFFF0000003FC0
FFFF8000003FC0
FFFFC000003FC0
FFFFE000003FC0
FFFFF000003FC0
FF7FF800003FC0
FF3FFC00003FC0
FF1FFE00003FC0
FF0FFF00003FC0
FF07FF80003FC0
FF03FFC0003FC0
FF01FFE0003FC0
FF00FFF0003FC0
FF007FF8003FC0
FF003FFC003FC0
FF001FFE003FC0
FF000FFF003FC0
FF0007FF803FC0
FF0003FFC03FC0
FF0001FFE03FC0
FF0000FFF03FC0
FF00007FF83FC0
FF00003FFC3FC0
FF00000FFE3FC0
FF000007FF3FC0
FF000003FFBFC0
FF000001FFFFC0
FF000000FFFFC0
FF0000007FFFC0
FF0000003FFFC0
FF0000001FFFC0
FF0000000FFFC0
FF00000007FFC0
FF00000003FFC0
FF00000001FFC0
FF00000000FFC0
FF000000007F80
FF000000003F80
FF000000001E00
ENDCHAR
STARTCHAR Ncommaaccent
ENCODING 325
SWIDTH 873 0
DWIDTH 58 0
BBX 50 61 4 -13
BITMAP
3C000000003FC0
7F000000003FC0
FF800000003FC0
FFC00000003FC0
FFE00000003FC0
FFF00000003FC0
FFF80000003FC0
FFFC0000003FC0
FFFE0000003FC0
FFFF0000003FC0
FFFF8000003FC0
FFFFC000003FC0
FFFFE000003FC0
FFFFF000003FC0
FF7FF800003FC0
FF3FFC00003FC0
FF1FFE00003FC0
FF0FFF00003FC0
FF07FF80003FC0
FF03FFC0003FC0
FF01FFE0003FC0
FF00FFF0003FC0
FF007FF8003FC0
FF003FFC003FC0
FF001FFE003FC0
FF000FFF003FC0
FF0007FF803FC0
FF0003FFC03FC0
FF0001FFE03FC0
FF0000FFF03FC0
FF00007FF83FC0
FF00003FFC3FC0
FF00000FFE3FC0
FF000007FF3FC0
FF000003FFBFC0
FF000001FFFFC0
FF000000FFFFC0
FF0000007FFFC0
FF0000003FFFC0
FF0000001FFFC0
FF0000000FFFC0
FF00000007FFC0
FF00000003FFC0
FF00000001FFC0
FF00000000FFC0
FF000000007F80
FF000000003F80
FF000000001E00
00000000000000
00000000000000
00000000000000
00000FF8000000
000007F8000000
000007F0000000
000003F0000000
000003E0000000
000001E0000000
000001C0000000
000000C0000000
000000C0000000
00000080000000
ENDCHAR
STARTCHAR ncommaaccent
ENCODING 326
SWIDTH 873 0
DWIDTH 58 0
BBX 50 61 4 -13
BITMAP
3C000000003FC0
7F000000003FC0
FF800000003FC0
FFC00000003FC0
FFE00000003FC0
FFF00000003FC0
FFF80000003FC0
FFFC0000003FC0
FFFE0000003FC0
FFFF0000003FC0
FFFF8000003FC0
FFFFC000003FC0
FFFFE000003FC0
FFFFF000003FC0
FF7FF800003FC0
FF3FFC00003FC0
FF1FFE00003FC0
FF0FFF00003FC0
FF07FF80003FC0
FF03FFC0003FC0
FF01FFE0003FC0
FF00FFF0003FC0
FF007FF8003FC0
FF003FFC003FC0
FF001FFE003FC0
FF000FFF003FC0
FF0007FF803FC0
FF0003FFC03FC0
FF0001FFE03FC0
FF0000FFF03FC0
FF00007FF83FC0
FF00003FFC3FC0
FF00000FFE3FC0
FF000007FF3FC0
FF000003FFBFC0
FF000001FFFFC0
FF000000FFFFC0
FF0000007FFFC0
FF0000003FFFC0
FF0000001FFFC0
FF0000000FFFC0
FF00000007FFC0
FF00000003FFC0
FF00000001FFC0
FF00000000FFC0
FF000000007F80
FF000000003F80
FF000000001E00
00000000000000
00000000000000
00000000000000
00000FF8000000
000007F8000000
000007F0000000
000003F0000000
000003E0000000
000001E0000000
000001C0000000
000000C0000000
000000C0000000
00000080000000
ENDCHAR
STARTCHAR Ncaron
ENCODING 327
SWIDTH 873 0
DWIDTH 58 0
BBX 50 60 4 0
BITMAP
0000F807C00000
0000780F800000
00007C0F000000
00003C1E000000
00001E3E000000
00001F3C000000
00000F78000000
000007F8000000
000007F0000000
00000000000000
00000000000000
00000000000000
3C000000003FC0
7F000000003FC0
FF800000003FC0
FFC00000003FC0
FFE00000003FC0
FFF00000003FC0
FFF80000003FC0
FFFC0000003FC0
FFFE0000003FC0
FFFF0000003FC0
FFFF8000003FC0
FFFFC000003FC0
FFFFE000003FC0
FFFFF000003FC0
FF7FF800003FC0
FF3FFC00003FC0
FF1FFE00003FC0
FF0FFF00003FC0
FF07FF80003FC0
FF03FFC0003FC0
FF01FFE0003FC0
FF00FFF0003FC0
FF007FF8003FC0
FF003FFC003FC0
FF001FFE003FC0
FF000FFF003FC0
FF0007FF803FC0
FF0003FFC03FC0
FF0001FFE03FC0
FF0000FFF03FC0
FF00007FF83FC0
FF00003FFC3FC0
FF00000FFE3FC0
FF000007FF3FC0
FF000003FFBFC0
FF000001FFFFC0
FF000000FFFFC0
FF0000007FFFC0
FF0000003FFFC0
FF0000001FFFC0
FF0000000FFFC0
FF00000007FFC0
FF00000003FFC0
FF00000001FFC0
FF00000000FFC0
FF000000007F80
FF000000003F80
FF000000001E00
ENDCHAR
STARTCHAR ncaron
ENCODING 328
SWIDTH 873 0
DWIDTH 58 0
BBX 50 60 4 0
BITMAP
0000F807C00000
0000780F800000
00007C0F000000
00003C1E000000
00001E3E000000
00001F3C000000
00000F78000000
000007F8000000
000007F0000000
00000000000000
00000000000000
00000000000000
3C000000003FC0
7F000000003FC0
FF800000003FC0
FFC00000003FC0
FFE00000003FC0
FFF00000003FC0
FFF80000003FC0
FFFC0000003FC0
FFFE0000003FC0
FFFF0000003FC0
FFFF8000003FC0
FFFFC000003FC0
FFFFE000003FC0
FFFFF000003FC0
FF7FF800003FC0
FF3FFC00003FC0
FF1FFE00003FC0
FF0FFF00003FC0
FF07FF80003FC0
FF03FFC0003FC0
FF01FFE0003FC0
FF00FFF0003FC0
FF007FF8003FC0
FF003FFC003FC0
FF001FFE003FC0
FF000FFF003FC0
FF0007FF803FC0
FF0003FFC03FC0
FF0001FFE03FC0
FF0000FFF03FC0
FF00007FF83FC0
FF00003FFC3FC0
FF00000FFE3FC0
FF000007FF3FC0
FF000003FFBFC0
FF000001FFFFC0
FF000000FFFFC0
FF0000007FFFC0
FF0000003FFFC0
FF0000001FFFC0
FF0000000FFFC0
FF00000007FFC0
FF00000003FFC0
FF00000001FFC0
FF00000000FFC0
FF000000007F80
FF000000003F80
FF000000001E00
ENDCHAR
STARTCHAR Eng
ENCODING 330
SWIDTH 873 0
DWIDTH 58 0
BBX 50 61 4 -13
BITMAP
3C000000003FC0
7F000000003FC0
FF800000003FC0
FFC00000003FC0
FFE00000003FC0
FFF00000003FC0
FFF80000003FC0
FFFC0000003FC0
FFFE0000003FC0
FFFF0000003FC0
FFFF8000003FC0
FFFFC000003FC0
FFFFE000003FC0
FFFFF000003FC0
FF7FF800003FC0
FF3FFC00003FC0
FF1FFE00003FC0
FF0FFF00003FC0
FF07FF80003FC0
FF03FFC0003FC0
FF01FFE0003FC0
FF00FFF0003FC0
FF007FF8003FC0
FF003FFC003FC0
FF001FFE003FC0
FF000FFF003FC0
FF0007FF803FC0
FF0003FFC03FC0
FF0001FFE03FC0
FF0000FFF03FC0
FF00007FF83FC0
FF00003FFC3FC0
FF00001FFE3FC0
FF00000FFF3FC0
FF000007FFBFC0
FF000003FFFFC0
FF000001FFFFC0
FF000000FFFFC0
FF0000007FFFC0
FF0000003FFFC0
FF0000001FFFC0
FF0000000FFFC0
FF00000007FFC0
FF00000003FFC0
FF00000001FFC0
FF00000000FFC0
FF00000000FF80
FF00000000FF80
0000000001FF80
0000000003FF80
0000000007FF00
000000001FFF00
00000001FFFE00
00001FFFFFFE00
00001FFFFFFC00
00001FFFFFF800
00001FFFFFF000
00001FFFFFC000
00001FFFFF0000
00001FFFFC0000
00001FFFC00000
ENDCHAR
STARTCHAR eng
ENCODING 331
SWIDTH 873 0
DWIDTH 58 0
BBX 50 61 4 -13
BITMAP
3C000000003FC0
7F000000003FC0
FF800000003FC0
FFC00000003FC0
FFE00000003FC0
FFF00000003FC0
FFF80000003FC0
FFFC0000003FC0
FFFE0000003FC0
FFFF0000003FC0
FFFF8000003FC0
FFFFC000003FC0
FFFFE000003FC0
FFFFF000003FC0
FF7FF800003FC0
FF3FFC00003FC0
FF1FFE00003FC0
FF0FFF00003FC0
FF07FF80003FC0
FF03FFC0003FC0
FF01FFE0003FC0
FF00FFF0003FC0
FF007FF8003FC0
FF003FFC003FC0
FF001FFE003FC0
FF000FFF003FC0
FF0007FF803FC0
FF0003FFC03FC0
FF0001FFE03FC0
FF0000FFF03FC0
FF00007FF83FC0
FF00003FFC3FC0
FF00001FFE3FC0
FF00000FFF3FC0
FF000007FFBFC0
FF000003FFFFC0
FF000001FFFFC0
FF000000FFFFC0
FF0000007FFFC0
FF0000003FFFC0
FF0000001FFFC0
FF0000000FFFC0
FF00000007FFC0
FF00000003FFC0
FF00000001FFC0
FF00000000FFC0
FF00000000FF80
FF00000000FF80
0000000001FF80
0000000003FF80
0000000007FF00
000000001FFF00
00000001FFFE00
00001FFFFFFE00
00001FFFFFFC00
00001FFFFFF800
00001FFFFFF000
00001FFFFFC000
00001FFFFF0000
00001FFFFC0000
00001FFFC00000
ENDCHAR
STARTCHAR Omacron
ENCODING 332
SWIDTH 968 0
DWIDTH 64 0
BBX 58 58 3 0
BITMAP
00000FFFF8000000
00000FFFF8000000
00000FFFF8000000
00000FFFF8000000
0000000000000000
0000000000000000
0000000000000000
0000000000000000
0000000000000000
0000000000000000
00003FFFFF000000
0003FFFFFFF00000
000FFFFFFFFC0000
003FFFFFFFFF0000
007FFFFFFFFF8000
01FFFFFFFFFFE000
03FFFFFFFFFFF000
07FFFFFFFFFFF800
07FFFC000FFFF800
0FFF8000007FFC00
1FFE0000001FFE00
1FFC0000000FFE00
3FF800000007FF00
3FF000000003FF00
7FE000000001FF80
7FC000000000FF80
7FC000000000FF80
FF80000000007FC0
FF80000000007FC0
FF80000000007FC0
FF00000000003FC0
FF00000000003FC0
FF00000000003FC0
FF00000000003FC0
FF00000000003FC0
FF00000000003FC0
FF00000000003FC0
FF80000000007FC0
FF80000000007FC0
FF80000000007FC0
7F80000000007F80
7FC000000000FF80
7FC000000000FF80
3FE000000001FF00
3FF000000003FF00
1FF800000007FE00
1FFC0000000FFE00
0FFE0000001FFC00
0FFF8000007FFC00
07FFFC000FFFF800
03FFFFFFFFFFF000
01FFFFFFFFFFE000
00FFFFFFFFFFC000
007FFFFFFFFF8000
001FFFFFFFFE0000
000FFFFFFFF80000
0001FFFFFFE00000
00003FFFFF000000
ENDCHAR
STARTCHAR omacron
ENCODING 333
SWIDTH 968 0
DWIDTH 64 0
BBX 58 58 3 0
BITMAP
00000FFFF8000000
00000FFFF8000000
00000FFFF8000000
00000FFFF8000000
0000000000000000
0000000000000000
0000000000000000
0000000000000000
0000000000000000
0000000000000000
00003FFFFF000000
0003FFFFFFF00000
000FFFFFFFFC0000
003FFFFFFFFF0000
007FFFFFFFFF8000
01FFFFFFFFFFE000
03FFFFFFFFFFF000
07FFFFFFFFFFF800
07FFFC000FFFF800
0FFF8000007FFC00
1FFE0000001FFE00
1FFC0000000FFE00
3FF800000007FF00
3FF000000003FF00
7FE000000001FF80
7FC000000000FF80
7FC000000000FF80
FF80000000007FC0
FF80000000007FC0
FF80000000007FC0
FF00000000003FC0
FF00000000003FC0
FF00000000003FC0
FF00000000003FC0
FF00000000003FC0
FF00000000003FC0
FF00000000003FC0
FF80000000007FC0
FF80000000007FC0
FF80000000007FC0
7F80000000007F80
7FC000000000FF80
7FC000000000FF80
3FE000000001FF00
3FF000000003FF00
1FF800000007FE00
1FFC0000000FFE00
0FFE0000001FFC00
0FFF8000007FFC00
07FFFC000FFFF800
03FFFFFFFFFFF000
01FFFFFFFFFFE000
00FFFFFFFFFFC000
007FFFFFFFFF8000
001FFFFFFFFE0000
000FFFFFFFF80000
0001FFFFFFE00000
00003FFFFF000000
ENDCHAR
STARTCHAR Obreve
ENCODING 334
SWIDTH 968 0
DWIDTH 64 0
BBX 58 60 3 0
BITMAP
00000F007C000000
00000F007C000000
00000F807C000000
00000F8078000000
000007C0F8000000
000007C0F8000000
000003FFF0000000
000001FFE0000000
0000007F80000000
0000000000000000
0000000000000000
0000000000000000
00003FFFFF000000
0003FFFFFFF00000
000FFFFFFFFC0000
003FFFFFFFFF0000
007FFFFFFFFF8000
01FFFFFFFFFFE000
03FFFFFFFFFFF000
07FFFFFFFFFFF800
07FFFC000FFFF800
0FFF8000007FFC00
1FFE0000001FFE00
1FFC0000000FFE00
3FF800000007FF00
3FF000000003FF00
7FE000000001FF80
7FC000000000FF80
7FC000000000FF80
FF80000000007FC0
FF80000000007FC0
FF80000000007FC0
FF00000000003FC0
FF00000000003FC0
FF00000000003FC0
FF00000000003FC0
FF00000000003FC0
FF00000000003FC0
FF00000000003FC0
FF80000000007FC0
FF80000000007FC0
FF80000000007FC0
7F80000000007F80
7FC000000000FF80
7FC000000000FF80
3FE000000001FF00
3FF000000003FF00
1FF800000007FE00
1FFC0000000FFE00
0FFE0000001FFC00
0FFF8000007FFC00
07FFFC000FFFF800
03FFFFFFFFFFF000
01FFFFFFFFFFE000
00FFFFFFFFFFC000
007FFFFFFFFF8000
001FFFFFFFFE0000
000FFFFFFFF80000
0001FFFFFFE00000
00003FFFFF000000
ENDCHAR
STARTCHAR obreve
ENCODING 335
SWIDTH 968 0
DWIDTH 64 0
BBX 58 60 3 0
BITMAP
00000F007C000000
00000F007C000000
00000F807C000000
00000F8078000000
000007C0F8000000
000007C0F8000000
000003FFF0000000
000001FFE0000000
0000007F80000000
0000000000000000
0000000000000000
0000000000000000
00003FFFFF000000
0003FFFFFFF00000
000FFFFFFFFC0000
003FFFFFFFFF0000
007FFFFFFFFF8000
01FFFFFFFFFFE000
03FFFFFFFFFFF000
07FFFFFFFFFFF800
07FFFC000FFFF800
0FFF8000007FFC00
1FFE0000001FFE00
1FFC0000000FFE00
3FF800000007FF00
3FF000000003FF00
7FE000000001FF80
7FC000000000FF80
7FC000000000FF80
FF80000000007FC0
FF80000000007FC0
FF80000000007FC0
FF00000000003FC0
FF00000000003FC0
FF00000000003FC0
FF00000000003FC0
FF00000000003FC0
FF00000000003FC0
FF00000000003FC0
FF80000000007FC0
FF80000000007FC0
FF80000000007FC0
7F80000000007F80
7FC000000000FF80
7FC000000000FF80
3FE000000001FF00
3FF000000003FF00
1FF800000007FE00
1FFC0000000FFE00
0FFE0000001FFC00
0FFF8000007FFC00
07FFFC000FFFF800
03FFFFFFFFFFF000
01FFFFFFFFFFE000
00FFFFFFFFFFC000
007FFFFFFFFF8000
001FFFFFFFFE0000
000FFFFFFFF80000
0001FFFFFFE00000
00003FFFFF000000
ENDCHAR
STARTCHAR Ohungarumlaut
ENCODING 336
SWIDTH 968 0
DWIDTH 64 0
BBX 58 60 3 0
BITMAP
000000FC1F800000
000000F81F000000
000000F83E000000
000001F03E000000
000001E07C000000
000001E078000000
000003C078000000
00000380F0000000
0000000000000000
0000000000000000
0000000000000000
0000000000000000
00003FFFFF000000
0003FFFFFFF00000
000FFFFFFFFC0000
003FFFFFFFFF0000
007FFFFFFFFF8000
01FFFFFFFFFFE000
03FFFFFFFFFFF000
07FFFFFFFFFFF800
07FFFC000FFFF800
0FFF8000007FFC00
1FFE0000001FFE00
1FFC0000000FFE00
3FF800000007FF00
3FF000000003FF00
7FE000000001FF80
7FC000000000FF80
7FC000000000FF80
FF80000000007FC0
FF80000000007FC0
FF80000000007FC0
FF00000000003FC0
FF00000000003FC0
FF00000000003FC0
FF00000000003FC0
FF00000000003FC0
FF00000000003FC0
FF00000000003FC0
FF80000000007FC0
FF80000000007FC0
FF80000000007FC0
7F80000000007F80
7FC000000000FF80
7FC000000000FF80
3FE000000001FF00
3FF000000003FF00
1FF800000007FE00
1FFC0000000FFE00
0FFE0000001FFC00
0FFF8000007FFC00
07FFFC000FFFF800
03FFFFFFFFFFF000
01FFFFFFFFFFE000
00FFFFFFFFFFC000
007FFFFFFFFF8000
001FFFFFFFFE0000
000FFFFFFFF80000
0001FFFFFFE00000
00003FFFFF000000
ENDCHAR
STARTCHAR ohungarumlaut
ENCODING 337
SWIDTH 968 0
DWIDTH 64 0
BBX 58 60 3 0
BITMAP
000000FC1F800000
000000F81F000000
000000F83E000000
000001F03E000000
000001E07C000000
000001E078000000
000003C078000000
00000380F0000000
0000000000000000
0000000000000000
0000000000000000
0000000000000000
00003FFFFF000000
0003FFFFFFF00000
000FFFFFFFFC0000
003FFFFFFFFF0000
007FFFFFFFFF8000
01FFFFFFFFFFE000
03FFFFFFFFFFF000
07FFFFFFFFFFF800
07FFFC000FFFF800
0FFF8000007FFC00
1FFE0000001FFE00
1FFC0000000FFE00
3FF800000007FF00
3FF000000003FF00
7FE000000001FF80
7FC000000000FF80
7FC000000000FF80
FF80000000007FC0
FF80000000007FC0
FF80000000007FC0
FF00000000003FC0
FF00000000003FC0
FF00000000003FC0
FF00000000003FC0
FF00000000003FC0
FF00000000003FC0
FF00000000003FC0
FF80000000007FC0
FF80000000007FC0
FF80000000007FC0
7F80000000007F80
7FC000000000FF80
7FC000000000FF80
3FE000000001FF00
3FF000000003FF00
1FF800000007FE00
1FFC0000000FFE00
0FFE0000001FFC00
0FFF8000007FFC00
07FFFC000FFFF800
03FFFFFFFFFFF000
01FFFFFFFFFFE000
00FFFFFFFFFFC000
007FFFFFFFFF8000
001FFFFFFFFE0000
000FFFFFFFF80000
0001FFFFFFE00000
00003FFFFF000000
ENDCHAR
STARTCHAR OE
ENCODING 338
SWIDTH 1304 0
DWIDTH 86 0
BBX 80 48 3 0
BITMAP
00003FFFFFFFFFFFFFFF
0003FFFFFFFFFFFFFFFF
000FFFFFFFFFFFFFFFFF
003FFFFFFFFFFFFFFFFF
007FFFFFFFFFFFFFFFFF
01FFFFFFFFFFFFFFFFFF
03FFFFFFFFFFFFFFFFFF
07FFFFFFFFFFFFFFFFFF
07FFFC0001FE00000000
0FFF800001FE00000000
1FFE000001FE00000000
1FFC000001FE00000000
3FF8000001FE00000000
3FF0000001FE00000000
7FE0000001FE00000000
7FC0000001FE00000000
7FC0000001FE00000000
FF80000001FE00000000
FF80000001FE00000000
FF80000001FE00000000
FF00000001FE07FFFFFC
FF00000001FE07FFFFFC
FF00000001FE07FFFFFC
FF00000001FE07FFFFFC
FF00000001FE07FFFFFC
FF00000001FE07FFFFFC
FF00000001FE07FFFFFC
FF80000001FE00000000
FF80000001FE00000000
FF80000001FE00000000
7F80000001FE00000000
7FC0000001FE00000000
7FC0000001FE00000000
3FE0000001FE00000000
3FF0000001FE00000000
1FF8000001FE00000000
1FFC000001FE00000000
0FFE000001FE00000000
0FFF800001FE00000000
07FFFC0001FE00000000
03FFFFFFFFFFFFFFFFFF
01FFFFFFFFFFFFFFFFFF
00FFFFFFFFFFFFFFFFFF
007FFFFFFFFFFFFFFFFF
001FFFFFFFFFFFFFFFFF
000FFFFFFFFFFFFFFFFF
0001FFFFFFFFFFFFFFFF
00003FFFFFFFFFFFFFFF
ENDCHAR
STARTCHAR oe
ENCODING 339
SWIDTH 1304 0
DWIDTH 86 0
BBX 80 48 3 0
BITMAP
00003FFFFFFFFFFFFFFF
0003FFFFFFFFFFFFFFFF
000FFFFFFFFFFFFFFFFF
003FFFFFFFFFFFFFFFFF
007FFFFFFFFFFFFFFFFF
01FFFFFFFFFFFFFFFFFF
03FFFFFFFFFFFFFFFFFF
07FFFFFFFFFFFFFFFFFF
07FFFC0001FE00000000
0FFF800001FE00000000
1FFE000001FE00000000
1FFC000001FE00000000
3FF8000001FE00000000
3FF0000001FE00000000
7FE0000001FE00000000
7FC0000001FE00000000
7FC0000001FE00000000
FF80000001FE00000000
FF80000001FE00000000
FF80000001FE00000000
FF00000001FE07FFFFFC
FF00000001FE07FFFFFC
FF00000001FE07FFFFFC
FF00000001FE07FFFFFC
FF00000001FE07FFFFFC
FF00000001FE07FFFFFC
FF00000001FE07FFFFFC
FF80000001FE00000000
FF80000001FE00000000
FF80000001FE00000000
7F80000001FE00000000
7FC0000001FE00000000
7FC0000001FE00000000
3FE0000001FE00000000
3FF0000001FE00000000
1FF8000001FE00000000
1FFC000001FE00000000
0FFE000001FE00000000
0FFF800001FE00000000
07FFFC0001FE00000000
03FFFFFFFFFFFFFFFFFF
01FFFFFFFFFFFFFFFFFF
00FFFFFFFFFFFFFFFFFF
007FFFFFFFFFFFFFFFFF
001FFFFFFFFFFFFFFFFF
000FFFFFFFFFFFFFFFFF
0001FFFFFFFFFFFFFFFF
00003FFFFFFFFFFFFFFF
ENDCHAR
ENDFONT
